<ttFont>
    <TTGlyph name=".notdef" xMin="100" yMin="0" xMax="658" yMax="531">
      <contour>
        <pt x="100" y="0" on="1"/>
        <pt x="100" y="531" on="1"/>
        <pt x="658" y="531" on="1"/>
        <pt x="658" y="0" on="1"/>
      </contour>
      <contour>
        <pt x="114" y="22" on="1"/>
        <pt x="370" y="266" on="1"/>
        <pt x="114" y="507" on="1"/>
      </contour>
      <contour>
        <pt x="124" y="518" on="1"/>
        <pt x="381" y="276" on="1"/>
        <pt x="635" y="518" on="1"/>
      </contour>
      <contour>
        <pt x="127" y="13" on="1"/>
        <pt x="634" y="13" on="1"/>
        <pt x="381" y="256" on="1"/>
      </contour>
      <contour>
        <pt x="392" y="266" on="1"/>
        <pt x="644" y="25" on="1"/>
        <pt x="644" y="506" on="1"/>
      </contour>
    </TTGlyph>
    <TTGlyph name="A" xMin="45" yMin="0" xMax="626" yMax="732">
      <contour>
        <pt x="45" y="0" on="1"/>
        <pt x="433" y="732" on="1"/>
        <pt x="481" y="732" on="1"/>
        <pt x="625" y="0" on="1"/>
        <pt x="584" y="0" on="1"/>
        <pt x="537" y="236" on="1"/>
        <pt x="216" y="236" on="1"/>
        <pt x="91" y="0" on="1"/>
      </contour>
      <contour>
        <pt x="238" y="277" on="1"/>
        <pt x="529" y="277" on="1"/>
        <pt x="451" y="681" on="1"/>
      </contour>
    </TTGlyph>
    <TTGlyph name="AE" xMin="30" yMin="-4" xMax="987" yMax="733">
      <contour>
        <pt x="517" y="653" on="0"/>
        <pt x="582" y="712" on="0"/>
        <pt x="647" y="732" on="0"/>
        <pt x="697" y="732" on="0"/>
        <pt x="704" y="732" on="1"/>
        <pt x="986" y="720" on="1"/>
        <pt x="982" y="691" on="1"/>
        <pt x="697" y="691" on="1"/>
        <pt x="653" y="691" on="0"/>
        <pt x="630" y="677" on="0"/>
        <pt x="620" y="672" on="0"/>
        <pt x="613" y="659" on="0"/>
        <pt x="608" y="651" on="0"/>
        <pt x="604" y="633" on="0"/>
        <pt x="602" y="624" on="0"/>
        <pt x="599" y="601" on="0"/>
        <pt x="598" y="596" on="1"/>
        <pt x="564" y="382" on="1"/>
        <pt x="892" y="376" on="1"/>
        <pt x="887" y="346" on="1"/>
        <pt x="557" y="340" on="1"/>
        <pt x="522" y="122" on="1"/>
        <pt x="520" y="109" on="0"/>
        <pt x="520" y="86" on="0"/>
        <pt x="528" y="58" on="0"/>
        <pt x="542" y="50" on="1"/>
        <pt x="565" y="37" on="0"/>
        <pt x="604" y="37" on="1"/>
        <pt x="878" y="37" on="1"/>
        <pt x="874" y="9" on="1"/>
        <pt x="603" y="-4" on="1"/>
        <pt x="598" y="-4" on="0"/>
        <pt x="572" y="-4" on="0"/>
        <pt x="552" y="0" on="1"/>
        <pt x="479" y="16" on="0"/>
        <pt x="479" y="91" on="1"/>
        <pt x="479" y="105" on="0"/>
        <pt x="481" y="121" on="1"/>
        <pt x="501" y="245" on="1"/>
        <pt x="261" y="245" on="1"/>
        <pt x="79" y="0" on="1"/>
        <pt x="30" y="0" on="1"/>
        <pt x="474" y="595" on="1"/>
      </contour>
      <contour>
        <pt x="291" y="286" on="1"/>
        <pt x="508" y="286" on="1"/>
        <pt x="566" y="651" on="1"/>
      </contour>
    </TTGlyph>
    <TTGlyph name="Aacute" xMin="45" yMin="0" xMax="638" yMax="930">
      <contour>
        <pt x="451" y="797" on="1"/>
        <pt x="588" y="930" on="1"/>
        <pt x="638" y="930" on="1"/>
        <pt x="484" y="797" on="1"/>
      </contour>
      <contour>
        <pt x="45" y="0" on="1"/>
        <pt x="433" y="732" on="1"/>
        <pt x="481" y="732" on="1"/>
        <pt x="625" y="0" on="1"/>
        <pt x="584" y="0" on="1"/>
        <pt x="537" y="236" on="1"/>
        <pt x="216" y="236" on="1"/>
        <pt x="91" y="0" on="1"/>
      </contour>
      <contour>
        <pt x="238" y="277" on="1"/>
        <pt x="529" y="277" on="1"/>
        <pt x="451" y="681" on="1"/>
      </contour>
    </TTGlyph>
    <TTGlyph name="Abreve" xMin="45" yMin="0" xMax="626" yMax="911">
      <contour>
        <pt x="395" y="895" on="1"/>
        <pt x="395" y="867" on="0"/>
        <pt x="434" y="822" on="0"/>
        <pt x="469" y="822" on="1"/>
        <pt x="511" y="822" on="0"/>
        <pt x="569" y="870" on="0"/>
        <pt x="575" y="911" on="1"/>
        <pt x="600" y="911" on="1"/>
        <pt x="592" y="856" on="0"/>
        <pt x="518" y="797" on="0"/>
        <pt x="426" y="797" on="0"/>
        <pt x="370" y="854" on="0"/>
        <pt x="370" y="893" on="1"/>
        <pt x="370" y="902" on="0"/>
        <pt x="371" y="911" on="1"/>
        <pt x="396" y="911" on="1"/>
        <pt x="395" y="903" on="0"/>
      </contour>
      <contour>
        <pt x="45" y="0" on="1"/>
        <pt x="433" y="732" on="1"/>
        <pt x="481" y="732" on="1"/>
        <pt x="625" y="0" on="1"/>
        <pt x="584" y="0" on="1"/>
        <pt x="537" y="236" on="1"/>
        <pt x="216" y="236" on="1"/>
        <pt x="91" y="0" on="1"/>
      </contour>
      <contour>
        <pt x="238" y="277" on="1"/>
        <pt x="529" y="277" on="1"/>
        <pt x="451" y="681" on="1"/>
      </contour>
    </TTGlyph>
    <TTGlyph name="Acircumflex" xMin="45" yMin="0" xMax="626" yMax="927">
      <contour>
        <pt x="328" y="797" on="1"/>
        <pt x="476" y="927" on="1"/>
        <pt x="514" y="927" on="1"/>
        <pt x="607" y="797" on="1"/>
        <pt x="574" y="797" on="1"/>
        <pt x="492" y="901" on="1"/>
        <pt x="367" y="797" on="1"/>
      </contour>
      <contour>
        <pt x="45" y="0" on="1"/>
        <pt x="433" y="732" on="1"/>
        <pt x="481" y="732" on="1"/>
        <pt x="625" y="0" on="1"/>
        <pt x="584" y="0" on="1"/>
        <pt x="537" y="236" on="1"/>
        <pt x="216" y="236" on="1"/>
        <pt x="91" y="0" on="1"/>
      </contour>
      <contour>
        <pt x="238" y="277" on="1"/>
        <pt x="529" y="277" on="1"/>
        <pt x="451" y="681" on="1"/>
      </contour>
    </TTGlyph>
    <TTGlyph name="Adieresis" xMin="45" yMin="0" xMax="629" yMax="855">
      <contour>
        <pt x="338" y="854" on="0"/>
        <pt x="362" y="854" on="0"/>
        <pt x="375" y="838" on="0"/>
        <pt x="371" y="814" on="0"/>
        <pt x="352" y="797" on="0"/>
        <pt x="328" y="797" on="0"/>
        <pt x="314" y="814" on="0"/>
        <pt x="318" y="838" on="0"/>
      </contour>
      <contour>
        <pt x="593" y="854" on="0"/>
        <pt x="617" y="854" on="0"/>
        <pt x="629" y="840" on="0"/>
        <pt x="629" y="829" on="0"/>
        <pt x="626" y="814" on="0"/>
        <pt x="607" y="797" on="0"/>
        <pt x="583" y="797" on="0"/>
        <pt x="569" y="814" on="0"/>
        <pt x="573" y="838" on="0"/>
      </contour>
      <contour>
        <pt x="45" y="0" on="1"/>
        <pt x="433" y="732" on="1"/>
        <pt x="481" y="732" on="1"/>
        <pt x="625" y="0" on="1"/>
        <pt x="584" y="0" on="1"/>
        <pt x="537" y="236" on="1"/>
        <pt x="216" y="236" on="1"/>
        <pt x="91" y="0" on="1"/>
      </contour>
      <contour>
        <pt x="238" y="277" on="1"/>
        <pt x="529" y="277" on="1"/>
        <pt x="451" y="681" on="1"/>
      </contour>
    </TTGlyph>
    <TTGlyph name="Agrave" xMin="45" yMin="0" xMax="626" yMax="930">
      <contour>
        <pt x="335" y="930" on="1"/>
        <pt x="382" y="930" on="1"/>
        <pt x="484" y="797" on="1"/>
        <pt x="451" y="797" on="1"/>
      </contour>
      <contour>
        <pt x="45" y="0" on="1"/>
        <pt x="433" y="732" on="1"/>
        <pt x="481" y="732" on="1"/>
        <pt x="625" y="0" on="1"/>
        <pt x="584" y="0" on="1"/>
        <pt x="537" y="236" on="1"/>
        <pt x="216" y="236" on="1"/>
        <pt x="91" y="0" on="1"/>
      </contour>
      <contour>
        <pt x="238" y="277" on="1"/>
        <pt x="529" y="277" on="1"/>
        <pt x="451" y="681" on="1"/>
      </contour>
    </TTGlyph>
    <TTGlyph name="Amacron" xMin="45" yMin="0" xMax="626" yMax="829">
      <contour>
        <pt x="335" y="797" on="1"/>
        <pt x="340" y="828" on="1"/>
        <pt x="605" y="828" on="1"/>
        <pt x="600" y="797" on="1"/>
      </contour>
      <contour>
        <pt x="45" y="0" on="1"/>
        <pt x="433" y="732" on="1"/>
        <pt x="481" y="732" on="1"/>
        <pt x="625" y="0" on="1"/>
        <pt x="584" y="0" on="1"/>
        <pt x="537" y="236" on="1"/>
        <pt x="216" y="236" on="1"/>
        <pt x="91" y="0" on="1"/>
      </contour>
      <contour>
        <pt x="238" y="277" on="1"/>
        <pt x="529" y="277" on="1"/>
        <pt x="451" y="681" on="1"/>
      </contour>
    </TTGlyph>
    <TTGlyph name="Aogonek" xMin="147" yMin="-183" xMax="728" yMax="732">
      <contour>
        <pt x="599" y="-110" on="1"/>
        <pt x="599" y="-41" on="0"/>
        <pt x="698" y="0" on="1"/>
        <pt x="719" y="0" on="1"/>
        <pt x="666" y="-26" on="0"/>
        <pt x="645" y="-63" on="1"/>
        <pt x="633" y="-82" on="0"/>
        <pt x="633" y="-114" on="0"/>
        <pt x="642" y="-126" on="1"/>
        <pt x="661" y="-151" on="0"/>
        <pt x="711" y="-151" on="1"/>
        <pt x="714" y="-151" on="0"/>
        <pt x="717" y="-151" on="1"/>
        <pt x="713" y="-181" on="1"/>
        <pt x="701" y="-183" on="0"/>
        <pt x="691" y="-183" on="1"/>
        <pt x="648" y="-183" on="0"/>
        <pt x="599" y="-137" on="0"/>
      </contour>
      <contour>
        <pt x="147" y="0" on="1"/>
        <pt x="535" y="732" on="1"/>
        <pt x="583" y="732" on="1"/>
        <pt x="727" y="0" on="1"/>
        <pt x="686" y="0" on="1"/>
        <pt x="639" y="236" on="1"/>
        <pt x="318" y="236" on="1"/>
        <pt x="193" y="0" on="1"/>
      </contour>
      <contour>
        <pt x="340" y="277" on="1"/>
        <pt x="631" y="277" on="1"/>
        <pt x="553" y="681" on="1"/>
      </contour>
    </TTGlyph>
    <TTGlyph name="Aring" xMin="45" yMin="0" xMax="626" yMax="936">
      <contour>
        <pt x="531" y="935" on="0"/>
        <pt x="447" y="935" on="0"/>
        <pt x="372" y="869" on="0"/>
        <pt x="372" y="811" on="1"/>
        <pt x="372" y="798" on="0"/>
        <pt x="380" y="781" on="1"/>
        <pt x="402" y="730" on="0"/>
        <pt x="468" y="730" on="1"/>
        <pt x="503" y="730" on="0"/>
        <pt x="577" y="796" on="0"/>
        <pt x="577" y="848" on="1"/>
        <pt x="577" y="881" on="0"/>
      </contour>
      <contour>
        <pt x="398" y="821" on="1"/>
        <pt x="398" y="859" on="0"/>
        <pt x="429" y="886" on="1"/>
        <pt x="454" y="909" on="0"/>
        <pt x="517" y="909" on="0"/>
        <pt x="552" y="868" on="0"/>
        <pt x="552" y="844" on="1"/>
        <pt x="552" y="792" on="0"/>
        <pt x="504" y="767" on="1"/>
        <pt x="485" y="756" on="0"/>
        <pt x="433" y="756" on="0"/>
        <pt x="398" y="797" on="0"/>
      </contour>
      <contour>
        <pt x="45" y="0" on="1"/>
        <pt x="433" y="732" on="1"/>
        <pt x="481" y="732" on="1"/>
        <pt x="625" y="0" on="1"/>
        <pt x="584" y="0" on="1"/>
        <pt x="537" y="236" on="1"/>
        <pt x="216" y="236" on="1"/>
        <pt x="91" y="0" on="1"/>
      </contour>
      <contour>
        <pt x="238" y="277" on="1"/>
        <pt x="529" y="277" on="1"/>
        <pt x="451" y="681" on="1"/>
      </contour>
    </TTGlyph>
    <TTGlyph name="Atilde" xMin="45" yMin="0" xMax="647" yMax="892">
      <contour>
        <pt x="534" y="832" on="1"/>
        <pt x="574" y="832" on="0"/>
        <pt x="638" y="878" on="1"/>
        <pt x="647" y="859" on="1"/>
        <pt x="644" y="857" on="0"/>
        <pt x="621" y="839" on="0"/>
        <pt x="613" y="834" on="0"/>
        <pt x="593" y="819" on="0"/>
        <pt x="583" y="814" on="0"/>
        <pt x="565" y="804" on="0"/>
        <pt x="559" y="802" on="1"/>
        <pt x="541" y="797" on="0"/>
        <pt x="508" y="797" on="0"/>
        <pt x="467" y="828" on="0"/>
        <pt x="431" y="857" on="0"/>
        <pt x="406" y="857" on="0"/>
        <pt x="385" y="853" on="0"/>
        <pt x="361" y="842" on="0"/>
        <pt x="347" y="834" on="0"/>
        <pt x="317" y="816" on="0"/>
        <pt x="311" y="812" on="1"/>
        <pt x="304" y="831" on="1"/>
        <pt x="353" y="869" on="0"/>
        <pt x="405" y="891" on="0"/>
        <pt x="446" y="891" on="0"/>
        <pt x="520" y="832" on="0"/>
      </contour>
      <contour>
        <pt x="45" y="0" on="1"/>
        <pt x="433" y="732" on="1"/>
        <pt x="481" y="732" on="1"/>
        <pt x="625" y="0" on="1"/>
        <pt x="584" y="0" on="1"/>
        <pt x="537" y="236" on="1"/>
        <pt x="216" y="236" on="1"/>
        <pt x="91" y="0" on="1"/>
      </contour>
      <contour>
        <pt x="238" y="277" on="1"/>
        <pt x="529" y="277" on="1"/>
        <pt x="451" y="681" on="1"/>
      </contour>
    </TTGlyph>
    <TTGlyph name="B" xMin="80" yMin="0" xMax="625" yMax="732">
      <contour>
        <pt x="459" y="732" on="1"/>
        <pt x="624" y="732" on="0"/>
        <pt x="624" y="593" on="1"/>
        <pt x="624" y="497" on="0"/>
        <pt x="569" y="436" on="1"/>
        <pt x="527" y="391" on="0"/>
        <pt x="477" y="383" on="1"/>
        <pt x="511" y="375" on="0"/>
        <pt x="543" y="331" on="1"/>
        <pt x="571" y="292" on="0"/>
        <pt x="571" y="232" on="1"/>
        <pt x="571" y="216" on="0"/>
        <pt x="569" y="198" on="1"/>
        <pt x="540" y="0" on="0"/>
        <pt x="343" y="0" on="1"/>
        <pt x="80" y="0" on="1"/>
        <pt x="196" y="732" on="1"/>
      </contour>
      <contour>
        <pt x="502" y="42" on="0"/>
        <pt x="528" y="205" on="1"/>
        <pt x="531" y="219" on="0"/>
        <pt x="531" y="260" on="0"/>
        <pt x="508" y="320" on="0"/>
        <pt x="445" y="363" on="0"/>
        <pt x="403" y="363" on="1"/>
        <pt x="402" y="363" on="0"/>
        <pt x="401" y="363" on="1"/>
        <pt x="179" y="363" on="1"/>
        <pt x="128" y="42" on="1"/>
        <pt x="350" y="42" on="1"/>
      </contour>
      <contour>
        <pt x="546" y="472" on="1"/>
        <pt x="570" y="505" on="0"/>
        <pt x="583" y="577" on="0"/>
        <pt x="583" y="610" on="0"/>
        <pt x="581" y="620" on="1"/>
        <pt x="572" y="691" on="0"/>
        <pt x="453" y="691" on="1"/>
        <pt x="231" y="691" on="1"/>
        <pt x="186" y="404" on="1"/>
        <pt x="408" y="404" on="1"/>
        <pt x="497" y="404" on="0"/>
      </contour>
    </TTGlyph>
    <TTGlyph name="C" xMin="105" yMin="-6" xMax="639" yMax="740">
      <contour>
        <pt x="327" y="729" on="1"/>
        <pt x="367" y="740" on="0"/>
        <pt x="502" y="740" on="0"/>
        <pt x="638" y="714" on="1"/>
        <pt x="634" y="685" on="1"/>
        <pt x="519" y="699" on="0"/>
        <pt x="422" y="699" on="1"/>
        <pt x="375" y="699" on="0"/>
        <pt x="316" y="685" on="0"/>
        <pt x="255" y="644" on="0"/>
        <pt x="233" y="608" on="1"/>
        <pt x="183" y="528" on="0"/>
        <pt x="157" y="366" on="1"/>
        <pt x="146" y="298" on="0"/>
        <pt x="146" y="244" on="1"/>
        <pt x="146" y="38" on="0"/>
        <pt x="306" y="35" on="1"/>
        <pt x="310" y="35" on="0"/>
        <pt x="381" y="35" on="0"/>
        <pt x="533" y="46" on="1"/>
        <pt x="529" y="16" on="1"/>
        <pt x="425" y="-6" on="0"/>
        <pt x="301" y="-6" on="1"/>
        <pt x="247" y="-6" on="0"/>
        <pt x="208" y="15" on="1"/>
        <pt x="105" y="68" on="0"/>
        <pt x="105" y="246" on="1"/>
        <pt x="105" y="349" on="0"/>
        <pt x="138" y="481" on="1"/>
        <pt x="164" y="590" on="0"/>
        <pt x="205" y="644" on="1"/>
        <pt x="254" y="710" on="0"/>
      </contour>
    </TTGlyph>
    <TTGlyph name="Cacute" xMin="105" yMin="-6" xMax="639" yMax="933">
      <contour>
        <pt x="416" y="800" on="1"/>
        <pt x="554" y="933" on="1"/>
        <pt x="603" y="933" on="1"/>
        <pt x="449" y="800" on="1"/>
      </contour>
      <contour>
        <pt x="327" y="729" on="1"/>
        <pt x="367" y="740" on="0"/>
        <pt x="502" y="740" on="0"/>
        <pt x="638" y="714" on="1"/>
        <pt x="634" y="685" on="1"/>
        <pt x="519" y="699" on="0"/>
        <pt x="422" y="699" on="1"/>
        <pt x="375" y="699" on="0"/>
        <pt x="316" y="685" on="0"/>
        <pt x="255" y="644" on="0"/>
        <pt x="233" y="608" on="1"/>
        <pt x="183" y="528" on="0"/>
        <pt x="157" y="366" on="1"/>
        <pt x="146" y="298" on="0"/>
        <pt x="146" y="244" on="1"/>
        <pt x="146" y="38" on="0"/>
        <pt x="306" y="35" on="1"/>
        <pt x="310" y="35" on="0"/>
        <pt x="381" y="35" on="0"/>
        <pt x="533" y="46" on="1"/>
        <pt x="529" y="16" on="1"/>
        <pt x="425" y="-6" on="0"/>
        <pt x="301" y="-6" on="1"/>
        <pt x="247" y="-6" on="0"/>
        <pt x="208" y="15" on="1"/>
        <pt x="105" y="68" on="0"/>
        <pt x="105" y="246" on="1"/>
        <pt x="105" y="349" on="0"/>
        <pt x="138" y="481" on="1"/>
        <pt x="164" y="590" on="0"/>
        <pt x="205" y="644" on="1"/>
        <pt x="254" y="710" on="0"/>
      </contour>
    </TTGlyph>
    <TTGlyph name="Ccaron" xMin="105" yMin="-6" xMax="639" yMax="930">
      <contour>
        <pt x="317" y="930" on="1"/>
        <pt x="350" y="930" on="1"/>
        <pt x="431" y="826" on="1"/>
        <pt x="556" y="930" on="1"/>
        <pt x="595" y="930" on="1"/>
        <pt x="447" y="800" on="1"/>
        <pt x="409" y="800" on="1"/>
      </contour>
      <contour>
        <pt x="327" y="729" on="1"/>
        <pt x="367" y="740" on="0"/>
        <pt x="502" y="740" on="0"/>
        <pt x="638" y="714" on="1"/>
        <pt x="634" y="685" on="1"/>
        <pt x="519" y="699" on="0"/>
        <pt x="422" y="699" on="1"/>
        <pt x="375" y="699" on="0"/>
        <pt x="316" y="685" on="0"/>
        <pt x="255" y="644" on="0"/>
        <pt x="233" y="608" on="1"/>
        <pt x="183" y="528" on="0"/>
        <pt x="157" y="366" on="1"/>
        <pt x="146" y="298" on="0"/>
        <pt x="146" y="244" on="1"/>
        <pt x="146" y="38" on="0"/>
        <pt x="306" y="35" on="1"/>
        <pt x="310" y="35" on="0"/>
        <pt x="381" y="35" on="0"/>
        <pt x="533" y="46" on="1"/>
        <pt x="529" y="16" on="1"/>
        <pt x="425" y="-6" on="0"/>
        <pt x="301" y="-6" on="1"/>
        <pt x="247" y="-6" on="0"/>
        <pt x="208" y="15" on="1"/>
        <pt x="105" y="68" on="0"/>
        <pt x="105" y="246" on="1"/>
        <pt x="105" y="349" on="0"/>
        <pt x="138" y="481" on="1"/>
        <pt x="164" y="590" on="0"/>
        <pt x="205" y="644" on="1"/>
        <pt x="254" y="710" on="0"/>
      </contour>
    </TTGlyph>
    <TTGlyph name="Ccedilla" xMin="105" yMin="-173" xMax="639" yMax="740">
      <contour>
        <pt x="303" y="723" on="0"/>
        <pt x="374" y="740" on="0"/>
        <pt x="502" y="740" on="0"/>
        <pt x="638" y="714" on="1"/>
        <pt x="634" y="685" on="1"/>
        <pt x="519" y="699" on="0"/>
        <pt x="422" y="699" on="1"/>
        <pt x="375" y="699" on="0"/>
        <pt x="317" y="685" on="0"/>
        <pt x="256" y="644" on="0"/>
        <pt x="233" y="608" on="1"/>
        <pt x="183" y="528" on="0"/>
        <pt x="158" y="366" on="1"/>
        <pt x="147" y="298" on="0"/>
        <pt x="147" y="244" on="1"/>
        <pt x="147" y="38" on="0"/>
        <pt x="306" y="35" on="1"/>
        <pt x="310" y="35" on="0"/>
        <pt x="381" y="35" on="0"/>
        <pt x="533" y="46" on="1"/>
        <pt x="529" y="16" on="1"/>
        <pt x="425" y="-6" on="0"/>
        <pt x="301" y="-6" on="1"/>
        <pt x="247" y="-6" on="0"/>
        <pt x="208" y="15" on="1"/>
        <pt x="105" y="68" on="0"/>
        <pt x="105" y="246" on="1"/>
        <pt x="105" y="339" on="0"/>
        <pt x="134" y="467" on="1"/>
        <pt x="155" y="560" on="0"/>
        <pt x="203" y="644" on="0"/>
        <pt x="248" y="693" on="0"/>
      </contour>
      <contour>
        <pt x="230" y="-172" on="1"/>
        <pt x="192" y="-172" on="1"/>
        <pt x="195" y="-155" on="1"/>
        <pt x="235" y="-147" on="1"/>
        <pt x="273" y="-140" on="0"/>
        <pt x="310" y="-96" on="0"/>
        <pt x="318" y="-36" on="1"/>
        <pt x="352" y="-36" on="1"/>
        <pt x="340" y="-114" on="0"/>
        <pt x="290" y="-172" on="0"/>
      </contour>
    </TTGlyph>
    <TTGlyph name="Ccircumflex" xMin="105" yMin="-6" xMax="639" yMax="930">
      <contour>
        <pt x="294" y="800" on="1"/>
        <pt x="442" y="930" on="1"/>
        <pt x="480" y="930" on="1"/>
        <pt x="573" y="800" on="1"/>
        <pt x="539" y="800" on="1"/>
        <pt x="458" y="904" on="1"/>
        <pt x="333" y="800" on="1"/>
      </contour>
      <contour>
        <pt x="327" y="729" on="1"/>
        <pt x="367" y="740" on="0"/>
        <pt x="502" y="740" on="0"/>
        <pt x="638" y="714" on="1"/>
        <pt x="634" y="685" on="1"/>
        <pt x="519" y="699" on="0"/>
        <pt x="422" y="699" on="1"/>
        <pt x="375" y="699" on="0"/>
        <pt x="316" y="685" on="0"/>
        <pt x="255" y="644" on="0"/>
        <pt x="233" y="608" on="1"/>
        <pt x="183" y="528" on="0"/>
        <pt x="157" y="366" on="1"/>
        <pt x="146" y="298" on="0"/>
        <pt x="146" y="244" on="1"/>
        <pt x="146" y="38" on="0"/>
        <pt x="306" y="35" on="1"/>
        <pt x="310" y="35" on="0"/>
        <pt x="381" y="35" on="0"/>
        <pt x="533" y="46" on="1"/>
        <pt x="529" y="16" on="1"/>
        <pt x="425" y="-6" on="0"/>
        <pt x="301" y="-6" on="1"/>
        <pt x="247" y="-6" on="0"/>
        <pt x="208" y="15" on="1"/>
        <pt x="105" y="68" on="0"/>
        <pt x="105" y="246" on="1"/>
        <pt x="105" y="349" on="0"/>
        <pt x="138" y="481" on="1"/>
        <pt x="164" y="590" on="0"/>
        <pt x="205" y="644" on="1"/>
        <pt x="254" y="710" on="0"/>
      </contour>
    </TTGlyph>
    <TTGlyph name="Cdotaccent" xMin="105" yMin="-6" xMax="639" yMax="892">
      <contour>
        <pt x="422" y="891" on="1"/>
        <pt x="447" y="891" on="1"/>
        <pt x="462" y="891" on="0"/>
        <pt x="460" y="875" on="1"/>
        <pt x="450" y="816" on="1"/>
        <pt x="448" y="800" on="0"/>
        <pt x="432" y="800" on="1"/>
        <pt x="408" y="800" on="1"/>
        <pt x="401" y="800" on="0"/>
        <pt x="393" y="809" on="0"/>
        <pt x="394" y="816" on="1"/>
        <pt x="404" y="875" on="1"/>
        <pt x="406" y="891" on="0"/>
      </contour>
      <contour>
        <pt x="327" y="729" on="1"/>
        <pt x="367" y="740" on="0"/>
        <pt x="502" y="740" on="0"/>
        <pt x="638" y="714" on="1"/>
        <pt x="634" y="685" on="1"/>
        <pt x="519" y="699" on="0"/>
        <pt x="422" y="699" on="1"/>
        <pt x="375" y="699" on="0"/>
        <pt x="316" y="685" on="0"/>
        <pt x="255" y="644" on="0"/>
        <pt x="233" y="608" on="1"/>
        <pt x="183" y="528" on="0"/>
        <pt x="157" y="366" on="1"/>
        <pt x="146" y="298" on="0"/>
        <pt x="146" y="244" on="1"/>
        <pt x="146" y="38" on="0"/>
        <pt x="306" y="35" on="1"/>
        <pt x="310" y="35" on="0"/>
        <pt x="381" y="35" on="0"/>
        <pt x="533" y="46" on="1"/>
        <pt x="529" y="16" on="1"/>
        <pt x="425" y="-6" on="0"/>
        <pt x="301" y="-6" on="1"/>
        <pt x="247" y="-6" on="0"/>
        <pt x="208" y="15" on="1"/>
        <pt x="105" y="68" on="0"/>
        <pt x="105" y="246" on="1"/>
        <pt x="105" y="349" on="0"/>
        <pt x="138" y="481" on="1"/>
        <pt x="164" y="590" on="0"/>
        <pt x="205" y="644" on="1"/>
        <pt x="254" y="710" on="0"/>
      </contour>
    </TTGlyph>
    <TTGlyph name="D" xMin="80" yMin="0" xMax="668" yMax="732">
      <contour>
        <pt x="455" y="732" on="1"/>
        <pt x="565" y="732" on="0"/>
        <pt x="614" y="666" on="1"/>
        <pt x="661" y="601" on="0"/>
        <pt x="666" y="517" on="1"/>
        <pt x="667" y="495" on="0"/>
        <pt x="667" y="474" on="1"/>
        <pt x="667" y="344" on="0"/>
        <pt x="618" y="217" on="1"/>
        <pt x="534" y="0" on="0"/>
        <pt x="344" y="0" on="1"/>
        <pt x="80" y="0" on="1"/>
        <pt x="196" y="732" on="1"/>
        <pt x="196" y="732" on="0"/>
      </contour>
      <contour>
        <pt x="627" y="479" on="1"/>
        <pt x="627" y="691" on="0"/>
        <pt x="448" y="691" on="1"/>
        <pt x="230" y="691" on="1"/>
        <pt x="128" y="42" on="1"/>
        <pt x="348" y="42" on="1"/>
        <pt x="395" y="42" on="0"/>
        <pt x="477" y="81" on="0"/>
        <pt x="535" y="144" on="0"/>
        <pt x="558" y="187" on="1"/>
        <pt x="600" y="264" on="0"/>
        <pt x="627" y="428" on="0"/>
      </contour>
    </TTGlyph>
    <TTGlyph name="Dcaron" xMin="85" yMin="0" xMax="673" yMax="926">
      <contour>
        <pt x="331" y="925" on="1"/>
        <pt x="365" y="925" on="1"/>
        <pt x="446" y="821" on="1"/>
        <pt x="571" y="925" on="1"/>
        <pt x="610" y="925" on="1"/>
        <pt x="462" y="795" on="1"/>
        <pt x="424" y="795" on="1"/>
      </contour>
      <contour>
        <pt x="461" y="732" on="1"/>
        <pt x="570" y="732" on="0"/>
        <pt x="619" y="666" on="1"/>
        <pt x="667" y="601" on="0"/>
        <pt x="672" y="517" on="1"/>
        <pt x="673" y="495" on="0"/>
        <pt x="673" y="474" on="1"/>
        <pt x="673" y="344" on="0"/>
        <pt x="623" y="217" on="1"/>
        <pt x="539" y="0" on="0"/>
        <pt x="349" y="0" on="1"/>
        <pt x="85" y="0" on="1"/>
        <pt x="201" y="732" on="1"/>
        <pt x="201" y="732" on="0"/>
      </contour>
      <contour>
        <pt x="353" y="42" on="1"/>
        <pt x="433" y="42" on="0"/>
        <pt x="491" y="93" on="1"/>
        <pt x="591" y="182" on="0"/>
        <pt x="622" y="364" on="1"/>
        <pt x="632" y="428" on="0"/>
        <pt x="632" y="479" on="1"/>
        <pt x="632" y="691" on="0"/>
        <pt x="453" y="691" on="1"/>
        <pt x="236" y="691" on="1"/>
        <pt x="133" y="42" on="1"/>
      </contour>
    </TTGlyph>
    <TTGlyph name="Dcroat" xMin="79" yMin="0" xMax="677" yMax="732">
      <contour>
        <pt x="463" y="732" on="1"/>
        <pt x="573" y="732" on="0"/>
        <pt x="622" y="666" on="1"/>
        <pt x="670" y="601" on="0"/>
        <pt x="675" y="517" on="1"/>
        <pt x="676" y="494" on="0"/>
        <pt x="676" y="473" on="1"/>
        <pt x="676" y="344" on="0"/>
        <pt x="627" y="217" on="1"/>
        <pt x="542" y="0" on="0"/>
        <pt x="352" y="0" on="1"/>
        <pt x="88" y="0" on="1"/>
        <pt x="145" y="359" on="1"/>
        <pt x="80" y="359" on="1"/>
        <pt x="84" y="387" on="1"/>
        <pt x="149" y="387" on="1"/>
        <pt x="204" y="732" on="1"/>
        <pt x="204" y="732" on="0"/>
      </contour>
      <contour>
        <pt x="356" y="42" on="1"/>
        <pt x="403" y="42" on="0"/>
        <pt x="485" y="81" on="0"/>
        <pt x="543" y="144" on="0"/>
        <pt x="566" y="187" on="1"/>
        <pt x="607" y="264" on="0"/>
        <pt x="635" y="428" on="0"/>
        <pt x="635" y="479" on="1"/>
        <pt x="635" y="691" on="0"/>
        <pt x="456" y="691" on="1"/>
        <pt x="238" y="691" on="1"/>
        <pt x="190" y="387" on="1"/>
        <pt x="342" y="387" on="1"/>
        <pt x="338" y="359" on="1"/>
        <pt x="186" y="359" on="1"/>
        <pt x="136" y="42" on="1"/>
      </contour>
    </TTGlyph>
    <TTGlyph name="E" xMin="95" yMin="-4" xMax="623" yMax="733">
      <contour>
        <pt x="313" y="732" on="1"/>
        <pt x="316" y="732" on="0"/>
        <pt x="320" y="732" on="1"/>
        <pt x="622" y="720" on="1"/>
        <pt x="618" y="691" on="1"/>
        <pt x="314" y="691" on="1"/>
        <pt x="229" y="691" on="0"/>
        <pt x="215" y="602" on="1"/>
        <pt x="180" y="384" on="1"/>
        <pt x="528" y="377" on="1"/>
        <pt x="523" y="348" on="1"/>
        <pt x="174" y="341" on="1"/>
        <pt x="139" y="123" on="1"/>
        <pt x="137" y="110" on="0"/>
        <pt x="137" y="86" on="0"/>
        <pt x="145" y="59" on="0"/>
        <pt x="159" y="51" on="1"/>
        <pt x="182" y="38" on="0"/>
        <pt x="221" y="38" on="1"/>
        <pt x="515" y="38" on="1"/>
        <pt x="510" y="9" on="1"/>
        <pt x="214" y="-3" on="1"/>
        <pt x="210" y="-3" on="0"/>
        <pt x="184" y="-3" on="0"/>
        <pt x="164" y="2" on="1"/>
        <pt x="95" y="19" on="0"/>
        <pt x="95" y="94" on="1"/>
        <pt x="95" y="109" on="0"/>
        <pt x="98" y="126" on="1"/>
        <pt x="174" y="605" on="1"/>
        <pt x="185" y="674" on="0"/>
        <pt x="262" y="732" on="0"/>
      </contour>
    </TTGlyph>
    <TTGlyph name="Eacute" xMin="95" yMin="-4" xMax="623" yMax="925">
      <contour>
        <pt x="405" y="792" on="1"/>
        <pt x="542" y="925" on="1"/>
        <pt x="591" y="925" on="1"/>
        <pt x="437" y="792" on="1"/>
      </contour>
      <contour>
        <pt x="313" y="732" on="1"/>
        <pt x="316" y="732" on="0"/>
        <pt x="320" y="732" on="1"/>
        <pt x="622" y="720" on="1"/>
        <pt x="618" y="691" on="1"/>
        <pt x="314" y="691" on="1"/>
        <pt x="229" y="691" on="0"/>
        <pt x="215" y="602" on="1"/>
        <pt x="180" y="384" on="1"/>
        <pt x="528" y="377" on="1"/>
        <pt x="523" y="348" on="1"/>
        <pt x="174" y="341" on="1"/>
        <pt x="139" y="123" on="1"/>
        <pt x="137" y="110" on="0"/>
        <pt x="137" y="86" on="0"/>
        <pt x="145" y="59" on="0"/>
        <pt x="159" y="51" on="1"/>
        <pt x="182" y="38" on="0"/>
        <pt x="221" y="38" on="1"/>
        <pt x="515" y="38" on="1"/>
        <pt x="510" y="9" on="1"/>
        <pt x="214" y="-3" on="1"/>
        <pt x="210" y="-3" on="0"/>
        <pt x="184" y="-3" on="0"/>
        <pt x="164" y="2" on="1"/>
        <pt x="95" y="19" on="0"/>
        <pt x="95" y="94" on="1"/>
        <pt x="95" y="109" on="0"/>
        <pt x="98" y="126" on="1"/>
        <pt x="174" y="605" on="1"/>
        <pt x="185" y="674" on="0"/>
        <pt x="262" y="732" on="0"/>
      </contour>
    </TTGlyph>
    <TTGlyph name="Ecaron" xMin="95" yMin="-4" xMax="623" yMax="927">
      <contour>
        <pt x="318" y="927" on="1"/>
        <pt x="351" y="927" on="1"/>
        <pt x="433" y="823" on="1"/>
        <pt x="558" y="927" on="1"/>
        <pt x="597" y="927" on="1"/>
        <pt x="449" y="797" on="1"/>
        <pt x="411" y="797" on="1"/>
      </contour>
      <contour>
        <pt x="313" y="732" on="1"/>
        <pt x="316" y="732" on="0"/>
        <pt x="320" y="732" on="1"/>
        <pt x="622" y="720" on="1"/>
        <pt x="618" y="691" on="1"/>
        <pt x="314" y="691" on="1"/>
        <pt x="229" y="691" on="0"/>
        <pt x="215" y="602" on="1"/>
        <pt x="180" y="384" on="1"/>
        <pt x="528" y="377" on="1"/>
        <pt x="523" y="348" on="1"/>
        <pt x="174" y="341" on="1"/>
        <pt x="139" y="123" on="1"/>
        <pt x="137" y="110" on="0"/>
        <pt x="137" y="86" on="0"/>
        <pt x="145" y="59" on="0"/>
        <pt x="159" y="51" on="1"/>
        <pt x="182" y="38" on="0"/>
        <pt x="221" y="38" on="1"/>
        <pt x="515" y="38" on="1"/>
        <pt x="510" y="9" on="1"/>
        <pt x="214" y="-3" on="1"/>
        <pt x="210" y="-3" on="0"/>
        <pt x="184" y="-3" on="0"/>
        <pt x="164" y="2" on="1"/>
        <pt x="95" y="19" on="0"/>
        <pt x="95" y="94" on="1"/>
        <pt x="95" y="109" on="0"/>
        <pt x="98" y="126" on="1"/>
        <pt x="174" y="605" on="1"/>
        <pt x="185" y="674" on="0"/>
        <pt x="262" y="732" on="0"/>
      </contour>
    </TTGlyph>
    <TTGlyph name="Ecircumflex" xMin="95" yMin="-4" xMax="623" yMax="923">
      <contour>
        <pt x="291" y="792" on="1"/>
        <pt x="439" y="922" on="1"/>
        <pt x="477" y="922" on="1"/>
        <pt x="570" y="792" on="1"/>
        <pt x="535" y="792" on="1"/>
        <pt x="455" y="895" on="1"/>
        <pt x="331" y="792" on="1"/>
      </contour>
      <contour>
        <pt x="313" y="732" on="1"/>
        <pt x="316" y="732" on="0"/>
        <pt x="320" y="732" on="1"/>
        <pt x="622" y="720" on="1"/>
        <pt x="618" y="691" on="1"/>
        <pt x="314" y="691" on="1"/>
        <pt x="229" y="691" on="0"/>
        <pt x="215" y="602" on="1"/>
        <pt x="180" y="384" on="1"/>
        <pt x="528" y="377" on="1"/>
        <pt x="523" y="348" on="1"/>
        <pt x="174" y="341" on="1"/>
        <pt x="139" y="123" on="1"/>
        <pt x="137" y="110" on="0"/>
        <pt x="137" y="86" on="0"/>
        <pt x="145" y="59" on="0"/>
        <pt x="159" y="51" on="1"/>
        <pt x="182" y="38" on="0"/>
        <pt x="221" y="38" on="1"/>
        <pt x="515" y="38" on="1"/>
        <pt x="510" y="9" on="1"/>
        <pt x="214" y="-3" on="1"/>
        <pt x="210" y="-3" on="0"/>
        <pt x="184" y="-3" on="0"/>
        <pt x="164" y="2" on="1"/>
        <pt x="95" y="19" on="0"/>
        <pt x="95" y="94" on="1"/>
        <pt x="95" y="109" on="0"/>
        <pt x="98" y="126" on="1"/>
        <pt x="174" y="605" on="1"/>
        <pt x="185" y="674" on="0"/>
        <pt x="262" y="732" on="0"/>
      </contour>
    </TTGlyph>
    <TTGlyph name="Edieresis" xMin="95" yMin="-4" xMax="623" yMax="872">
      <contour>
        <pt x="295" y="871" on="0"/>
        <pt x="319" y="871" on="0"/>
        <pt x="333" y="855" on="0"/>
        <pt x="329" y="831" on="0"/>
        <pt x="310" y="814" on="0"/>
        <pt x="286" y="814" on="0"/>
        <pt x="271" y="831" on="0"/>
        <pt x="275" y="855" on="0"/>
      </contour>
      <contour>
        <pt x="550" y="871" on="0"/>
        <pt x="574" y="871" on="0"/>
        <pt x="588" y="855" on="0"/>
        <pt x="584" y="831" on="0"/>
        <pt x="565" y="814" on="0"/>
        <pt x="541" y="814" on="0"/>
        <pt x="526" y="831" on="0"/>
        <pt x="530" y="855" on="0"/>
      </contour>
      <contour>
        <pt x="313" y="732" on="1"/>
        <pt x="316" y="732" on="0"/>
        <pt x="320" y="732" on="1"/>
        <pt x="622" y="720" on="1"/>
        <pt x="618" y="691" on="1"/>
        <pt x="314" y="691" on="1"/>
        <pt x="229" y="691" on="0"/>
        <pt x="215" y="602" on="1"/>
        <pt x="180" y="384" on="1"/>
        <pt x="528" y="377" on="1"/>
        <pt x="523" y="348" on="1"/>
        <pt x="174" y="341" on="1"/>
        <pt x="139" y="123" on="1"/>
        <pt x="137" y="110" on="0"/>
        <pt x="137" y="86" on="0"/>
        <pt x="145" y="59" on="0"/>
        <pt x="159" y="51" on="1"/>
        <pt x="182" y="38" on="0"/>
        <pt x="221" y="38" on="1"/>
        <pt x="515" y="38" on="1"/>
        <pt x="510" y="9" on="1"/>
        <pt x="214" y="-3" on="1"/>
        <pt x="210" y="-3" on="0"/>
        <pt x="184" y="-3" on="0"/>
        <pt x="164" y="2" on="1"/>
        <pt x="95" y="19" on="0"/>
        <pt x="95" y="94" on="1"/>
        <pt x="95" y="109" on="0"/>
        <pt x="98" y="126" on="1"/>
        <pt x="174" y="605" on="1"/>
        <pt x="185" y="674" on="0"/>
        <pt x="262" y="732" on="0"/>
      </contour>
    </TTGlyph>
    <TTGlyph name="Edotaccent" xMin="95" yMin="-4" xMax="623" yMax="889">
      <contour>
        <pt x="428" y="888" on="1"/>
        <pt x="452" y="888" on="1"/>
        <pt x="468" y="888" on="0"/>
        <pt x="465" y="872" on="1"/>
        <pt x="456" y="813" on="1"/>
        <pt x="453" y="797" on="0"/>
        <pt x="438" y="797" on="1"/>
        <pt x="413" y="797" on="1"/>
        <pt x="406" y="797" on="0"/>
        <pt x="399" y="806" on="0"/>
        <pt x="400" y="813" on="1"/>
        <pt x="409" y="872" on="1"/>
        <pt x="412" y="888" on="0"/>
      </contour>
      <contour>
        <pt x="313" y="732" on="1"/>
        <pt x="316" y="732" on="0"/>
        <pt x="320" y="732" on="1"/>
        <pt x="622" y="720" on="1"/>
        <pt x="618" y="691" on="1"/>
        <pt x="314" y="691" on="1"/>
        <pt x="229" y="691" on="0"/>
        <pt x="215" y="602" on="1"/>
        <pt x="180" y="384" on="1"/>
        <pt x="528" y="377" on="1"/>
        <pt x="523" y="348" on="1"/>
        <pt x="174" y="341" on="1"/>
        <pt x="139" y="123" on="1"/>
        <pt x="137" y="110" on="0"/>
        <pt x="137" y="86" on="0"/>
        <pt x="145" y="59" on="0"/>
        <pt x="159" y="51" on="1"/>
        <pt x="182" y="38" on="0"/>
        <pt x="221" y="38" on="1"/>
        <pt x="515" y="38" on="1"/>
        <pt x="510" y="9" on="1"/>
        <pt x="214" y="-3" on="1"/>
        <pt x="210" y="-3" on="0"/>
        <pt x="184" y="-3" on="0"/>
        <pt x="164" y="2" on="1"/>
        <pt x="95" y="19" on="0"/>
        <pt x="95" y="94" on="1"/>
        <pt x="95" y="109" on="0"/>
        <pt x="98" y="126" on="1"/>
        <pt x="174" y="605" on="1"/>
        <pt x="185" y="674" on="0"/>
        <pt x="262" y="732" on="0"/>
      </contour>
    </TTGlyph>
    <TTGlyph name="Egrave" xMin="95" yMin="-4" xMax="623" yMax="925">
      <contour>
        <pt x="299" y="925" on="1"/>
        <pt x="346" y="925" on="1"/>
        <pt x="448" y="792" on="1"/>
        <pt x="416" y="792" on="1"/>
      </contour>
      <contour>
        <pt x="313" y="732" on="1"/>
        <pt x="316" y="732" on="0"/>
        <pt x="320" y="732" on="1"/>
        <pt x="622" y="720" on="1"/>
        <pt x="618" y="691" on="1"/>
        <pt x="314" y="691" on="1"/>
        <pt x="229" y="691" on="0"/>
        <pt x="215" y="602" on="1"/>
        <pt x="180" y="384" on="1"/>
        <pt x="528" y="377" on="1"/>
        <pt x="523" y="348" on="1"/>
        <pt x="174" y="341" on="1"/>
        <pt x="139" y="123" on="1"/>
        <pt x="137" y="110" on="0"/>
        <pt x="137" y="86" on="0"/>
        <pt x="145" y="59" on="0"/>
        <pt x="159" y="51" on="1"/>
        <pt x="182" y="38" on="0"/>
        <pt x="221" y="38" on="1"/>
        <pt x="515" y="38" on="1"/>
        <pt x="510" y="9" on="1"/>
        <pt x="214" y="-3" on="1"/>
        <pt x="210" y="-3" on="0"/>
        <pt x="184" y="-3" on="0"/>
        <pt x="164" y="2" on="1"/>
        <pt x="95" y="19" on="0"/>
        <pt x="95" y="94" on="1"/>
        <pt x="95" y="109" on="0"/>
        <pt x="98" y="126" on="1"/>
        <pt x="174" y="605" on="1"/>
        <pt x="185" y="674" on="0"/>
        <pt x="262" y="732" on="0"/>
      </contour>
    </TTGlyph>
    <TTGlyph name="Emacron" xMin="95" yMin="-4" xMax="623" yMax="827">
      <contour>
        <pt x="294" y="795" on="1"/>
        <pt x="298" y="827" on="1"/>
        <pt x="564" y="827" on="1"/>
        <pt x="559" y="795" on="1"/>
      </contour>
      <contour>
        <pt x="313" y="732" on="1"/>
        <pt x="316" y="732" on="0"/>
        <pt x="320" y="732" on="1"/>
        <pt x="622" y="720" on="1"/>
        <pt x="618" y="691" on="1"/>
        <pt x="314" y="691" on="1"/>
        <pt x="229" y="691" on="0"/>
        <pt x="215" y="602" on="1"/>
        <pt x="180" y="384" on="1"/>
        <pt x="528" y="377" on="1"/>
        <pt x="523" y="348" on="1"/>
        <pt x="174" y="341" on="1"/>
        <pt x="139" y="123" on="1"/>
        <pt x="137" y="110" on="0"/>
        <pt x="137" y="86" on="0"/>
        <pt x="145" y="59" on="0"/>
        <pt x="159" y="51" on="1"/>
        <pt x="182" y="38" on="0"/>
        <pt x="221" y="38" on="1"/>
        <pt x="515" y="38" on="1"/>
        <pt x="510" y="9" on="1"/>
        <pt x="214" y="-3" on="1"/>
        <pt x="210" y="-3" on="0"/>
        <pt x="184" y="-3" on="0"/>
        <pt x="164" y="2" on="1"/>
        <pt x="95" y="19" on="0"/>
        <pt x="95" y="94" on="1"/>
        <pt x="95" y="109" on="0"/>
        <pt x="98" y="126" on="1"/>
        <pt x="174" y="605" on="1"/>
        <pt x="185" y="674" on="0"/>
        <pt x="262" y="732" on="0"/>
      </contour>
    </TTGlyph>
    <TTGlyph name="Eng" xMin="80" yMin="-257" xMax="682" yMax="732">
      <contour>
        <pt x="80" y="0" on="1"/>
        <pt x="196" y="732" on="1"/>
        <pt x="237" y="732" on="1"/>
        <pt x="538" y="79" on="1"/>
        <pt x="641" y="732" on="1"/>
        <pt x="682" y="732" on="1"/>
        <pt x="553" y="-84" on="1"/>
        <pt x="536" y="-191" on="0"/>
        <pt x="442" y="-257" on="0"/>
        <pt x="344" y="-257" on="1"/>
        <pt x="349" y="-226" on="1"/>
        <pt x="357" y="-225" on="0"/>
        <pt x="387" y="-221" on="0"/>
        <pt x="402" y="-218" on="0"/>
        <pt x="428" y="-213" on="0"/>
        <pt x="441" y="-207" on="0"/>
        <pt x="462" y="-195" on="0"/>
        <pt x="474" y="-181" on="0"/>
        <pt x="490" y="-161" on="0"/>
        <pt x="495" y="-148" on="1"/>
        <pt x="507" y="-116" on="0"/>
        <pt x="513" y="-80" on="1"/>
        <pt x="525" y="2" on="1"/>
        <pt x="225" y="653" on="1"/>
        <pt x="122" y="0" on="1"/>
      </contour>
    </TTGlyph>
    <TTGlyph name="Eogonek" xMin="96" yMin="-174" xMax="625" yMax="733">
      <contour>
        <pt x="391" y="-100" on="1"/>
        <pt x="391" y="-31" on="0"/>
        <pt x="490" y="9" on="1"/>
        <pt x="511" y="9" on="1"/>
        <pt x="458" y="-16" on="0"/>
        <pt x="436" y="-53" on="1"/>
        <pt x="425" y="-73" on="0"/>
        <pt x="425" y="-104" on="0"/>
        <pt x="434" y="-117" on="1"/>
        <pt x="453" y="-142" on="0"/>
        <pt x="503" y="-142" on="1"/>
        <pt x="506" y="-142" on="0"/>
        <pt x="509" y="-142" on="1"/>
        <pt x="505" y="-172" on="1"/>
        <pt x="493" y="-173" on="0"/>
        <pt x="482" y="-173" on="1"/>
        <pt x="440" y="-173" on="0"/>
        <pt x="391" y="-127" on="0"/>
      </contour>
      <contour>
        <pt x="314" y="732" on="1"/>
        <pt x="318" y="732" on="0"/>
        <pt x="322" y="732" on="1"/>
        <pt x="624" y="720" on="1"/>
        <pt x="620" y="691" on="1"/>
        <pt x="316" y="691" on="1"/>
        <pt x="231" y="691" on="0"/>
        <pt x="217" y="602" on="1"/>
        <pt x="182" y="384" on="1"/>
        <pt x="530" y="377" on="1"/>
        <pt x="525" y="348" on="1"/>
        <pt x="175" y="341" on="1"/>
        <pt x="141" y="123" on="1"/>
        <pt x="140" y="103" on="0"/>
        <pt x="139" y="75" on="0"/>
        <pt x="153" y="57" on="0"/>
        <pt x="166" y="45" on="0"/>
        <pt x="178" y="43" on="1"/>
        <pt x="197" y="38" on="0"/>
        <pt x="223" y="38" on="1"/>
        <pt x="517" y="38" on="1"/>
        <pt x="512" y="9" on="1"/>
        <pt x="216" y="-3" on="1"/>
        <pt x="211" y="-3" on="0"/>
        <pt x="185" y="-3" on="0"/>
        <pt x="165" y="2" on="1"/>
        <pt x="97" y="19" on="0"/>
        <pt x="97" y="94" on="1"/>
        <pt x="97" y="109" on="0"/>
        <pt x="100" y="126" on="1"/>
        <pt x="176" y="605" on="1"/>
        <pt x="187" y="674" on="0"/>
        <pt x="263" y="732" on="0"/>
      </contour>
    </TTGlyph>
    <TTGlyph name="Eth" xMin="70" yMin="0" xMax="668" yMax="732">
      <contour>
        <pt x="454" y="732" on="1"/>
        <pt x="564" y="732" on="0"/>
        <pt x="613" y="666" on="1"/>
        <pt x="661" y="601" on="0"/>
        <pt x="666" y="517" on="1"/>
        <pt x="667" y="494" on="0"/>
        <pt x="667" y="473" on="1"/>
        <pt x="667" y="344" on="0"/>
        <pt x="618" y="217" on="1"/>
        <pt x="533" y="0" on="0"/>
        <pt x="343" y="0" on="1"/>
        <pt x="79" y="0" on="1"/>
        <pt x="136" y="359" on="1"/>
        <pt x="71" y="359" on="1"/>
        <pt x="75" y="387" on="1"/>
        <pt x="140" y="387" on="1"/>
        <pt x="195" y="732" on="1"/>
        <pt x="195" y="732" on="0"/>
      </contour>
      <contour>
        <pt x="347" y="42" on="1"/>
        <pt x="394" y="42" on="0"/>
        <pt x="476" y="81" on="0"/>
        <pt x="534" y="144" on="0"/>
        <pt x="557" y="187" on="1"/>
        <pt x="599" y="264" on="0"/>
        <pt x="626" y="428" on="0"/>
        <pt x="626" y="479" on="1"/>
        <pt x="626" y="691" on="0"/>
        <pt x="447" y="691" on="1"/>
        <pt x="229" y="691" on="1"/>
        <pt x="181" y="387" on="1"/>
        <pt x="334" y="387" on="1"/>
        <pt x="329" y="359" on="1"/>
        <pt x="177" y="359" on="1"/>
        <pt x="127" y="42" on="1"/>
      </contour>
    </TTGlyph>
    <TTGlyph name="Euro" xMin="70" yMin="-6" xMax="689" yMax="741">
      <contour>
        <pt x="684" y="687" on="1"/>
        <pt x="552" y="699" on="0"/>
        <pt x="465" y="699" on="0"/>
        <pt x="462" y="699" on="1"/>
        <pt x="323" y="698" on="0"/>
        <pt x="270" y="595" on="1"/>
        <pt x="243" y="542" on="0"/>
        <pt x="229" y="457" on="1"/>
        <pt x="496" y="452" on="1"/>
        <pt x="492" y="428" on="1"/>
        <pt x="224" y="423" on="1"/>
        <pt x="204" y="296" on="1"/>
        <pt x="470" y="291" on="1"/>
        <pt x="466" y="266" on="1"/>
        <pt x="308" y="264" on="0"/>
        <pt x="236" y="263" on="1"/>
        <pt x="198" y="261" on="1"/>
        <pt x="192" y="227" on="0"/>
        <pt x="192" y="198" on="1"/>
        <pt x="192" y="134" on="0"/>
        <pt x="221" y="94" on="1"/>
        <pt x="263" y="37" on="0"/>
        <pt x="355" y="35" on="1"/>
        <pt x="365" y="35" on="0"/>
        <pt x="389" y="35" on="1"/>
        <pt x="463" y="35" on="0"/>
        <pt x="552" y="45" on="1"/>
        <pt x="587" y="49" on="1"/>
        <pt x="582" y="20" on="1"/>
        <pt x="475" y="-6" on="0"/>
        <pt x="353" y="-6" on="1"/>
        <pt x="290" y="-6" on="0"/>
        <pt x="248" y="17" on="1"/>
        <pt x="202" y="40" on="0"/>
        <pt x="183" y="73" on="1"/>
        <pt x="152" y="127" on="0"/>
        <pt x="152" y="217" on="0"/>
        <pt x="157" y="261" on="1"/>
        <pt x="70" y="266" on="1"/>
        <pt x="74" y="291" on="1"/>
        <pt x="163" y="296" on="1"/>
        <pt x="183" y="423" on="1"/>
        <pt x="96" y="428" on="1"/>
        <pt x="100" y="451" on="1"/>
        <pt x="188" y="457" on="1"/>
        <pt x="188" y="459" on="0"/>
        <pt x="193" y="488" on="0"/>
        <pt x="199" y="520" on="0"/>
        <pt x="217" y="584" on="0"/>
        <pt x="240" y="628" on="0"/>
        <pt x="284" y="683" on="0"/>
        <pt x="310" y="699" on="1"/>
        <pt x="375" y="740" on="0"/>
        <pt x="566" y="740" on="0"/>
        <pt x="689" y="717" on="1"/>
      </contour>
    </TTGlyph>
    <TTGlyph name="Euro.smcp" xMin="47" yMin="-5" xMax="551" yMax="577">
      <contour>
        <pt x="152" y="159" on="1"/>
        <pt x="152" y="36" on="0"/>
        <pt x="279" y="36" on="1"/>
        <pt x="351" y="36" on="0"/>
        <pt x="443" y="48" on="1"/>
        <pt x="474" y="52" on="1"/>
        <pt x="469" y="23" on="1"/>
        <pt x="366" y="-5" on="0"/>
        <pt x="274" y="-5" on="1"/>
        <pt x="197" y="-5" on="0"/>
        <pt x="149" y="40" on="1"/>
        <pt x="110" y="76" on="0"/>
        <pt x="110" y="152" on="1"/>
        <pt x="110" y="177" on="0"/>
        <pt x="114" y="204" on="1"/>
        <pt x="47" y="210" on="1"/>
        <pt x="51" y="233" on="1"/>
        <pt x="120" y="239" on="1"/>
        <pt x="133" y="321" on="1"/>
        <pt x="66" y="327" on="1"/>
        <pt x="69" y="348" on="1"/>
        <pt x="138" y="355" on="1"/>
        <pt x="146" y="407" on="0"/>
        <pt x="164" y="451" on="0"/>
        <pt x="184" y="489" on="0"/>
        <pt x="207" y="517" on="0"/>
        <pt x="241" y="546" on="0"/>
        <pt x="261" y="556" on="1"/>
        <pt x="307" y="577" on="0"/>
        <pt x="429" y="577" on="0"/>
        <pt x="550" y="554" on="1"/>
        <pt x="546" y="525" on="1"/>
        <pt x="423" y="536" on="0"/>
        <pt x="321" y="536" on="0"/>
        <pt x="260" y="512" on="0"/>
        <pt x="223" y="477" on="0"/>
        <pt x="210" y="451" on="1"/>
        <pt x="189" y="411" on="0"/>
        <pt x="180" y="355" on="1"/>
        <pt x="364" y="349" on="1"/>
        <pt x="360" y="326" on="1"/>
        <pt x="175" y="321" on="1"/>
        <pt x="162" y="239" on="1"/>
        <pt x="346" y="234" on="1"/>
        <pt x="342" y="210" on="1"/>
        <pt x="154" y="206" on="0"/>
        <pt x="156" y="204" on="1"/>
        <pt x="152" y="180" on="0"/>
      </contour>
    </TTGlyph>
    <TTGlyph name="F" xMin="80" yMin="0" xMax="624" yMax="733">
      <contour>
        <pt x="313" y="732" on="1"/>
        <pt x="317" y="732" on="0"/>
        <pt x="321" y="732" on="1"/>
        <pt x="623" y="720" on="1"/>
        <pt x="619" y="691" on="1"/>
        <pt x="314" y="691" on="1"/>
        <pt x="249" y="691" on="0"/>
        <pt x="227" y="641" on="1"/>
        <pt x="220" y="625" on="0"/>
        <pt x="216" y="602" on="1"/>
        <pt x="182" y="384" on="1"/>
        <pt x="530" y="377" on="1"/>
        <pt x="525" y="348" on="1"/>
        <pt x="175" y="341" on="1"/>
        <pt x="121" y="0" on="1"/>
        <pt x="80" y="0" on="1"/>
        <pt x="174" y="599" on="1"/>
        <pt x="186" y="675" on="0"/>
        <pt x="260" y="732" on="0"/>
      </contour>
    </TTGlyph>
    <TTGlyph name="G" xMin="108" yMin="-6" xMax="649" yMax="740">
      <contour>
        <pt x="643" y="679" on="1"/>
        <pt x="490" y="699" on="0"/>
        <pt x="303" y="699" on="0"/>
        <pt x="192" y="549" on="0"/>
        <pt x="164" y="367" on="1"/>
        <pt x="151" y="284" on="0"/>
        <pt x="151" y="156" on="0"/>
        <pt x="166" y="115" on="1"/>
        <pt x="195" y="35" on="0"/>
        <pt x="299" y="35" on="1"/>
        <pt x="334" y="35" on="0"/>
        <pt x="448" y="61" on="0"/>
        <pt x="488" y="74" on="1"/>
        <pt x="527" y="87" on="1"/>
        <pt x="569" y="347" on="1"/>
        <pt x="371" y="347" on="1"/>
        <pt x="375" y="373" on="1"/>
        <pt x="436" y="389" on="0"/>
        <pt x="549" y="389" on="1"/>
        <pt x="581" y="389" on="0"/>
        <pt x="617" y="386" on="1"/>
        <pt x="556" y="0" on="1"/>
        <pt x="527" y="0" on="1"/>
        <pt x="524" y="55" on="1"/>
        <pt x="494" y="36" on="0"/>
        <pt x="352" y="-6" on="0"/>
        <pt x="294" y="-6" on="1"/>
        <pt x="294" y="-6" on="0"/>
        <pt x="293" y="-6" on="1"/>
        <pt x="196" y="-6" on="0"/>
        <pt x="154" y="49" on="1"/>
        <pt x="111" y="106" on="0"/>
        <pt x="109" y="189" on="1"/>
        <pt x="108" y="203" on="0"/>
        <pt x="108" y="226" on="1"/>
        <pt x="108" y="320" on="0"/>
        <pt x="138" y="461" on="1"/>
        <pt x="158" y="553" on="0"/>
        <pt x="201" y="636" on="0"/>
        <pt x="244" y="688" on="0"/>
        <pt x="270" y="704" on="1"/>
        <pt x="327" y="740" on="0"/>
        <pt x="408" y="740" on="1"/>
        <pt x="409" y="740" on="0"/>
        <pt x="447" y="740" on="0"/>
        <pt x="595" y="722" on="0"/>
        <pt x="648" y="712" on="1"/>
      </contour>
    </TTGlyph>
    <TTGlyph name="Gbreve" xMin="108" yMin="-6" xMax="649" yMax="914">
      <contour>
        <pt x="345" y="898" on="1"/>
        <pt x="345" y="870" on="0"/>
        <pt x="385" y="825" on="0"/>
        <pt x="419" y="825" on="1"/>
        <pt x="461" y="825" on="0"/>
        <pt x="519" y="873" on="0"/>
        <pt x="526" y="914" on="1"/>
        <pt x="551" y="914" on="1"/>
        <pt x="542" y="858" on="0"/>
        <pt x="468" y="800" on="0"/>
        <pt x="376" y="800" on="0"/>
        <pt x="321" y="857" on="0"/>
        <pt x="321" y="896" on="1"/>
        <pt x="321" y="904" on="0"/>
        <pt x="322" y="914" on="1"/>
        <pt x="347" y="914" on="1"/>
        <pt x="345" y="906" on="0"/>
      </contour>
      <contour>
        <pt x="643" y="679" on="1"/>
        <pt x="490" y="699" on="0"/>
        <pt x="303" y="699" on="0"/>
        <pt x="192" y="549" on="0"/>
        <pt x="164" y="367" on="1"/>
        <pt x="151" y="284" on="0"/>
        <pt x="151" y="156" on="0"/>
        <pt x="166" y="115" on="1"/>
        <pt x="195" y="35" on="0"/>
        <pt x="299" y="35" on="1"/>
        <pt x="334" y="35" on="0"/>
        <pt x="448" y="61" on="0"/>
        <pt x="488" y="74" on="1"/>
        <pt x="527" y="87" on="1"/>
        <pt x="569" y="347" on="1"/>
        <pt x="371" y="347" on="1"/>
        <pt x="375" y="373" on="1"/>
        <pt x="436" y="389" on="0"/>
        <pt x="549" y="389" on="1"/>
        <pt x="581" y="389" on="0"/>
        <pt x="617" y="386" on="1"/>
        <pt x="556" y="0" on="1"/>
        <pt x="527" y="0" on="1"/>
        <pt x="524" y="55" on="1"/>
        <pt x="494" y="36" on="0"/>
        <pt x="352" y="-6" on="0"/>
        <pt x="294" y="-6" on="1"/>
        <pt x="294" y="-6" on="0"/>
        <pt x="293" y="-6" on="1"/>
        <pt x="196" y="-6" on="0"/>
        <pt x="154" y="49" on="1"/>
        <pt x="111" y="106" on="0"/>
        <pt x="109" y="189" on="1"/>
        <pt x="108" y="203" on="0"/>
        <pt x="108" y="226" on="1"/>
        <pt x="108" y="285" on="0"/>
        <pt x="134" y="444" on="0"/>
        <pt x="158" y="544" on="0"/>
        <pt x="202" y="643" on="0"/>
        <pt x="231" y="673" on="1"/>
        <pt x="296" y="740" on="0"/>
        <pt x="408" y="740" on="1"/>
        <pt x="409" y="740" on="0"/>
        <pt x="447" y="740" on="0"/>
        <pt x="595" y="722" on="0"/>
        <pt x="648" y="712" on="1"/>
      </contour>
    </TTGlyph>
    <TTGlyph name="Gcircumflex" xMin="108" yMin="-6" xMax="649" yMax="930">
      <contour>
        <pt x="279" y="800" on="1"/>
        <pt x="427" y="930" on="1"/>
        <pt x="465" y="930" on="1"/>
        <pt x="558" y="800" on="1"/>
        <pt x="524" y="800" on="1"/>
        <pt x="443" y="904" on="1"/>
        <pt x="318" y="800" on="1"/>
      </contour>
      <contour>
        <pt x="643" y="679" on="1"/>
        <pt x="490" y="699" on="0"/>
        <pt x="303" y="699" on="0"/>
        <pt x="192" y="549" on="0"/>
        <pt x="164" y="367" on="1"/>
        <pt x="151" y="284" on="0"/>
        <pt x="151" y="156" on="0"/>
        <pt x="166" y="115" on="1"/>
        <pt x="195" y="35" on="0"/>
        <pt x="299" y="35" on="1"/>
        <pt x="334" y="35" on="0"/>
        <pt x="448" y="61" on="0"/>
        <pt x="488" y="74" on="1"/>
        <pt x="527" y="87" on="1"/>
        <pt x="569" y="347" on="1"/>
        <pt x="371" y="347" on="1"/>
        <pt x="375" y="373" on="1"/>
        <pt x="436" y="389" on="0"/>
        <pt x="549" y="389" on="1"/>
        <pt x="581" y="389" on="0"/>
        <pt x="617" y="386" on="1"/>
        <pt x="556" y="0" on="1"/>
        <pt x="527" y="0" on="1"/>
        <pt x="524" y="55" on="1"/>
        <pt x="494" y="36" on="0"/>
        <pt x="352" y="-6" on="0"/>
        <pt x="294" y="-6" on="1"/>
        <pt x="294" y="-6" on="0"/>
        <pt x="293" y="-6" on="1"/>
        <pt x="196" y="-6" on="0"/>
        <pt x="154" y="49" on="1"/>
        <pt x="111" y="106" on="0"/>
        <pt x="109" y="189" on="1"/>
        <pt x="108" y="203" on="0"/>
        <pt x="108" y="226" on="1"/>
        <pt x="108" y="285" on="0"/>
        <pt x="134" y="444" on="0"/>
        <pt x="158" y="544" on="0"/>
        <pt x="202" y="643" on="0"/>
        <pt x="231" y="673" on="1"/>
        <pt x="296" y="740" on="0"/>
        <pt x="408" y="740" on="1"/>
        <pt x="409" y="740" on="0"/>
        <pt x="447" y="740" on="0"/>
        <pt x="595" y="722" on="0"/>
        <pt x="648" y="712" on="1"/>
      </contour>
    </TTGlyph>
    <TTGlyph name="Gcommaaccent" xMin="108" yMin="-219" xMax="649" yMax="740">
      <contour>
        <pt x="288" y="-204" on="1"/>
        <pt x="307" y="-204" on="0"/>
        <pt x="310" y="-186" on="1"/>
        <pt x="315" y="-150" on="1"/>
        <pt x="309" y="-150" on="1"/>
        <pt x="294" y="-150" on="0"/>
        <pt x="296" y="-135" on="1"/>
        <pt x="304" y="-81" on="1"/>
        <pt x="307" y="-65" on="0"/>
        <pt x="322" y="-65" on="1"/>
        <pt x="344" y="-65" on="1"/>
        <pt x="358" y="-65" on="0"/>
        <pt x="355" y="-81" on="1"/>
        <pt x="340" y="-176" on="1"/>
        <pt x="336" y="-205" on="0"/>
        <pt x="318" y="-213" on="1"/>
        <pt x="305" y="-219" on="0"/>
        <pt x="292" y="-219" on="0"/>
        <pt x="286" y="-218" on="1"/>
        <pt x="288" y="-204" on="1"/>
        <pt x="288" y="-204" on="0"/>
      </contour>
      <contour>
        <pt x="643" y="679" on="1"/>
        <pt x="490" y="699" on="0"/>
        <pt x="303" y="699" on="0"/>
        <pt x="192" y="549" on="0"/>
        <pt x="164" y="367" on="1"/>
        <pt x="151" y="284" on="0"/>
        <pt x="151" y="156" on="0"/>
        <pt x="166" y="115" on="1"/>
        <pt x="195" y="35" on="0"/>
        <pt x="299" y="35" on="1"/>
        <pt x="334" y="35" on="0"/>
        <pt x="448" y="61" on="0"/>
        <pt x="488" y="74" on="1"/>
        <pt x="527" y="87" on="1"/>
        <pt x="569" y="347" on="1"/>
        <pt x="371" y="347" on="1"/>
        <pt x="375" y="373" on="1"/>
        <pt x="436" y="389" on="0"/>
        <pt x="549" y="389" on="1"/>
        <pt x="581" y="389" on="0"/>
        <pt x="617" y="386" on="1"/>
        <pt x="556" y="0" on="1"/>
        <pt x="527" y="0" on="1"/>
        <pt x="524" y="55" on="1"/>
        <pt x="494" y="36" on="0"/>
        <pt x="352" y="-6" on="0"/>
        <pt x="294" y="-6" on="1"/>
        <pt x="294" y="-6" on="0"/>
        <pt x="293" y="-6" on="1"/>
        <pt x="196" y="-6" on="0"/>
        <pt x="154" y="49" on="1"/>
        <pt x="111" y="106" on="0"/>
        <pt x="109" y="189" on="1"/>
        <pt x="108" y="203" on="0"/>
        <pt x="108" y="226" on="1"/>
        <pt x="108" y="285" on="0"/>
        <pt x="134" y="444" on="0"/>
        <pt x="158" y="544" on="0"/>
        <pt x="202" y="643" on="0"/>
        <pt x="231" y="673" on="1"/>
        <pt x="296" y="740" on="0"/>
        <pt x="408" y="740" on="1"/>
        <pt x="409" y="740" on="0"/>
        <pt x="447" y="740" on="0"/>
        <pt x="595" y="722" on="0"/>
        <pt x="648" y="712" on="1"/>
      </contour>
    </TTGlyph>
    <TTGlyph name="Gdotaccent" xMin="108" yMin="-6" xMax="649" yMax="892">
      <contour>
        <pt x="435" y="891" on="1"/>
        <pt x="459" y="891" on="1"/>
        <pt x="475" y="891" on="0"/>
        <pt x="473" y="875" on="1"/>
        <pt x="463" y="816" on="1"/>
        <pt x="461" y="800" on="0"/>
        <pt x="445" y="800" on="1"/>
        <pt x="421" y="800" on="1"/>
        <pt x="414" y="800" on="0"/>
        <pt x="406" y="809" on="0"/>
        <pt x="407" y="816" on="1"/>
        <pt x="416" y="875" on="1"/>
        <pt x="419" y="891" on="0"/>
      </contour>
      <contour>
        <pt x="643" y="679" on="1"/>
        <pt x="490" y="699" on="0"/>
        <pt x="303" y="699" on="0"/>
        <pt x="192" y="549" on="0"/>
        <pt x="164" y="367" on="1"/>
        <pt x="151" y="284" on="0"/>
        <pt x="151" y="156" on="0"/>
        <pt x="166" y="115" on="1"/>
        <pt x="195" y="35" on="0"/>
        <pt x="299" y="35" on="1"/>
        <pt x="334" y="35" on="0"/>
        <pt x="448" y="61" on="0"/>
        <pt x="488" y="74" on="1"/>
        <pt x="527" y="87" on="1"/>
        <pt x="569" y="347" on="1"/>
        <pt x="371" y="347" on="1"/>
        <pt x="375" y="373" on="1"/>
        <pt x="436" y="389" on="0"/>
        <pt x="549" y="389" on="1"/>
        <pt x="581" y="389" on="0"/>
        <pt x="617" y="386" on="1"/>
        <pt x="556" y="0" on="1"/>
        <pt x="527" y="0" on="1"/>
        <pt x="524" y="55" on="1"/>
        <pt x="494" y="36" on="0"/>
        <pt x="352" y="-6" on="0"/>
        <pt x="294" y="-6" on="1"/>
        <pt x="294" y="-6" on="0"/>
        <pt x="293" y="-6" on="1"/>
        <pt x="196" y="-6" on="0"/>
        <pt x="154" y="49" on="1"/>
        <pt x="111" y="106" on="0"/>
        <pt x="109" y="189" on="1"/>
        <pt x="108" y="203" on="0"/>
        <pt x="108" y="226" on="1"/>
        <pt x="108" y="285" on="0"/>
        <pt x="134" y="444" on="0"/>
        <pt x="158" y="544" on="0"/>
        <pt x="202" y="643" on="0"/>
        <pt x="231" y="673" on="1"/>
        <pt x="296" y="740" on="0"/>
        <pt x="408" y="740" on="1"/>
        <pt x="409" y="740" on="0"/>
        <pt x="447" y="740" on="0"/>
        <pt x="595" y="722" on="0"/>
        <pt x="648" y="712" on="1"/>
      </contour>
    </TTGlyph>
    <TTGlyph name="H" xMin="85" yMin="0" xMax="693" yMax="732">
      <contour>
        <pt x="85" y="0" on="1"/>
        <pt x="201" y="732" on="1"/>
        <pt x="242" y="732" on="1"/>
        <pt x="185" y="374" on="1"/>
        <pt x="594" y="374" on="1"/>
        <pt x="651" y="732" on="1"/>
        <pt x="692" y="732" on="1"/>
        <pt x="576" y="0" on="1"/>
        <pt x="535" y="0" on="1"/>
        <pt x="588" y="334" on="1"/>
        <pt x="179" y="334" on="1"/>
        <pt x="126" y="0" on="1"/>
      </contour>
    </TTGlyph>
    <TTGlyph name="Hbar" xMin="85" yMin="0" xMax="715" yMax="732">
      <contour>
        <pt x="85" y="0" on="1"/>
        <pt x="169" y="530" on="1"/>
        <pt x="105" y="530" on="1"/>
        <pt x="109" y="559" on="1"/>
        <pt x="173" y="559" on="1"/>
        <pt x="201" y="732" on="1"/>
        <pt x="242" y="732" on="1"/>
        <pt x="214" y="559" on="1"/>
        <pt x="610" y="559" on="1"/>
        <pt x="638" y="732" on="1"/>
        <pt x="679" y="732" on="1"/>
        <pt x="651" y="559" on="1"/>
        <pt x="714" y="559" on="1"/>
        <pt x="710" y="530" on="1"/>
        <pt x="647" y="530" on="1"/>
        <pt x="563" y="0" on="1"/>
        <pt x="522" y="0" on="1"/>
        <pt x="576" y="334" on="1"/>
        <pt x="179" y="334" on="1"/>
        <pt x="126" y="0" on="1"/>
      </contour>
      <contour>
        <pt x="185" y="375" on="1"/>
        <pt x="582" y="375" on="1"/>
        <pt x="606" y="530" on="1"/>
        <pt x="210" y="530" on="1"/>
      </contour>
    </TTGlyph>
    <TTGlyph name="Hcircumflex" xMin="85" yMin="0" xMax="693" yMax="927">
      <contour>
        <pt x="318" y="797" on="1"/>
        <pt x="466" y="927" on="1"/>
        <pt x="504" y="927" on="1"/>
        <pt x="597" y="797" on="1"/>
        <pt x="563" y="797" on="1"/>
        <pt x="482" y="901" on="1"/>
        <pt x="357" y="797" on="1"/>
      </contour>
      <contour>
        <pt x="85" y="0" on="1"/>
        <pt x="201" y="732" on="1"/>
        <pt x="242" y="732" on="1"/>
        <pt x="185" y="374" on="1"/>
        <pt x="594" y="374" on="1"/>
        <pt x="651" y="732" on="1"/>
        <pt x="692" y="732" on="1"/>
        <pt x="576" y="0" on="1"/>
        <pt x="535" y="0" on="1"/>
        <pt x="588" y="334" on="1"/>
        <pt x="179" y="334" on="1"/>
        <pt x="126" y="0" on="1"/>
      </contour>
    </TTGlyph>
    <TTGlyph name="I" xMin="90" yMin="0" xMax="247" yMax="732">
      <contour>
        <pt x="90" y="0" on="1"/>
        <pt x="206" y="732" on="1"/>
        <pt x="247" y="732" on="1"/>
        <pt x="131" y="0" on="1"/>
      </contour>
    </TTGlyph>
    <TTGlyph name="Iacute" xMin="90" yMin="0" xMax="408" yMax="930">
      <contour>
        <pt x="221" y="797" on="1"/>
        <pt x="358" y="930" on="1"/>
        <pt x="407" y="930" on="1"/>
        <pt x="253" y="797" on="1"/>
      </contour>
      <contour>
        <pt x="90" y="0" on="1"/>
        <pt x="206" y="732" on="1"/>
        <pt x="247" y="732" on="1"/>
        <pt x="131" y="0" on="1"/>
      </contour>
    </TTGlyph>
    <TTGlyph name="Icircumflex" xMin="90" yMin="0" xMax="377" yMax="927">
      <contour>
        <pt x="98" y="797" on="1"/>
        <pt x="245" y="927" on="1"/>
        <pt x="283" y="927" on="1"/>
        <pt x="376" y="797" on="1"/>
        <pt x="343" y="797" on="1"/>
        <pt x="262" y="901" on="1"/>
        <pt x="137" y="797" on="1"/>
      </contour>
      <contour>
        <pt x="90" y="0" on="1"/>
        <pt x="206" y="732" on="1"/>
        <pt x="247" y="732" on="1"/>
        <pt x="131" y="0" on="1"/>
      </contour>
    </TTGlyph>
    <TTGlyph name="Idieresis" xMin="84" yMin="0" xMax="399" yMax="855">
      <contour>
        <pt x="102" y="850" on="0"/>
        <pt x="113" y="854" on="0"/>
        <pt x="131" y="854" on="0"/>
        <pt x="145" y="838" on="0"/>
        <pt x="141" y="818" on="0"/>
        <pt x="137" y="812" on="1"/>
        <pt x="126" y="797" on="0"/>
        <pt x="98" y="797" on="0"/>
        <pt x="85" y="812" on="0"/>
        <pt x="85" y="824" on="0"/>
        <pt x="86" y="832" on="0"/>
        <pt x="93" y="843" on="0"/>
      </contour>
      <contour>
        <pt x="362" y="854" on="0"/>
        <pt x="386" y="854" on="0"/>
        <pt x="398" y="840" on="0"/>
        <pt x="398" y="829" on="0"/>
        <pt x="397" y="820" on="0"/>
        <pt x="391" y="809" on="0"/>
        <pt x="386" y="806" on="1"/>
        <pt x="377" y="797" on="0"/>
        <pt x="353" y="797" on="0"/>
        <pt x="338" y="814" on="0"/>
        <pt x="342" y="838" on="0"/>
      </contour>
      <contour>
        <pt x="90" y="0" on="1"/>
        <pt x="206" y="732" on="1"/>
        <pt x="247" y="732" on="1"/>
        <pt x="131" y="0" on="1"/>
      </contour>
    </TTGlyph>
    <TTGlyph name="Idotaccent" xMin="90" yMin="0" xMax="277" yMax="889">
      <contour>
        <pt x="240" y="888" on="1"/>
        <pt x="264" y="888" on="1"/>
        <pt x="279" y="888" on="0"/>
        <pt x="277" y="872" on="1"/>
        <pt x="267" y="813" on="1"/>
        <pt x="265" y="797" on="0"/>
        <pt x="249" y="797" on="1"/>
        <pt x="225" y="797" on="1"/>
        <pt x="218" y="797" on="0"/>
        <pt x="210" y="806" on="0"/>
        <pt x="211" y="813" on="1"/>
        <pt x="221" y="872" on="1"/>
        <pt x="223" y="888" on="0"/>
      </contour>
      <contour>
        <pt x="90" y="0" on="1"/>
        <pt x="206" y="732" on="1"/>
        <pt x="247" y="732" on="1"/>
        <pt x="131" y="0" on="1"/>
      </contour>
    </TTGlyph>
    <TTGlyph name="Idotaccent.smcp" xMin="60" yMin="0" xMax="222" yMax="719">
      <contour>
        <pt x="60" y="0" on="1"/>
        <pt x="150" y="570" on="1"/>
        <pt x="191" y="570" on="1"/>
        <pt x="101" y="0" on="1"/>
      </contour>
      <contour>
        <pt x="184" y="718" on="1"/>
        <pt x="208" y="718" on="1"/>
        <pt x="224" y="718" on="0"/>
        <pt x="221" y="702" on="1"/>
        <pt x="212" y="642" on="1"/>
        <pt x="209" y="627" on="0"/>
        <pt x="194" y="627" on="1"/>
        <pt x="169" y="627" on="1"/>
        <pt x="162" y="627" on="0"/>
        <pt x="154" y="635" on="0"/>
        <pt x="155" y="642" on="1"/>
        <pt x="165" y="702" on="1"/>
        <pt x="167" y="718" on="0"/>
      </contour>
    </TTGlyph>
    <TTGlyph name="Igrave" xMin="90" yMin="0" xMax="254" yMax="930">
      <contour>
        <pt x="105" y="930" on="1"/>
        <pt x="151" y="930" on="1"/>
        <pt x="253" y="797" on="1"/>
        <pt x="221" y="797" on="1"/>
      </contour>
      <contour>
        <pt x="90" y="0" on="1"/>
        <pt x="206" y="732" on="1"/>
        <pt x="247" y="732" on="1"/>
        <pt x="131" y="0" on="1"/>
      </contour>
    </TTGlyph>
    <TTGlyph name="Imacron" xMin="73" yMin="0" xMax="355" yMax="827">
      <contour>
        <pt x="84" y="795" on="1"/>
        <pt x="89" y="827" on="1"/>
        <pt x="354" y="827" on="1"/>
        <pt x="350" y="795" on="1"/>
      </contour>
      <contour>
        <pt x="74" y="0" on="1"/>
        <pt x="190" y="732" on="1"/>
        <pt x="231" y="732" on="1"/>
        <pt x="115" y="0" on="1"/>
      </contour>
    </TTGlyph>
    <TTGlyph name="Iogonek" xMin="2" yMin="-183" xMax="247" yMax="732">
      <contour>
        <pt x="2" y="-109" on="1"/>
        <pt x="2" y="-41" on="0"/>
        <pt x="102" y="0" on="1"/>
        <pt x="123" y="0" on="1"/>
        <pt x="70" y="-26" on="0"/>
        <pt x="48" y="-62" on="1"/>
        <pt x="36" y="-82" on="0"/>
        <pt x="36" y="-114" on="0"/>
        <pt x="46" y="-126" on="1"/>
        <pt x="64" y="-151" on="0"/>
        <pt x="114" y="-151" on="1"/>
        <pt x="118" y="-151" on="0"/>
        <pt x="121" y="-151" on="1"/>
        <pt x="116" y="-181" on="1"/>
        <pt x="104" y="-182" on="0"/>
        <pt x="94" y="-182" on="1"/>
        <pt x="51" y="-182" on="0"/>
        <pt x="2" y="-137" on="0"/>
      </contour>
      <contour>
        <pt x="90" y="0" on="1"/>
        <pt x="206" y="732" on="1"/>
        <pt x="247" y="732" on="1"/>
        <pt x="131" y="0" on="1"/>
      </contour>
    </TTGlyph>
    <TTGlyph name="Itilde" xMin="90" yMin="0" xMax="434" yMax="895">
      <contour>
        <pt x="321" y="835" on="1"/>
        <pt x="360" y="835" on="0"/>
        <pt x="425" y="882" on="1"/>
        <pt x="433" y="863" on="1"/>
        <pt x="430" y="860" on="0"/>
        <pt x="407" y="842" on="0"/>
        <pt x="399" y="837" on="0"/>
        <pt x="379" y="822" on="0"/>
        <pt x="369" y="817" on="0"/>
        <pt x="351" y="807" on="0"/>
        <pt x="345" y="806" on="1"/>
        <pt x="327" y="801" on="0"/>
        <pt x="295" y="801" on="0"/>
        <pt x="254" y="831" on="0"/>
        <pt x="218" y="860" on="0"/>
        <pt x="193" y="860" on="0"/>
        <pt x="171" y="856" on="0"/>
        <pt x="147" y="845" on="0"/>
        <pt x="133" y="837" on="0"/>
        <pt x="104" y="819" on="0"/>
        <pt x="98" y="815" on="1"/>
        <pt x="90" y="835" on="1"/>
        <pt x="140" y="872" on="0"/>
        <pt x="191" y="895" on="0"/>
        <pt x="228" y="894" on="0"/>
        <pt x="270" y="865" on="0"/>
        <pt x="308" y="835" on="0"/>
      </contour>
      <contour>
        <pt x="103" y="0" on="1"/>
        <pt x="219" y="732" on="1"/>
        <pt x="260" y="732" on="1"/>
        <pt x="144" y="0" on="1"/>
      </contour>
    </TTGlyph>
    <TTGlyph name="J" xMin="38" yMin="-6" xMax="396" yMax="732">
      <contour>
        <pt x="46" y="49" on="1"/>
        <pt x="97" y="34" on="0"/>
        <pt x="139" y="34" on="0"/>
        <pt x="179" y="37" on="0"/>
        <pt x="221" y="61" on="0"/>
        <pt x="257" y="120" on="0"/>
        <pt x="264" y="165" on="1"/>
        <pt x="354" y="732" on="1"/>
        <pt x="395" y="732" on="1"/>
        <pt x="305" y="165" on="1"/>
        <pt x="289" y="55" on="0"/>
        <pt x="230" y="18" on="1"/>
        <pt x="193" y="-6" on="0"/>
        <pt x="137" y="-6" on="1"/>
        <pt x="75" y="-6" on="0"/>
        <pt x="38" y="21" on="1"/>
      </contour>
    </TTGlyph>
    <TTGlyph name="Jcircumflex" xMin="38" yMin="-6" xMax="525" yMax="927">
      <contour>
        <pt x="246" y="797" on="1"/>
        <pt x="394" y="927" on="1"/>
        <pt x="432" y="927" on="1"/>
        <pt x="525" y="797" on="1"/>
        <pt x="491" y="797" on="1"/>
        <pt x="410" y="901" on="1"/>
        <pt x="285" y="797" on="1"/>
      </contour>
      <contour>
        <pt x="46" y="49" on="1"/>
        <pt x="97" y="34" on="0"/>
        <pt x="139" y="34" on="0"/>
        <pt x="179" y="37" on="0"/>
        <pt x="221" y="61" on="0"/>
        <pt x="257" y="120" on="0"/>
        <pt x="264" y="165" on="1"/>
        <pt x="354" y="732" on="1"/>
        <pt x="395" y="732" on="1"/>
        <pt x="305" y="165" on="1"/>
        <pt x="289" y="55" on="0"/>
        <pt x="230" y="18" on="1"/>
        <pt x="193" y="-6" on="0"/>
        <pt x="137" y="-6" on="1"/>
        <pt x="75" y="-6" on="0"/>
        <pt x="38" y="21" on="1"/>
      </contour>
    </TTGlyph>
    <TTGlyph name="K" xMin="80" yMin="0" xMax="652" yMax="732">
      <contour>
        <pt x="80" y="0" on="1"/>
        <pt x="196" y="732" on="1"/>
        <pt x="237" y="732" on="1"/>
        <pt x="182" y="388" on="1"/>
        <pt x="313" y="388" on="1"/>
        <pt x="600" y="732" on="1"/>
        <pt x="652" y="732" on="1"/>
        <pt x="349" y="366" on="1"/>
        <pt x="536" y="0" on="1"/>
        <pt x="487" y="0" on="1"/>
        <pt x="311" y="346" on="1"/>
        <pt x="177" y="346" on="1"/>
        <pt x="122" y="0" on="1"/>
      </contour>
    </TTGlyph>
    <TTGlyph name="Kcommaaccent" xMin="80" yMin="-214" xMax="652" yMax="732">
      <contour>
        <pt x="249" y="-199" on="1"/>
        <pt x="267" y="-199" on="0"/>
        <pt x="270" y="-181" on="1"/>
        <pt x="276" y="-145" on="1"/>
        <pt x="269" y="-145" on="1"/>
        <pt x="254" y="-145" on="0"/>
        <pt x="257" y="-130" on="1"/>
        <pt x="265" y="-76" on="1"/>
        <pt x="267" y="-60" on="0"/>
        <pt x="282" y="-60" on="1"/>
        <pt x="304" y="-60" on="1"/>
        <pt x="318" y="-60" on="0"/>
        <pt x="316" y="-76" on="1"/>
        <pt x="301" y="-171" on="1"/>
        <pt x="297" y="-194" on="0"/>
        <pt x="271" y="-214" on="0"/>
        <pt x="259" y="-214" on="0"/>
        <pt x="258" y="-214" on="1"/>
        <pt x="246" y="-213" on="1"/>
        <pt x="248" y="-199" on="1"/>
        <pt x="249" y="-199" on="0"/>
      </contour>
      <contour>
        <pt x="80" y="0" on="1"/>
        <pt x="196" y="732" on="1"/>
        <pt x="237" y="732" on="1"/>
        <pt x="182" y="388" on="1"/>
        <pt x="313" y="388" on="1"/>
        <pt x="600" y="732" on="1"/>
        <pt x="652" y="732" on="1"/>
        <pt x="349" y="366" on="1"/>
        <pt x="536" y="0" on="1"/>
        <pt x="487" y="0" on="1"/>
        <pt x="311" y="346" on="1"/>
        <pt x="177" y="346" on="1"/>
        <pt x="122" y="0" on="1"/>
      </contour>
    </TTGlyph>
    <TTGlyph name="L" xMin="96" yMin="0" xMax="509" yMax="732">
      <contour>
        <pt x="140" y="126" on="1"/>
        <pt x="138" y="113" on="0"/>
        <pt x="138" y="89" on="0"/>
        <pt x="146" y="62" on="0"/>
        <pt x="160" y="54" on="1"/>
        <pt x="183" y="41" on="0"/>
        <pt x="222" y="41" on="1"/>
        <pt x="508" y="41" on="1"/>
        <pt x="502" y="0" on="1"/>
        <pt x="218" y="0" on="1"/>
        <pt x="96" y="0" on="0"/>
        <pt x="96" y="95" on="1"/>
        <pt x="96" y="109" on="0"/>
        <pt x="99" y="126" on="1"/>
        <pt x="196" y="732" on="1"/>
        <pt x="236" y="732" on="1"/>
      </contour>
    </TTGlyph>
    <TTGlyph name="Lacute" xMin="75" yMin="0" xMax="488" yMax="929">
      <contour>
        <pt x="192" y="795" on="1"/>
        <pt x="329" y="928" on="1"/>
        <pt x="378" y="928" on="1"/>
        <pt x="224" y="795" on="1"/>
      </contour>
      <contour>
        <pt x="201" y="41" on="1"/>
        <pt x="487" y="41" on="1"/>
        <pt x="481" y="0" on="1"/>
        <pt x="197" y="0" on="1"/>
        <pt x="75" y="0" on="0"/>
        <pt x="75" y="95" on="1"/>
        <pt x="75" y="109" on="0"/>
        <pt x="78" y="126" on="1"/>
        <pt x="175" y="732" on="1"/>
        <pt x="215" y="732" on="1"/>
        <pt x="119" y="126" on="1"/>
        <pt x="114" y="105" on="0"/>
        <pt x="124" y="66" on="0"/>
        <pt x="139" y="53" on="0"/>
        <pt x="152" y="46" on="0"/>
        <pt x="163" y="44" on="1"/>
        <pt x="179" y="41" on="0"/>
      </contour>
    </TTGlyph>
    <TTGlyph name="Lcaron" xMin="96" yMin="0" xMax="509" yMax="772">
      <contour>
        <pt x="140" y="126" on="1"/>
        <pt x="138" y="113" on="0"/>
        <pt x="138" y="89" on="0"/>
        <pt x="146" y="62" on="0"/>
        <pt x="160" y="54" on="1"/>
        <pt x="183" y="41" on="0"/>
        <pt x="222" y="41" on="1"/>
        <pt x="508" y="41" on="1"/>
        <pt x="502" y="0" on="1"/>
        <pt x="215" y="0" on="1"/>
        <pt x="117" y="0" on="0"/>
        <pt x="100" y="62" on="1"/>
        <pt x="96" y="76" on="0"/>
        <pt x="96" y="109" on="0"/>
        <pt x="99" y="126" on="1"/>
        <pt x="196" y="732" on="1"/>
        <pt x="236" y="732" on="1"/>
      </contour>
      <contour>
        <pt x="299" y="571" on="1"/>
        <pt x="313" y="705" on="1"/>
        <pt x="323" y="772" on="1"/>
        <pt x="365" y="772" on="1"/>
        <pt x="354" y="705" on="1"/>
        <pt x="325" y="571" on="1"/>
      </contour>
    </TTGlyph>
    <TTGlyph name="Lcommaaccent" xMin="96" yMin="-214" xMax="509" yMax="732">
      <contour>
        <pt x="255" y="-199" on="1"/>
        <pt x="273" y="-199" on="0"/>
        <pt x="276" y="-181" on="1"/>
        <pt x="281" y="-145" on="1"/>
        <pt x="275" y="-145" on="1"/>
        <pt x="260" y="-145" on="0"/>
        <pt x="262" y="-130" on="1"/>
        <pt x="271" y="-76" on="1"/>
        <pt x="273" y="-60" on="0"/>
        <pt x="288" y="-60" on="1"/>
        <pt x="310" y="-60" on="1"/>
        <pt x="324" y="-60" on="0"/>
        <pt x="321" y="-76" on="1"/>
        <pt x="306" y="-171" on="1"/>
        <pt x="302" y="-200" on="0"/>
        <pt x="284" y="-208" on="1"/>
        <pt x="271" y="-214" on="0"/>
        <pt x="259" y="-214" on="0"/>
        <pt x="252" y="-213" on="1"/>
        <pt x="254" y="-199" on="1"/>
        <pt x="254" y="-199" on="0"/>
      </contour>
      <contour>
        <pt x="140" y="126" on="1"/>
        <pt x="138" y="113" on="0"/>
        <pt x="138" y="89" on="0"/>
        <pt x="146" y="62" on="0"/>
        <pt x="160" y="54" on="1"/>
        <pt x="183" y="41" on="0"/>
        <pt x="222" y="41" on="1"/>
        <pt x="508" y="41" on="1"/>
        <pt x="502" y="0" on="1"/>
        <pt x="218" y="0" on="1"/>
        <pt x="96" y="0" on="0"/>
        <pt x="96" y="95" on="1"/>
        <pt x="96" y="109" on="0"/>
        <pt x="99" y="126" on="1"/>
        <pt x="196" y="732" on="1"/>
        <pt x="236" y="732" on="1"/>
      </contour>
    </TTGlyph>
    <TTGlyph name="Lslash" xMin="50" yMin="0" xMax="509" yMax="732">
      <contour>
        <pt x="140" y="126" on="1"/>
        <pt x="138" y="113" on="0"/>
        <pt x="138" y="89" on="0"/>
        <pt x="145" y="62" on="0"/>
        <pt x="160" y="54" on="1"/>
        <pt x="183" y="41" on="0"/>
        <pt x="222" y="41" on="1"/>
        <pt x="508" y="41" on="1"/>
        <pt x="502" y="0" on="1"/>
        <pt x="217" y="0" on="1"/>
        <pt x="96" y="0" on="0"/>
        <pt x="96" y="94" on="1"/>
        <pt x="96" y="109" on="0"/>
        <pt x="99" y="126" on="1"/>
        <pt x="140" y="383" on="1"/>
        <pt x="51" y="346" on="1"/>
        <pt x="56" y="381" on="1"/>
        <pt x="145" y="417" on="1"/>
        <pt x="195" y="732" on="1"/>
        <pt x="236" y="732" on="1"/>
        <pt x="189" y="434" on="1"/>
        <pt x="324" y="489" on="1"/>
        <pt x="318" y="456" on="1"/>
        <pt x="183" y="401" on="1"/>
      </contour>
    </TTGlyph>
    <TTGlyph name="M" xMin="71" yMin="0" xMax="784" yMax="732">
      <contour>
        <pt x="71" y="0" on="1"/>
        <pt x="257" y="732" on="1"/>
        <pt x="312" y="732" on="1"/>
        <pt x="416" y="69" on="1"/>
        <pt x="724" y="732" on="1"/>
        <pt x="784" y="732" on="1"/>
        <pt x="742" y="0" on="1"/>
        <pt x="701" y="0" on="1"/>
        <pt x="739" y="666" on="1"/>
        <pt x="429" y="0" on="1"/>
        <pt x="384" y="0" on="1"/>
        <pt x="283" y="663" on="1"/>
        <pt x="113" y="0" on="1"/>
      </contour>
    </TTGlyph>
    <TTGlyph name="M.salt" xMin="55" yMin="0" xMax="790" yMax="740">
      <contour>
        <pt x="277" y="737" on="1"/>
        <pt x="282" y="738" on="0"/>
        <pt x="308" y="738" on="0"/>
        <pt x="351" y="708" on="0"/>
        <pt x="356" y="673" on="1"/>
        <pt x="413" y="270" on="1"/>
        <pt x="417" y="246" on="0"/>
        <pt x="435" y="246" on="1"/>
        <pt x="454" y="246" on="0"/>
        <pt x="465" y="270" on="1"/>
        <pt x="638" y="681" on="1"/>
        <pt x="652" y="713" on="0"/>
        <pt x="701" y="739" on="0"/>
        <pt x="727" y="739" on="0"/>
        <pt x="732" y="738" on="1"/>
        <pt x="757" y="735" on="0"/>
        <pt x="789" y="692" on="0"/>
        <pt x="789" y="662" on="1"/>
        <pt x="789" y="657" on="0"/>
        <pt x="789" y="652" on="1"/>
        <pt x="735" y="0" on="1"/>
        <pt x="693" y="0" on="1"/>
        <pt x="747" y="657" on="1"/>
        <pt x="748" y="660" on="0"/>
        <pt x="748" y="662" on="1"/>
        <pt x="748" y="681" on="0"/>
        <pt x="727" y="698" on="0"/>
        <pt x="719" y="698" on="1"/>
        <pt x="689" y="698" on="0"/>
        <pt x="676" y="666" on="1"/>
        <pt x="503" y="256" on="1"/>
        <pt x="492" y="231" on="0"/>
        <pt x="451" y="203" on="0"/>
        <pt x="410" y="203" on="0"/>
        <pt x="376" y="234" on="0"/>
        <pt x="372" y="262" on="1"/>
        <pt x="315" y="663" on="1"/>
        <pt x="312" y="681" on="0"/>
        <pt x="291" y="698" on="0"/>
        <pt x="267" y="695" on="0"/>
        <pt x="245" y="673" on="0"/>
        <pt x="241" y="656" on="1"/>
        <pt x="95" y="0" on="1"/>
        <pt x="55" y="0" on="1"/>
        <pt x="198" y="652" on="1"/>
        <pt x="204" y="688" on="0"/>
        <pt x="251" y="734" on="0"/>
      </contour>
    </TTGlyph>
    <TTGlyph name="N" xMin="80" yMin="0" xMax="696" yMax="732">
      <contour>
        <pt x="80" y="0" on="1"/>
        <pt x="196" y="732" on="1"/>
        <pt x="237" y="732" on="1"/>
        <pt x="550" y="75" on="1"/>
        <pt x="654" y="732" on="1"/>
        <pt x="695" y="732" on="1"/>
        <pt x="579" y="0" on="1"/>
        <pt x="540" y="0" on="1"/>
        <pt x="226" y="657" on="1"/>
        <pt x="121" y="0" on="1"/>
      </contour>
    </TTGlyph>
    <TTGlyph name="N.salt" xMin="80" yMin="-8" xMax="718" yMax="738">
      <contour>
        <pt x="263" y="737" on="1"/>
        <pt x="268" y="737" on="0"/>
        <pt x="296" y="737" on="0"/>
        <pt x="342" y="709" on="0"/>
        <pt x="349" y="678" on="1"/>
        <pt x="487" y="68" on="1"/>
        <pt x="493" y="35" on="0"/>
        <pt x="524" y="35" on="1"/>
        <pt x="537" y="35" on="0"/>
        <pt x="569" y="57" on="0"/>
        <pt x="573" y="81" on="1"/>
        <pt x="676" y="732" on="1"/>
        <pt x="717" y="732" on="1"/>
        <pt x="615" y="77" on="1"/>
        <pt x="611" y="48" on="0"/>
        <pt x="594" y="27" on="1"/>
        <pt x="567" y="-7" on="0"/>
        <pt x="521" y="-7" on="1"/>
        <pt x="491" y="-7" on="0"/>
        <pt x="452" y="30" on="0"/>
        <pt x="445" y="58" on="1"/>
        <pt x="308" y="665" on="1"/>
        <pt x="306" y="679" on="0"/>
        <pt x="288" y="695" on="0"/>
        <pt x="266" y="696" on="0"/>
        <pt x="255" y="692" on="1"/>
        <pt x="229" y="682" on="0"/>
        <pt x="224" y="648" on="1"/>
        <pt x="121" y="0" on="1"/>
        <pt x="80" y="0" on="1"/>
        <pt x="182" y="655" on="1"/>
        <pt x="187" y="690" on="0"/>
        <pt x="236" y="734" on="0"/>
      </contour>
    </TTGlyph>
    <TTGlyph name="Nacute" xMin="80" yMin="0" xMax="696" yMax="930">
      <contour>
        <pt x="440" y="797" on="1"/>
        <pt x="577" y="930" on="1"/>
        <pt x="626" y="930" on="1"/>
        <pt x="472" y="797" on="1"/>
      </contour>
      <contour>
        <pt x="80" y="0" on="1"/>
        <pt x="196" y="732" on="1"/>
        <pt x="237" y="732" on="1"/>
        <pt x="550" y="75" on="1"/>
        <pt x="654" y="732" on="1"/>
        <pt x="695" y="732" on="1"/>
        <pt x="579" y="0" on="1"/>
        <pt x="540" y="0" on="1"/>
        <pt x="226" y="657" on="1"/>
        <pt x="121" y="0" on="1"/>
      </contour>
    </TTGlyph>
    <TTGlyph name="Nacute.salt" xMin="80" yMin="-9" xMax="718" yMax="930">
      <contour>
        <pt x="447" y="797" on="1"/>
        <pt x="584" y="930" on="1"/>
        <pt x="634" y="930" on="1"/>
        <pt x="480" y="797" on="1"/>
      </contour>
      <contour>
        <pt x="263" y="737" on="1"/>
        <pt x="268" y="737" on="0"/>
        <pt x="296" y="737" on="0"/>
        <pt x="342" y="709" on="0"/>
        <pt x="349" y="678" on="1"/>
        <pt x="487" y="68" on="1"/>
        <pt x="493" y="35" on="0"/>
        <pt x="524" y="35" on="1"/>
        <pt x="537" y="35" on="0"/>
        <pt x="569" y="57" on="0"/>
        <pt x="573" y="81" on="1"/>
        <pt x="676" y="732" on="1"/>
        <pt x="717" y="732" on="1"/>
        <pt x="615" y="77" on="1"/>
        <pt x="610" y="41" on="0"/>
        <pt x="586" y="18" on="1"/>
        <pt x="557" y="-8" on="0"/>
        <pt x="501" y="-8" on="0"/>
        <pt x="454" y="23" on="0"/>
        <pt x="445" y="58" on="1"/>
        <pt x="308" y="665" on="1"/>
        <pt x="306" y="679" on="0"/>
        <pt x="288" y="695" on="0"/>
        <pt x="266" y="696" on="0"/>
        <pt x="255" y="692" on="1"/>
        <pt x="229" y="682" on="0"/>
        <pt x="224" y="648" on="1"/>
        <pt x="121" y="0" on="1"/>
        <pt x="80" y="0" on="1"/>
        <pt x="182" y="655" on="1"/>
        <pt x="187" y="690" on="0"/>
        <pt x="236" y="734" on="0"/>
      </contour>
    </TTGlyph>
    <TTGlyph name="Ncaron" xMin="80" yMin="0" xMax="696" yMax="927">
      <contour>
        <pt x="337" y="927" on="1"/>
        <pt x="371" y="927" on="1"/>
        <pt x="452" y="823" on="1"/>
        <pt x="577" y="927" on="1"/>
        <pt x="616" y="927" on="1"/>
        <pt x="468" y="797" on="1"/>
        <pt x="430" y="797" on="1"/>
      </contour>
      <contour>
        <pt x="80" y="0" on="1"/>
        <pt x="196" y="732" on="1"/>
        <pt x="237" y="732" on="1"/>
        <pt x="550" y="75" on="1"/>
        <pt x="654" y="732" on="1"/>
        <pt x="695" y="732" on="1"/>
        <pt x="579" y="0" on="1"/>
        <pt x="540" y="0" on="1"/>
        <pt x="226" y="657" on="1"/>
        <pt x="121" y="0" on="1"/>
      </contour>
    </TTGlyph>
    <TTGlyph name="Ncaron.salt" xMin="80" yMin="-9" xMax="718" yMax="927">
      <contour>
        <pt x="366" y="927" on="1"/>
        <pt x="399" y="927" on="1"/>
        <pt x="481" y="823" on="1"/>
        <pt x="606" y="927" on="1"/>
        <pt x="645" y="927" on="1"/>
        <pt x="497" y="797" on="1"/>
        <pt x="459" y="797" on="1"/>
      </contour>
      <contour>
        <pt x="263" y="737" on="1"/>
        <pt x="268" y="737" on="0"/>
        <pt x="296" y="737" on="0"/>
        <pt x="342" y="709" on="0"/>
        <pt x="349" y="678" on="1"/>
        <pt x="487" y="68" on="1"/>
        <pt x="493" y="35" on="0"/>
        <pt x="524" y="35" on="1"/>
        <pt x="537" y="35" on="0"/>
        <pt x="569" y="57" on="0"/>
        <pt x="573" y="81" on="1"/>
        <pt x="676" y="732" on="1"/>
        <pt x="717" y="732" on="1"/>
        <pt x="615" y="77" on="1"/>
        <pt x="610" y="41" on="0"/>
        <pt x="586" y="18" on="1"/>
        <pt x="557" y="-8" on="0"/>
        <pt x="501" y="-8" on="0"/>
        <pt x="454" y="23" on="0"/>
        <pt x="445" y="58" on="1"/>
        <pt x="308" y="665" on="1"/>
        <pt x="306" y="679" on="0"/>
        <pt x="288" y="695" on="0"/>
        <pt x="266" y="696" on="0"/>
        <pt x="255" y="692" on="1"/>
        <pt x="229" y="682" on="0"/>
        <pt x="224" y="648" on="1"/>
        <pt x="121" y="0" on="1"/>
        <pt x="80" y="0" on="1"/>
        <pt x="182" y="655" on="1"/>
        <pt x="187" y="690" on="0"/>
        <pt x="236" y="734" on="0"/>
      </contour>
    </TTGlyph>
    <TTGlyph name="Ncommaaccent" xMin="80" yMin="-214" xMax="696" yMax="732">
      <contour>
        <pt x="292" y="-199" on="1"/>
        <pt x="310" y="-199" on="0"/>
        <pt x="314" y="-181" on="1"/>
        <pt x="319" y="-145" on="1"/>
        <pt x="312" y="-145" on="1"/>
        <pt x="297" y="-145" on="0"/>
        <pt x="300" y="-130" on="1"/>
        <pt x="308" y="-76" on="1"/>
        <pt x="311" y="-60" on="0"/>
        <pt x="326" y="-60" on="1"/>
        <pt x="347" y="-60" on="1"/>
        <pt x="361" y="-60" on="0"/>
        <pt x="359" y="-76" on="1"/>
        <pt x="344" y="-171" on="1"/>
        <pt x="339" y="-200" on="0"/>
        <pt x="321" y="-208" on="1"/>
        <pt x="309" y="-214" on="0"/>
        <pt x="296" y="-214" on="0"/>
        <pt x="290" y="-213" on="1"/>
        <pt x="292" y="-199" on="1"/>
        <pt x="292" y="-199" on="0"/>
      </contour>
      <contour>
        <pt x="80" y="0" on="1"/>
        <pt x="196" y="732" on="1"/>
        <pt x="237" y="732" on="1"/>
        <pt x="550" y="75" on="1"/>
        <pt x="654" y="732" on="1"/>
        <pt x="695" y="732" on="1"/>
        <pt x="579" y="0" on="1"/>
        <pt x="540" y="0" on="1"/>
        <pt x="226" y="657" on="1"/>
        <pt x="121" y="0" on="1"/>
      </contour>
    </TTGlyph>
    <TTGlyph name="Ncommaaccent.salt" xMin="80" yMin="-241" xMax="718" yMax="738">
      <contour>
        <pt x="284" y="-226" on="1"/>
        <pt x="303" y="-226" on="0"/>
        <pt x="306" y="-207" on="1"/>
        <pt x="311" y="-172" on="1"/>
        <pt x="305" y="-172" on="1"/>
        <pt x="290" y="-172" on="0"/>
        <pt x="292" y="-156" on="1"/>
        <pt x="300" y="-103" on="1"/>
        <pt x="303" y="-87" on="0"/>
        <pt x="318" y="-87" on="1"/>
        <pt x="340" y="-87" on="1"/>
        <pt x="354" y="-87" on="0"/>
        <pt x="351" y="-103" on="1"/>
        <pt x="336" y="-197" on="1"/>
        <pt x="332" y="-227" on="0"/>
        <pt x="314" y="-235" on="1"/>
        <pt x="301" y="-240" on="0"/>
        <pt x="288" y="-240" on="0"/>
        <pt x="282" y="-239" on="1"/>
        <pt x="284" y="-226" on="1"/>
        <pt x="284" y="-226" on="0"/>
      </contour>
      <contour>
        <pt x="263" y="737" on="1"/>
        <pt x="268" y="737" on="0"/>
        <pt x="296" y="737" on="0"/>
        <pt x="342" y="709" on="0"/>
        <pt x="349" y="678" on="1"/>
        <pt x="487" y="68" on="1"/>
        <pt x="493" y="35" on="0"/>
        <pt x="524" y="35" on="1"/>
        <pt x="537" y="35" on="0"/>
        <pt x="569" y="57" on="0"/>
        <pt x="573" y="81" on="1"/>
        <pt x="676" y="732" on="1"/>
        <pt x="717" y="732" on="1"/>
        <pt x="615" y="77" on="1"/>
        <pt x="610" y="41" on="0"/>
        <pt x="586" y="18" on="1"/>
        <pt x="557" y="-8" on="0"/>
        <pt x="501" y="-8" on="0"/>
        <pt x="454" y="23" on="0"/>
        <pt x="445" y="58" on="1"/>
        <pt x="308" y="665" on="1"/>
        <pt x="306" y="679" on="0"/>
        <pt x="288" y="695" on="0"/>
        <pt x="266" y="696" on="0"/>
        <pt x="255" y="692" on="1"/>
        <pt x="229" y="682" on="0"/>
        <pt x="224" y="648" on="1"/>
        <pt x="121" y="0" on="1"/>
        <pt x="80" y="0" on="1"/>
        <pt x="182" y="655" on="1"/>
        <pt x="187" y="690" on="0"/>
        <pt x="236" y="734" on="0"/>
      </contour>
    </TTGlyph>
    <TTGlyph name="Ntilde" xMin="80" yMin="0" xMax="696" yMax="890">
      <contour>
        <pt x="520" y="830" on="1"/>
        <pt x="560" y="830" on="0"/>
        <pt x="624" y="877" on="1"/>
        <pt x="633" y="858" on="1"/>
        <pt x="629" y="855" on="0"/>
        <pt x="610" y="840" on="0"/>
        <pt x="602" y="834" on="0"/>
        <pt x="585" y="822" on="0"/>
        <pt x="576" y="816" on="0"/>
        <pt x="560" y="807" on="0"/>
        <pt x="549" y="802" on="0"/>
        <pt x="542" y="800" on="1"/>
        <pt x="505" y="787" on="0"/>
        <pt x="474" y="811" on="1"/>
        <pt x="453" y="826" on="0"/>
        <pt x="417" y="855" on="0"/>
        <pt x="392" y="855" on="0"/>
        <pt x="371" y="851" on="0"/>
        <pt x="347" y="840" on="0"/>
        <pt x="333" y="832" on="0"/>
        <pt x="303" y="814" on="0"/>
        <pt x="297" y="810" on="1"/>
        <pt x="290" y="830" on="1"/>
        <pt x="339" y="867" on="0"/>
        <pt x="390" y="890" on="0"/>
        <pt x="432" y="889" on="0"/>
        <pt x="506" y="830" on="0"/>
      </contour>
      <contour>
        <pt x="80" y="0" on="1"/>
        <pt x="196" y="732" on="1"/>
        <pt x="237" y="732" on="1"/>
        <pt x="550" y="75" on="1"/>
        <pt x="654" y="732" on="1"/>
        <pt x="695" y="732" on="1"/>
        <pt x="579" y="0" on="1"/>
        <pt x="540" y="0" on="1"/>
        <pt x="226" y="657" on="1"/>
        <pt x="121" y="0" on="1"/>
      </contour>
    </TTGlyph>
    <TTGlyph name="Ntilde.salt" xMin="80" yMin="-9" xMax="718" yMax="898">
      <contour>
        <pt x="514" y="838" on="1"/>
        <pt x="553" y="838" on="0"/>
        <pt x="618" y="885" on="1"/>
        <pt x="626" y="866" on="1"/>
        <pt x="623" y="864" on="0"/>
        <pt x="600" y="846" on="0"/>
        <pt x="592" y="840" on="0"/>
        <pt x="572" y="826" on="0"/>
        <pt x="562" y="820" on="0"/>
        <pt x="544" y="811" on="0"/>
        <pt x="538" y="809" on="1"/>
        <pt x="520" y="804" on="0"/>
        <pt x="487" y="804" on="0"/>
        <pt x="446" y="834" on="0"/>
        <pt x="411" y="864" on="0"/>
        <pt x="386" y="864" on="0"/>
        <pt x="364" y="859" on="0"/>
        <pt x="340" y="848" on="0"/>
        <pt x="326" y="841" on="0"/>
        <pt x="297" y="822" on="0"/>
        <pt x="291" y="819" on="1"/>
        <pt x="283" y="838" on="1"/>
        <pt x="333" y="876" on="0"/>
        <pt x="384" y="898" on="0"/>
        <pt x="425" y="897" on="0"/>
        <pt x="499" y="838" on="0"/>
      </contour>
      <contour>
        <pt x="263" y="737" on="1"/>
        <pt x="268" y="737" on="0"/>
        <pt x="296" y="737" on="0"/>
        <pt x="342" y="709" on="0"/>
        <pt x="349" y="678" on="1"/>
        <pt x="487" y="68" on="1"/>
        <pt x="493" y="35" on="0"/>
        <pt x="524" y="35" on="1"/>
        <pt x="537" y="35" on="0"/>
        <pt x="569" y="57" on="0"/>
        <pt x="573" y="81" on="1"/>
        <pt x="676" y="732" on="1"/>
        <pt x="717" y="732" on="1"/>
        <pt x="615" y="77" on="1"/>
        <pt x="610" y="41" on="0"/>
        <pt x="586" y="18" on="1"/>
        <pt x="557" y="-8" on="0"/>
        <pt x="501" y="-8" on="0"/>
        <pt x="454" y="23" on="0"/>
        <pt x="445" y="58" on="1"/>
        <pt x="308" y="665" on="1"/>
        <pt x="306" y="679" on="0"/>
        <pt x="288" y="695" on="0"/>
        <pt x="266" y="696" on="0"/>
        <pt x="255" y="692" on="1"/>
        <pt x="229" y="682" on="0"/>
        <pt x="224" y="648" on="1"/>
        <pt x="121" y="0" on="1"/>
        <pt x="80" y="0" on="1"/>
        <pt x="182" y="655" on="1"/>
        <pt x="187" y="690" on="0"/>
        <pt x="236" y="734" on="0"/>
      </contour>
    </TTGlyph>
    <TTGlyph name="O" xMin="102" yMin="-2" xMax="678" yMax="737">
      <contour>
        <pt x="449" y="737" on="1"/>
        <pt x="488" y="737" on="0"/>
        <pt x="546" y="730" on="0"/>
        <pt x="604" y="711" on="0"/>
        <pt x="622" y="694" on="1"/>
        <pt x="665" y="653" on="0"/>
        <pt x="674" y="580" on="1"/>
        <pt x="677" y="553" on="0"/>
        <pt x="677" y="527" on="1"/>
        <pt x="677" y="393" on="0"/>
        <pt x="642" y="248" on="1"/>
        <pt x="608" y="108" on="0"/>
        <pt x="546" y="55" on="1"/>
        <pt x="503" y="18" on="0"/>
        <pt x="464" y="9" on="1"/>
        <pt x="369" y="-12" on="0"/>
        <pt x="264" y="-1" on="1"/>
        <pt x="192" y="6" on="0"/>
        <pt x="159" y="37" on="1"/>
        <pt x="115" y="76" on="0"/>
        <pt x="106" y="147" on="1"/>
        <pt x="103" y="173" on="0"/>
        <pt x="103" y="198" on="1"/>
        <pt x="103" y="330" on="0"/>
        <pt x="139" y="480" on="1"/>
        <pt x="161" y="568" on="0"/>
        <pt x="199" y="634" on="1"/>
        <pt x="227" y="680" on="0"/>
        <pt x="281" y="710" on="1"/>
        <pt x="330" y="737" on="0"/>
      </contour>
      <contour>
        <pt x="207" y="58" on="1"/>
        <pt x="251" y="37" on="0"/>
        <pt x="391" y="37" on="0"/>
        <pt x="462" y="51" on="0"/>
        <pt x="528" y="90" on="0"/>
        <pt x="550" y="126" on="1"/>
        <pt x="597" y="202" on="0"/>
        <pt x="622" y="361" on="1"/>
        <pt x="637" y="454" on="0"/>
        <pt x="637" y="525" on="1"/>
        <pt x="637" y="584" on="0"/>
        <pt x="617" y="631" on="1"/>
        <pt x="604" y="660" on="0"/>
        <pt x="567" y="679" on="1"/>
        <pt x="542" y="692" on="0"/>
        <pt x="471" y="696" on="0"/>
        <pt x="415" y="696" on="0"/>
        <pt x="380" y="694" on="0"/>
        <pt x="332" y="688" on="0"/>
        <pt x="302" y="675" on="0"/>
        <pt x="264" y="651" on="0"/>
        <pt x="238" y="617" on="0"/>
        <pt x="223" y="592" on="1"/>
        <pt x="199" y="550" on="0"/>
        <pt x="143" y="316" on="0"/>
        <pt x="143" y="89" on="0"/>
      </contour>
    </TTGlyph>
    <TTGlyph name="OE" xMin="98" yMin="-4" xMax="1086" yMax="737">
      <contour>
        <pt x="440" y="737" on="1"/>
        <pt x="473" y="737" on="0"/>
        <pt x="520" y="733" on="0"/>
        <pt x="567" y="724" on="0"/>
        <pt x="602" y="706" on="0"/>
        <pt x="617" y="692" on="1"/>
        <pt x="647" y="665" on="0"/>
        <pt x="660" y="611" on="1"/>
        <pt x="680" y="732" on="0"/>
        <pt x="794" y="732" on="1"/>
        <pt x="799" y="732" on="0"/>
        <pt x="804" y="732" on="1"/>
        <pt x="1085" y="720" on="1"/>
        <pt x="1081" y="691" on="1"/>
        <pt x="797" y="691" on="1"/>
        <pt x="712" y="691" on="0"/>
        <pt x="698" y="602" on="1"/>
        <pt x="663" y="384" on="1"/>
        <pt x="991" y="377" on="1"/>
        <pt x="987" y="348" on="1"/>
        <pt x="656" y="341" on="1"/>
        <pt x="622" y="123" on="1"/>
        <pt x="620" y="110" on="0"/>
        <pt x="620" y="86" on="0"/>
        <pt x="627" y="59" on="0"/>
        <pt x="641" y="51" on="1"/>
        <pt x="664" y="38" on="0"/>
        <pt x="704" y="38" on="1"/>
        <pt x="978" y="38" on="1"/>
        <pt x="973" y="9" on="1"/>
        <pt x="697" y="-3" on="1"/>
        <pt x="692" y="-3" on="0"/>
        <pt x="688" y="-3" on="1"/>
        <pt x="640" y="-3" on="0"/>
        <pt x="581" y="43" on="0"/>
        <pt x="581" y="91" on="1"/>
        <pt x="581" y="100" on="0"/>
        <pt x="582" y="111" on="1"/>
        <pt x="543" y="41" on="0"/>
        <pt x="426" y="-4" on="0"/>
        <pt x="330" y="-4" on="1"/>
        <pt x="199" y="-4" on="0"/>
        <pt x="154" y="37" on="1"/>
        <pt x="111" y="76" on="0"/>
        <pt x="102" y="147" on="1"/>
        <pt x="98" y="173" on="0"/>
        <pt x="98" y="198" on="1"/>
        <pt x="98" y="330" on="0"/>
        <pt x="135" y="480" on="1"/>
        <pt x="156" y="568" on="0"/>
        <pt x="195" y="634" on="1"/>
        <pt x="222" y="680" on="0"/>
        <pt x="276" y="710" on="1"/>
        <pt x="326" y="737" on="0"/>
      </contour>
      <contour>
        <pt x="170" y="449" on="1"/>
        <pt x="138" y="305" on="0"/>
        <pt x="138" y="200" on="1"/>
        <pt x="138" y="89" on="0"/>
        <pt x="203" y="58" on="1"/>
        <pt x="246" y="37" on="0"/>
        <pt x="386" y="37" on="0"/>
        <pt x="457" y="51" on="0"/>
        <pt x="524" y="90" on="0"/>
        <pt x="546" y="126" on="1"/>
        <pt x="593" y="202" on="0"/>
        <pt x="618" y="361" on="1"/>
        <pt x="632" y="454" on="0"/>
        <pt x="632" y="525" on="1"/>
        <pt x="632" y="584" on="0"/>
        <pt x="612" y="631" on="1"/>
        <pt x="600" y="660" on="0"/>
        <pt x="562" y="679" on="1"/>
        <pt x="537" y="692" on="0"/>
        <pt x="467" y="696" on="0"/>
        <pt x="414" y="696" on="0"/>
        <pt x="381" y="695" on="0"/>
        <pt x="338" y="690" on="0"/>
        <pt x="310" y="680" on="0"/>
        <pt x="274" y="663" on="0"/>
        <pt x="249" y="637" on="0"/>
        <pt x="221" y="601" on="0"/>
        <pt x="210" y="576" on="1"/>
        <pt x="184" y="513" on="0"/>
      </contour>
    </TTGlyph>
    <TTGlyph name="Oacute" xMin="102" yMin="-5" xMax="678" yMax="930">
      <contour>
        <pt x="441" y="797" on="1"/>
        <pt x="578" y="930" on="1"/>
        <pt x="627" y="930" on="1"/>
        <pt x="473" y="797" on="1"/>
      </contour>
      <contour>
        <pt x="449" y="737" on="1"/>
        <pt x="488" y="737" on="0"/>
        <pt x="546" y="730" on="0"/>
        <pt x="604" y="711" on="0"/>
        <pt x="622" y="694" on="1"/>
        <pt x="665" y="653" on="0"/>
        <pt x="674" y="580" on="1"/>
        <pt x="677" y="553" on="0"/>
        <pt x="677" y="527" on="1"/>
        <pt x="677" y="380" on="0"/>
        <pt x="638" y="235" on="1"/>
        <pt x="609" y="127" on="0"/>
        <pt x="568" y="79" on="1"/>
        <pt x="524" y="27" on="0"/>
        <pt x="468" y="11" on="1"/>
        <pt x="415" y="-4" on="0"/>
        <pt x="293" y="-4" on="0"/>
        <pt x="235" y="2" on="0"/>
        <pt x="177" y="20" on="0"/>
        <pt x="159" y="37" on="1"/>
        <pt x="115" y="76" on="0"/>
        <pt x="106" y="147" on="1"/>
        <pt x="103" y="173" on="0"/>
        <pt x="103" y="198" on="1"/>
        <pt x="103" y="330" on="0"/>
        <pt x="139" y="480" on="1"/>
        <pt x="161" y="568" on="0"/>
        <pt x="199" y="634" on="1"/>
        <pt x="227" y="680" on="0"/>
        <pt x="281" y="710" on="1"/>
        <pt x="330" y="737" on="0"/>
      </contour>
      <contour>
        <pt x="174" y="449" on="1"/>
        <pt x="143" y="305" on="0"/>
        <pt x="143" y="200" on="1"/>
        <pt x="143" y="89" on="0"/>
        <pt x="207" y="58" on="1"/>
        <pt x="251" y="37" on="0"/>
        <pt x="339" y="37" on="1"/>
        <pt x="422" y="37" on="0"/>
        <pt x="504" y="71" on="0"/>
        <pt x="546" y="117" on="0"/>
        <pt x="565" y="153" on="1"/>
        <pt x="600" y="220" on="0"/>
        <pt x="622" y="361" on="1"/>
        <pt x="636" y="451" on="0"/>
        <pt x="636" y="546" on="0"/>
        <pt x="632" y="601" on="0"/>
        <pt x="606" y="650" on="0"/>
        <pt x="578" y="677" on="0"/>
        <pt x="552" y="685" on="1"/>
        <pt x="512" y="696" on="0"/>
        <pt x="418" y="696" on="0"/>
        <pt x="386" y="695" on="0"/>
        <pt x="342" y="690" on="0"/>
        <pt x="314" y="680" on="0"/>
        <pt x="278" y="663" on="0"/>
        <pt x="254" y="637" on="0"/>
        <pt x="225" y="601" on="0"/>
        <pt x="215" y="576" on="1"/>
        <pt x="188" y="513" on="0"/>
      </contour>
    </TTGlyph>
    <TTGlyph name="Ocircumflex" xMin="102" yMin="-5" xMax="678" yMax="927">
      <contour>
        <pt x="318" y="797" on="1"/>
        <pt x="466" y="927" on="1"/>
        <pt x="504" y="927" on="1"/>
        <pt x="596" y="797" on="1"/>
        <pt x="563" y="797" on="1"/>
        <pt x="482" y="901" on="1"/>
        <pt x="357" y="797" on="1"/>
      </contour>
      <contour>
        <pt x="449" y="737" on="1"/>
        <pt x="488" y="737" on="0"/>
        <pt x="546" y="730" on="0"/>
        <pt x="604" y="711" on="0"/>
        <pt x="622" y="694" on="1"/>
        <pt x="665" y="653" on="0"/>
        <pt x="674" y="580" on="1"/>
        <pt x="677" y="553" on="0"/>
        <pt x="677" y="527" on="1"/>
        <pt x="677" y="380" on="0"/>
        <pt x="638" y="235" on="1"/>
        <pt x="609" y="127" on="0"/>
        <pt x="568" y="79" on="1"/>
        <pt x="524" y="27" on="0"/>
        <pt x="468" y="11" on="1"/>
        <pt x="415" y="-4" on="0"/>
        <pt x="293" y="-4" on="0"/>
        <pt x="235" y="2" on="0"/>
        <pt x="177" y="20" on="0"/>
        <pt x="159" y="37" on="1"/>
        <pt x="115" y="76" on="0"/>
        <pt x="106" y="147" on="1"/>
        <pt x="103" y="173" on="0"/>
        <pt x="103" y="198" on="1"/>
        <pt x="103" y="330" on="0"/>
        <pt x="139" y="480" on="1"/>
        <pt x="161" y="568" on="0"/>
        <pt x="199" y="634" on="1"/>
        <pt x="227" y="680" on="0"/>
        <pt x="281" y="710" on="1"/>
        <pt x="330" y="737" on="0"/>
      </contour>
      <contour>
        <pt x="174" y="449" on="1"/>
        <pt x="143" y="305" on="0"/>
        <pt x="143" y="200" on="1"/>
        <pt x="143" y="89" on="0"/>
        <pt x="207" y="58" on="1"/>
        <pt x="251" y="37" on="0"/>
        <pt x="339" y="37" on="1"/>
        <pt x="422" y="37" on="0"/>
        <pt x="504" y="71" on="0"/>
        <pt x="546" y="117" on="0"/>
        <pt x="565" y="153" on="1"/>
        <pt x="600" y="220" on="0"/>
        <pt x="622" y="361" on="1"/>
        <pt x="636" y="451" on="0"/>
        <pt x="636" y="546" on="0"/>
        <pt x="632" y="601" on="0"/>
        <pt x="606" y="650" on="0"/>
        <pt x="578" y="677" on="0"/>
        <pt x="552" y="685" on="1"/>
        <pt x="512" y="696" on="0"/>
        <pt x="418" y="696" on="0"/>
        <pt x="386" y="695" on="0"/>
        <pt x="342" y="690" on="0"/>
        <pt x="314" y="680" on="0"/>
        <pt x="278" y="663" on="0"/>
        <pt x="254" y="637" on="0"/>
        <pt x="225" y="601" on="0"/>
        <pt x="215" y="576" on="1"/>
        <pt x="188" y="513" on="0"/>
      </contour>
    </TTGlyph>
    <TTGlyph name="Odieresis" xMin="102" yMin="-5" xMax="678" yMax="855">
      <contour>
        <pt x="327" y="854" on="0"/>
        <pt x="351" y="854" on="0"/>
        <pt x="365" y="838" on="0"/>
        <pt x="361" y="814" on="0"/>
        <pt x="342" y="797" on="0"/>
        <pt x="318" y="797" on="0"/>
        <pt x="303" y="814" on="0"/>
        <pt x="307" y="838" on="0"/>
      </contour>
      <contour>
        <pt x="582" y="854" on="0"/>
        <pt x="606" y="854" on="0"/>
        <pt x="620" y="838" on="0"/>
        <pt x="616" y="814" on="0"/>
        <pt x="597" y="797" on="0"/>
        <pt x="573" y="797" on="0"/>
        <pt x="558" y="814" on="0"/>
        <pt x="562" y="838" on="0"/>
      </contour>
      <contour>
        <pt x="449" y="737" on="1"/>
        <pt x="488" y="737" on="0"/>
        <pt x="546" y="730" on="0"/>
        <pt x="604" y="711" on="0"/>
        <pt x="622" y="694" on="1"/>
        <pt x="665" y="653" on="0"/>
        <pt x="674" y="580" on="1"/>
        <pt x="677" y="553" on="0"/>
        <pt x="677" y="527" on="1"/>
        <pt x="677" y="380" on="0"/>
        <pt x="638" y="235" on="1"/>
        <pt x="609" y="127" on="0"/>
        <pt x="568" y="79" on="1"/>
        <pt x="524" y="27" on="0"/>
        <pt x="468" y="11" on="1"/>
        <pt x="415" y="-4" on="0"/>
        <pt x="293" y="-4" on="0"/>
        <pt x="235" y="2" on="0"/>
        <pt x="177" y="20" on="0"/>
        <pt x="159" y="37" on="1"/>
        <pt x="115" y="76" on="0"/>
        <pt x="106" y="147" on="1"/>
        <pt x="103" y="173" on="0"/>
        <pt x="103" y="198" on="1"/>
        <pt x="103" y="330" on="0"/>
        <pt x="139" y="480" on="1"/>
        <pt x="161" y="568" on="0"/>
        <pt x="199" y="634" on="1"/>
        <pt x="227" y="680" on="0"/>
        <pt x="281" y="710" on="1"/>
        <pt x="330" y="737" on="0"/>
      </contour>
      <contour>
        <pt x="174" y="449" on="1"/>
        <pt x="143" y="305" on="0"/>
        <pt x="143" y="200" on="1"/>
        <pt x="143" y="89" on="0"/>
        <pt x="207" y="58" on="1"/>
        <pt x="251" y="37" on="0"/>
        <pt x="339" y="37" on="1"/>
        <pt x="422" y="37" on="0"/>
        <pt x="504" y="71" on="0"/>
        <pt x="546" y="117" on="0"/>
        <pt x="565" y="153" on="1"/>
        <pt x="600" y="220" on="0"/>
        <pt x="622" y="361" on="1"/>
        <pt x="636" y="451" on="0"/>
        <pt x="636" y="546" on="0"/>
        <pt x="632" y="601" on="0"/>
        <pt x="606" y="650" on="0"/>
        <pt x="578" y="677" on="0"/>
        <pt x="552" y="685" on="1"/>
        <pt x="512" y="696" on="0"/>
        <pt x="418" y="696" on="0"/>
        <pt x="386" y="695" on="0"/>
        <pt x="342" y="690" on="0"/>
        <pt x="314" y="680" on="0"/>
        <pt x="278" y="663" on="0"/>
        <pt x="254" y="637" on="0"/>
        <pt x="225" y="601" on="0"/>
        <pt x="215" y="576" on="1"/>
        <pt x="188" y="513" on="0"/>
      </contour>
    </TTGlyph>
    <TTGlyph name="Ograve" xMin="102" yMin="-5" xMax="678" yMax="930">
      <contour>
        <pt x="325" y="930" on="1"/>
        <pt x="371" y="930" on="1"/>
        <pt x="473" y="797" on="1"/>
        <pt x="441" y="797" on="1"/>
      </contour>
      <contour>
        <pt x="449" y="737" on="1"/>
        <pt x="488" y="737" on="0"/>
        <pt x="546" y="730" on="0"/>
        <pt x="604" y="711" on="0"/>
        <pt x="622" y="694" on="1"/>
        <pt x="665" y="653" on="0"/>
        <pt x="674" y="580" on="1"/>
        <pt x="677" y="553" on="0"/>
        <pt x="677" y="527" on="1"/>
        <pt x="677" y="380" on="0"/>
        <pt x="638" y="235" on="1"/>
        <pt x="609" y="127" on="0"/>
        <pt x="568" y="79" on="1"/>
        <pt x="524" y="27" on="0"/>
        <pt x="468" y="11" on="1"/>
        <pt x="415" y="-4" on="0"/>
        <pt x="293" y="-4" on="0"/>
        <pt x="235" y="2" on="0"/>
        <pt x="177" y="20" on="0"/>
        <pt x="159" y="37" on="1"/>
        <pt x="115" y="76" on="0"/>
        <pt x="106" y="147" on="1"/>
        <pt x="103" y="173" on="0"/>
        <pt x="103" y="198" on="1"/>
        <pt x="103" y="330" on="0"/>
        <pt x="139" y="480" on="1"/>
        <pt x="161" y="568" on="0"/>
        <pt x="199" y="634" on="1"/>
        <pt x="227" y="680" on="0"/>
        <pt x="281" y="710" on="1"/>
        <pt x="330" y="737" on="0"/>
      </contour>
      <contour>
        <pt x="174" y="449" on="1"/>
        <pt x="143" y="305" on="0"/>
        <pt x="143" y="200" on="1"/>
        <pt x="143" y="89" on="0"/>
        <pt x="207" y="58" on="1"/>
        <pt x="251" y="37" on="0"/>
        <pt x="339" y="37" on="1"/>
        <pt x="422" y="37" on="0"/>
        <pt x="504" y="71" on="0"/>
        <pt x="546" y="117" on="0"/>
        <pt x="565" y="153" on="1"/>
        <pt x="600" y="220" on="0"/>
        <pt x="622" y="361" on="1"/>
        <pt x="636" y="451" on="0"/>
        <pt x="636" y="546" on="0"/>
        <pt x="632" y="601" on="0"/>
        <pt x="606" y="650" on="0"/>
        <pt x="578" y="677" on="0"/>
        <pt x="552" y="685" on="1"/>
        <pt x="512" y="696" on="0"/>
        <pt x="418" y="696" on="0"/>
        <pt x="386" y="695" on="0"/>
        <pt x="342" y="690" on="0"/>
        <pt x="314" y="680" on="0"/>
        <pt x="278" y="663" on="0"/>
        <pt x="254" y="637" on="0"/>
        <pt x="225" y="601" on="0"/>
        <pt x="215" y="576" on="1"/>
        <pt x="188" y="513" on="0"/>
      </contour>
    </TTGlyph>
    <TTGlyph name="Ohungarumlaut" xMin="102" yMin="-5" xMax="697" yMax="930">
      <contour>
        <pt x="372" y="797" on="1"/>
        <pt x="509" y="930" on="1"/>
        <pt x="559" y="930" on="1"/>
        <pt x="405" y="797" on="1"/>
      </contour>
      <contour>
        <pt x="509" y="797" on="1"/>
        <pt x="647" y="930" on="1"/>
        <pt x="696" y="930" on="1"/>
        <pt x="542" y="797" on="1"/>
      </contour>
      <contour>
        <pt x="449" y="737" on="1"/>
        <pt x="488" y="737" on="0"/>
        <pt x="546" y="730" on="0"/>
        <pt x="604" y="711" on="0"/>
        <pt x="622" y="694" on="1"/>
        <pt x="665" y="653" on="0"/>
        <pt x="674" y="580" on="1"/>
        <pt x="677" y="553" on="0"/>
        <pt x="677" y="527" on="1"/>
        <pt x="677" y="380" on="0"/>
        <pt x="638" y="235" on="1"/>
        <pt x="609" y="127" on="0"/>
        <pt x="568" y="79" on="1"/>
        <pt x="524" y="27" on="0"/>
        <pt x="468" y="11" on="1"/>
        <pt x="415" y="-4" on="0"/>
        <pt x="293" y="-4" on="0"/>
        <pt x="235" y="2" on="0"/>
        <pt x="177" y="20" on="0"/>
        <pt x="159" y="37" on="1"/>
        <pt x="115" y="76" on="0"/>
        <pt x="106" y="147" on="1"/>
        <pt x="103" y="173" on="0"/>
        <pt x="103" y="198" on="1"/>
        <pt x="103" y="330" on="0"/>
        <pt x="139" y="480" on="1"/>
        <pt x="161" y="568" on="0"/>
        <pt x="199" y="634" on="1"/>
        <pt x="227" y="680" on="0"/>
        <pt x="281" y="710" on="1"/>
        <pt x="330" y="737" on="0"/>
      </contour>
      <contour>
        <pt x="174" y="449" on="1"/>
        <pt x="143" y="305" on="0"/>
        <pt x="143" y="200" on="1"/>
        <pt x="143" y="89" on="0"/>
        <pt x="207" y="58" on="1"/>
        <pt x="251" y="37" on="0"/>
        <pt x="339" y="37" on="1"/>
        <pt x="422" y="37" on="0"/>
        <pt x="504" y="71" on="0"/>
        <pt x="546" y="117" on="0"/>
        <pt x="565" y="153" on="1"/>
        <pt x="600" y="220" on="0"/>
        <pt x="622" y="361" on="1"/>
        <pt x="636" y="451" on="0"/>
        <pt x="636" y="546" on="0"/>
        <pt x="632" y="601" on="0"/>
        <pt x="606" y="650" on="0"/>
        <pt x="578" y="677" on="0"/>
        <pt x="552" y="685" on="1"/>
        <pt x="512" y="696" on="0"/>
        <pt x="418" y="696" on="0"/>
        <pt x="386" y="695" on="0"/>
        <pt x="342" y="690" on="0"/>
        <pt x="314" y="680" on="0"/>
        <pt x="278" y="663" on="0"/>
        <pt x="254" y="637" on="0"/>
        <pt x="225" y="601" on="0"/>
        <pt x="215" y="576" on="1"/>
        <pt x="188" y="513" on="0"/>
      </contour>
    </TTGlyph>
    <TTGlyph name="Omacron" xMin="102" yMin="-5" xMax="678" yMax="827">
      <contour>
        <pt x="327" y="795" on="1"/>
        <pt x="332" y="827" on="1"/>
        <pt x="597" y="827" on="1"/>
        <pt x="592" y="795" on="1"/>
      </contour>
      <contour>
        <pt x="449" y="737" on="1"/>
        <pt x="488" y="737" on="0"/>
        <pt x="546" y="730" on="0"/>
        <pt x="604" y="711" on="0"/>
        <pt x="622" y="694" on="1"/>
        <pt x="665" y="653" on="0"/>
        <pt x="674" y="580" on="1"/>
        <pt x="677" y="553" on="0"/>
        <pt x="677" y="527" on="1"/>
        <pt x="677" y="380" on="0"/>
        <pt x="638" y="235" on="1"/>
        <pt x="609" y="127" on="0"/>
        <pt x="568" y="79" on="1"/>
        <pt x="524" y="27" on="0"/>
        <pt x="468" y="11" on="1"/>
        <pt x="415" y="-4" on="0"/>
        <pt x="293" y="-4" on="0"/>
        <pt x="235" y="2" on="0"/>
        <pt x="177" y="20" on="0"/>
        <pt x="159" y="37" on="1"/>
        <pt x="115" y="76" on="0"/>
        <pt x="106" y="147" on="1"/>
        <pt x="103" y="173" on="0"/>
        <pt x="103" y="198" on="1"/>
        <pt x="103" y="330" on="0"/>
        <pt x="139" y="480" on="1"/>
        <pt x="161" y="568" on="0"/>
        <pt x="199" y="634" on="1"/>
        <pt x="227" y="680" on="0"/>
        <pt x="281" y="710" on="1"/>
        <pt x="330" y="737" on="0"/>
      </contour>
      <contour>
        <pt x="174" y="449" on="1"/>
        <pt x="143" y="305" on="0"/>
        <pt x="143" y="200" on="1"/>
        <pt x="143" y="89" on="0"/>
        <pt x="207" y="58" on="1"/>
        <pt x="251" y="37" on="0"/>
        <pt x="339" y="37" on="1"/>
        <pt x="422" y="37" on="0"/>
        <pt x="504" y="71" on="0"/>
        <pt x="546" y="117" on="0"/>
        <pt x="565" y="153" on="1"/>
        <pt x="600" y="220" on="0"/>
        <pt x="622" y="361" on="1"/>
        <pt x="636" y="451" on="0"/>
        <pt x="636" y="546" on="0"/>
        <pt x="632" y="601" on="0"/>
        <pt x="606" y="650" on="0"/>
        <pt x="578" y="677" on="0"/>
        <pt x="552" y="685" on="1"/>
        <pt x="512" y="696" on="0"/>
        <pt x="418" y="696" on="0"/>
        <pt x="386" y="695" on="0"/>
        <pt x="342" y="690" on="0"/>
        <pt x="314" y="680" on="0"/>
        <pt x="278" y="663" on="0"/>
        <pt x="254" y="637" on="0"/>
        <pt x="225" y="601" on="0"/>
        <pt x="215" y="576" on="1"/>
        <pt x="188" y="513" on="0"/>
      </contour>
    </TTGlyph>
    <TTGlyph name="Omega" xMin="71" yMin="0" xMax="758" yMax="740">
      <contour>
        <pt x="248" y="42" on="1"/>
        <pt x="118" y="149" on="0"/>
        <pt x="118" y="299" on="1"/>
        <pt x="118" y="394" on="0"/>
        <pt x="150" y="491" on="1"/>
        <pt x="164" y="535" on="0"/>
        <pt x="221" y="630" on="0"/>
        <pt x="298" y="696" on="0"/>
        <pt x="420" y="739" on="0"/>
        <pt x="554" y="739" on="0"/>
        <pt x="645" y="712" on="0"/>
        <pt x="675" y="686" on="1"/>
        <pt x="736" y="634" on="0"/>
        <pt x="751" y="554" on="1"/>
        <pt x="758" y="514" on="0"/>
        <pt x="758" y="429" on="0"/>
        <pt x="750" y="380" on="1"/>
        <pt x="714" y="156" on="0"/>
        <pt x="532" y="41" on="1"/>
        <pt x="699" y="31" on="1"/>
        <pt x="694" y="0" on="1"/>
        <pt x="466" y="0" on="1"/>
        <pt x="473" y="42" on="1"/>
        <pt x="584" y="109" on="0"/>
        <pt x="638" y="193" on="1"/>
        <pt x="717" y="316" on="0"/>
        <pt x="717" y="476" on="1"/>
        <pt x="717" y="557" on="0"/>
        <pt x="691" y="603" on="1"/>
        <pt x="637" y="698" on="0"/>
        <pt x="490" y="698" on="1"/>
        <pt x="216" y="698" on="0"/>
        <pt x="166" y="382" on="1"/>
        <pt x="159" y="339" on="0"/>
        <pt x="159" y="244" on="0"/>
        <pt x="175" y="200" on="1"/>
        <pt x="202" y="128" on="0"/>
        <pt x="298" y="42" on="1"/>
        <pt x="291" y="0" on="1"/>
        <pt x="71" y="0" on="1"/>
        <pt x="76" y="31" on="1"/>
      </contour>
    </TTGlyph>
    <TTGlyph name="Oslash" xMin="79" yMin="-4" xMax="699" yMax="737">
      <contour>
        <pt x="132" y="65" on="1"/>
        <pt x="102" y="112" on="0"/>
        <pt x="102" y="274" on="0"/>
        <pt x="126" y="427" on="0"/>
        <pt x="150" y="528" on="0"/>
        <pt x="181" y="604" on="0"/>
        <pt x="213" y="660" on="0"/>
        <pt x="257" y="697" on="0"/>
        <pt x="298" y="721" on="0"/>
        <pt x="327" y="727" on="1"/>
        <pt x="375" y="737" on="0"/>
        <pt x="511" y="737" on="0"/>
        <pt x="602" y="716" on="0"/>
        <pt x="630" y="686" on="1"/>
        <pt x="666" y="732" on="1"/>
        <pt x="699" y="732" on="1"/>
        <pt x="646" y="666" on="1"/>
        <pt x="677" y="616" on="0"/>
        <pt x="677" y="448" on="0"/>
        <pt x="653" y="296" on="0"/>
        <pt x="629" y="200" on="0"/>
        <pt x="599" y="127" on="0"/>
        <pt x="567" y="73" on="0"/>
        <pt x="524" y="37" on="0"/>
        <pt x="481" y="13" on="0"/>
        <pt x="452" y="7" on="1"/>
        <pt x="403" y="-4" on="0"/>
        <pt x="264" y="-4" on="0"/>
        <pt x="176" y="16" on="0"/>
        <pt x="148" y="45" on="1"/>
        <pt x="112" y="0" on="1"/>
        <pt x="80" y="0" on="1"/>
      </contour>
      <contour>
        <pt x="182" y="489" on="0"/>
        <pt x="165" y="409" on="0"/>
        <pt x="143" y="272" on="0"/>
        <pt x="143" y="138" on="0"/>
        <pt x="162" y="102" on="1"/>
        <pt x="602" y="653" on="1"/>
        <pt x="571" y="690" on="0"/>
        <pt x="493" y="695" on="1"/>
        <pt x="473" y="696" on="0"/>
        <pt x="417" y="696" on="0"/>
        <pt x="385" y="695" on="0"/>
        <pt x="341" y="690" on="0"/>
        <pt x="313" y="680" on="0"/>
        <pt x="277" y="663" on="0"/>
        <pt x="253" y="637" on="0"/>
        <pt x="224" y="601" on="0"/>
        <pt x="203" y="552" on="0"/>
      </contour>
      <contour>
        <pt x="286" y="39" on="1"/>
        <pt x="309" y="37" on="0"/>
        <pt x="392" y="37" on="0"/>
        <pt x="462" y="51" on="0"/>
        <pt x="528" y="90" on="0"/>
        <pt x="550" y="126" on="1"/>
        <pt x="596" y="202" on="0"/>
        <pt x="621" y="361" on="1"/>
        <pt x="636" y="453" on="0"/>
        <pt x="636" y="591" on="0"/>
        <pt x="617" y="630" on="1"/>
        <pt x="176" y="80" on="1"/>
        <pt x="207" y="45" on="0"/>
      </contour>
    </TTGlyph>
    <TTGlyph name="Otilde" xMin="102" yMin="-5" xMax="678" yMax="892">
      <contour>
        <pt x="524" y="832" on="1"/>
        <pt x="563" y="832" on="0"/>
        <pt x="628" y="878" on="1"/>
        <pt x="636" y="859" on="1"/>
        <pt x="633" y="857" on="0"/>
        <pt x="610" y="839" on="0"/>
        <pt x="603" y="834" on="0"/>
        <pt x="582" y="819" on="0"/>
        <pt x="572" y="814" on="0"/>
        <pt x="554" y="804" on="0"/>
        <pt x="548" y="802" on="1"/>
        <pt x="530" y="797" on="0"/>
        <pt x="498" y="797" on="0"/>
        <pt x="457" y="828" on="0"/>
        <pt x="421" y="857" on="0"/>
        <pt x="396" y="857" on="0"/>
        <pt x="374" y="853" on="0"/>
        <pt x="350" y="842" on="0"/>
        <pt x="337" y="834" on="0"/>
        <pt x="307" y="816" on="0"/>
        <pt x="301" y="812" on="1"/>
        <pt x="293" y="831" on="1"/>
        <pt x="343" y="869" on="0"/>
        <pt x="394" y="891" on="0"/>
        <pt x="435" y="891" on="0"/>
        <pt x="509" y="832" on="0"/>
      </contour>
      <contour>
        <pt x="449" y="737" on="1"/>
        <pt x="488" y="737" on="0"/>
        <pt x="546" y="730" on="0"/>
        <pt x="604" y="711" on="0"/>
        <pt x="622" y="694" on="1"/>
        <pt x="665" y="653" on="0"/>
        <pt x="674" y="580" on="1"/>
        <pt x="677" y="553" on="0"/>
        <pt x="677" y="527" on="1"/>
        <pt x="677" y="380" on="0"/>
        <pt x="638" y="235" on="1"/>
        <pt x="609" y="127" on="0"/>
        <pt x="568" y="79" on="1"/>
        <pt x="524" y="27" on="0"/>
        <pt x="468" y="11" on="1"/>
        <pt x="415" y="-4" on="0"/>
        <pt x="293" y="-4" on="0"/>
        <pt x="235" y="2" on="0"/>
        <pt x="177" y="20" on="0"/>
        <pt x="159" y="37" on="1"/>
        <pt x="115" y="76" on="0"/>
        <pt x="106" y="147" on="1"/>
        <pt x="103" y="173" on="0"/>
        <pt x="103" y="198" on="1"/>
        <pt x="103" y="330" on="0"/>
        <pt x="139" y="480" on="1"/>
        <pt x="161" y="568" on="0"/>
        <pt x="199" y="634" on="1"/>
        <pt x="227" y="680" on="0"/>
        <pt x="281" y="710" on="1"/>
        <pt x="330" y="737" on="0"/>
      </contour>
      <contour>
        <pt x="174" y="449" on="1"/>
        <pt x="143" y="305" on="0"/>
        <pt x="143" y="200" on="1"/>
        <pt x="143" y="89" on="0"/>
        <pt x="207" y="58" on="1"/>
        <pt x="251" y="37" on="0"/>
        <pt x="339" y="37" on="1"/>
        <pt x="422" y="37" on="0"/>
        <pt x="504" y="71" on="0"/>
        <pt x="546" y="117" on="0"/>
        <pt x="565" y="153" on="1"/>
        <pt x="600" y="220" on="0"/>
        <pt x="622" y="361" on="1"/>
        <pt x="636" y="451" on="0"/>
        <pt x="636" y="546" on="0"/>
        <pt x="632" y="601" on="0"/>
        <pt x="606" y="650" on="0"/>
        <pt x="578" y="677" on="0"/>
        <pt x="552" y="685" on="1"/>
        <pt x="512" y="696" on="0"/>
        <pt x="418" y="696" on="0"/>
        <pt x="386" y="695" on="0"/>
        <pt x="342" y="690" on="0"/>
        <pt x="314" y="680" on="0"/>
        <pt x="278" y="663" on="0"/>
        <pt x="254" y="637" on="0"/>
        <pt x="225" y="601" on="0"/>
        <pt x="215" y="576" on="1"/>
        <pt x="188" y="513" on="0"/>
      </contour>
    </TTGlyph>
    <TTGlyph name="P" xMin="75" yMin="0" xMax="626" yMax="732">
      <contour>
        <pt x="477" y="732" on="1"/>
        <pt x="625" y="732" on="0"/>
        <pt x="625" y="584" on="1"/>
        <pt x="625" y="517" on="0"/>
        <pt x="591" y="415" on="0"/>
        <pt x="566" y="371" on="0"/>
        <pt x="529" y="340" on="0"/>
        <pt x="501" y="324" on="0"/>
        <pt x="479" y="320" on="1"/>
        <pt x="451" y="314" on="0"/>
        <pt x="379" y="314" on="0"/>
        <pt x="172" y="325" on="0"/>
        <pt x="168" y="327" on="1"/>
        <pt x="116" y="0" on="1"/>
        <pt x="75" y="0" on="1"/>
        <pt x="191" y="732" on="1"/>
      </contour>
      <contour>
        <pt x="417" y="356" on="1"/>
        <pt x="517" y="356" on="0"/>
        <pt x="554" y="439" on="1"/>
        <pt x="571" y="475" on="0"/>
        <pt x="583" y="552" on="0"/>
        <pt x="583" y="578" on="0"/>
        <pt x="581" y="607" on="0"/>
        <pt x="575" y="642" on="0"/>
        <pt x="556" y="665" on="0"/>
        <pt x="538" y="680" on="0"/>
        <pt x="524" y="684" on="1"/>
        <pt x="500" y="690" on="0"/>
        <pt x="470" y="690" on="1"/>
        <pt x="225" y="690" on="1"/>
        <pt x="172" y="356" on="1"/>
      </contour>
    </TTGlyph>
    <TTGlyph name="Q" xMin="106" yMin="-135" xMax="682" yMax="737">
      <contour>
        <pt x="453" y="737" on="1"/>
        <pt x="492" y="737" on="0"/>
        <pt x="550" y="730" on="0"/>
        <pt x="608" y="711" on="0"/>
        <pt x="626" y="694" on="1"/>
        <pt x="669" y="653" on="0"/>
        <pt x="678" y="580" on="1"/>
        <pt x="681" y="553" on="0"/>
        <pt x="681" y="527" on="1"/>
        <pt x="681" y="393" on="0"/>
        <pt x="646" y="248" on="1"/>
        <pt x="612" y="108" on="0"/>
        <pt x="550" y="55" on="1"/>
        <pt x="507" y="18" on="0"/>
        <pt x="468" y="9" on="1"/>
        <pt x="373" y="-12" on="0"/>
        <pt x="268" y="-1" on="1"/>
        <pt x="196" y="6" on="0"/>
        <pt x="163" y="37" on="1"/>
        <pt x="119" y="76" on="0"/>
        <pt x="110" y="147" on="1"/>
        <pt x="107" y="173" on="0"/>
        <pt x="107" y="198" on="1"/>
        <pt x="107" y="330" on="0"/>
        <pt x="143" y="480" on="1"/>
        <pt x="165" y="568" on="0"/>
        <pt x="203" y="634" on="1"/>
        <pt x="231" y="680" on="0"/>
        <pt x="285" y="710" on="1"/>
        <pt x="334" y="737" on="0"/>
      </contour>
      <contour>
        <pt x="178" y="449" on="1"/>
        <pt x="147" y="305" on="0"/>
        <pt x="147" y="200" on="1"/>
        <pt x="147" y="89" on="0"/>
        <pt x="211" y="58" on="1"/>
        <pt x="255" y="37" on="0"/>
        <pt x="395" y="37" on="0"/>
        <pt x="466" y="51" on="0"/>
        <pt x="532" y="90" on="0"/>
        <pt x="554" y="126" on="1"/>
        <pt x="601" y="202" on="0"/>
        <pt x="626" y="361" on="1"/>
        <pt x="641" y="454" on="0"/>
        <pt x="641" y="525" on="1"/>
        <pt x="641" y="584" on="0"/>
        <pt x="621" y="631" on="1"/>
        <pt x="608" y="660" on="0"/>
        <pt x="571" y="679" on="1"/>
        <pt x="546" y="692" on="0"/>
        <pt x="475" y="696" on="0"/>
        <pt x="422" y="696" on="0"/>
        <pt x="390" y="695" on="0"/>
        <pt x="346" y="690" on="0"/>
        <pt x="318" y="680" on="0"/>
        <pt x="282" y="663" on="0"/>
        <pt x="258" y="637" on="0"/>
        <pt x="229" y="601" on="0"/>
        <pt x="219" y="576" on="1"/>
        <pt x="192" y="513" on="0"/>
      </contour>
      <contour>
        <pt x="343" y="-33" on="1"/>
        <pt x="369" y="-93" on="0"/>
        <pt x="441" y="-93" on="1"/>
        <pt x="472" y="-93" on="0"/>
        <pt x="508" y="-81" on="1"/>
        <pt x="501" y="-124" on="1"/>
        <pt x="472" y="-135" on="0"/>
        <pt x="409" y="-135" on="0"/>
        <pt x="354" y="-115" on="0"/>
        <pt x="317" y="-67" on="0"/>
        <pt x="316" y="-33" on="1"/>
      </contour>
    </TTGlyph>
    <TTGlyph name="R" xMin="75" yMin="0" xMax="625" yMax="732">
      <contour>
        <pt x="479" y="732" on="1"/>
        <pt x="624" y="732" on="0"/>
        <pt x="624" y="579" on="1"/>
        <pt x="624" y="497" on="0"/>
        <pt x="596" y="429" on="1"/>
        <pt x="580" y="389" on="0"/>
        <pt x="545" y="348" on="0"/>
        <pt x="496" y="323" on="0"/>
        <pt x="462" y="317" on="0"/>
        <pt x="440" y="316" on="1"/>
        <pt x="548" y="0" on="1"/>
        <pt x="503" y="0" on="1"/>
        <pt x="397" y="313" on="1"/>
        <pt x="367" y="314" on="0"/>
        <pt x="169" y="323" on="0"/>
        <pt x="168" y="324" on="1"/>
        <pt x="116" y="0" on="1"/>
        <pt x="75" y="0" on="1"/>
        <pt x="191" y="732" on="1"/>
      </contour>
      <contour>
        <pt x="578" y="525" on="1"/>
        <pt x="582" y="571" on="0"/>
        <pt x="582" y="616" on="0"/>
        <pt x="566" y="651" on="0"/>
        <pt x="550" y="674" on="0"/>
        <pt x="534" y="680" on="1"/>
        <pt x="509" y="690" on="0"/>
        <pt x="473" y="690" on="1"/>
        <pt x="226" y="690" on="1"/>
        <pt x="173" y="356" on="1"/>
        <pt x="418" y="356" on="1"/>
        <pt x="518" y="356" on="0"/>
        <pt x="555" y="438" on="1"/>
        <pt x="571" y="474" on="0"/>
      </contour>
    </TTGlyph>
    <TTGlyph name="Racute" xMin="75" yMin="0" xMax="625" yMax="930">
      <contour>
        <pt x="396" y="797" on="1"/>
        <pt x="533" y="930" on="1"/>
        <pt x="583" y="930" on="1"/>
        <pt x="429" y="797" on="1"/>
      </contour>
      <contour>
        <pt x="479" y="732" on="1"/>
        <pt x="624" y="732" on="0"/>
        <pt x="624" y="579" on="1"/>
        <pt x="624" y="509" on="0"/>
        <pt x="590" y="407" on="0"/>
        <pt x="558" y="364" on="0"/>
        <pt x="527" y="335" on="0"/>
        <pt x="507" y="328" on="1"/>
        <pt x="474" y="317" on="0"/>
        <pt x="440" y="316" on="1"/>
        <pt x="548" y="0" on="1"/>
        <pt x="503" y="0" on="1"/>
        <pt x="397" y="313" on="1"/>
        <pt x="367" y="314" on="0"/>
        <pt x="169" y="323" on="0"/>
        <pt x="168" y="324" on="1"/>
        <pt x="116" y="0" on="1"/>
        <pt x="75" y="0" on="1"/>
        <pt x="191" y="732" on="1"/>
      </contour>
      <contour>
        <pt x="418" y="356" on="1"/>
        <pt x="518" y="356" on="0"/>
        <pt x="555" y="438" on="1"/>
        <pt x="571" y="474" on="0"/>
        <pt x="578" y="525" on="1"/>
        <pt x="582" y="571" on="0"/>
        <pt x="582" y="616" on="0"/>
        <pt x="566" y="651" on="0"/>
        <pt x="550" y="674" on="0"/>
        <pt x="534" y="680" on="1"/>
        <pt x="509" y="690" on="0"/>
        <pt x="473" y="690" on="1"/>
        <pt x="226" y="690" on="1"/>
        <pt x="173" y="356" on="1"/>
      </contour>
    </TTGlyph>
    <TTGlyph name="Rcaron" xMin="75" yMin="0" xMax="625" yMax="927">
      <contour>
        <pt x="295" y="927" on="1"/>
        <pt x="328" y="927" on="1"/>
        <pt x="410" y="823" on="1"/>
        <pt x="535" y="927" on="1"/>
        <pt x="574" y="927" on="1"/>
        <pt x="426" y="797" on="1"/>
        <pt x="388" y="797" on="1"/>
      </contour>
      <contour>
        <pt x="479" y="732" on="1"/>
        <pt x="624" y="732" on="0"/>
        <pt x="624" y="579" on="1"/>
        <pt x="624" y="509" on="0"/>
        <pt x="590" y="407" on="0"/>
        <pt x="558" y="364" on="0"/>
        <pt x="527" y="335" on="0"/>
        <pt x="507" y="328" on="1"/>
        <pt x="474" y="317" on="0"/>
        <pt x="440" y="316" on="1"/>
        <pt x="548" y="0" on="1"/>
        <pt x="503" y="0" on="1"/>
        <pt x="397" y="313" on="1"/>
        <pt x="367" y="314" on="0"/>
        <pt x="169" y="323" on="0"/>
        <pt x="168" y="324" on="1"/>
        <pt x="116" y="0" on="1"/>
        <pt x="75" y="0" on="1"/>
        <pt x="191" y="732" on="1"/>
      </contour>
      <contour>
        <pt x="418" y="356" on="1"/>
        <pt x="518" y="356" on="0"/>
        <pt x="555" y="438" on="1"/>
        <pt x="571" y="474" on="0"/>
        <pt x="578" y="525" on="1"/>
        <pt x="582" y="571" on="0"/>
        <pt x="582" y="616" on="0"/>
        <pt x="566" y="651" on="0"/>
        <pt x="550" y="674" on="0"/>
        <pt x="534" y="680" on="1"/>
        <pt x="509" y="690" on="0"/>
        <pt x="473" y="690" on="1"/>
        <pt x="226" y="690" on="1"/>
        <pt x="173" y="356" on="1"/>
      </contour>
    </TTGlyph>
    <TTGlyph name="Rcommaaccent" xMin="75" yMin="-214" xMax="625" yMax="732">
      <contour>
        <pt x="265" y="-199" on="1"/>
        <pt x="283" y="-199" on="0"/>
        <pt x="286" y="-181" on="1"/>
        <pt x="292" y="-145" on="1"/>
        <pt x="285" y="-145" on="1"/>
        <pt x="270" y="-145" on="0"/>
        <pt x="273" y="-130" on="1"/>
        <pt x="281" y="-76" on="1"/>
        <pt x="284" y="-60" on="0"/>
        <pt x="298" y="-60" on="1"/>
        <pt x="320" y="-60" on="1"/>
        <pt x="334" y="-60" on="0"/>
        <pt x="332" y="-76" on="1"/>
        <pt x="317" y="-171" on="1"/>
        <pt x="312" y="-200" on="0"/>
        <pt x="294" y="-208" on="1"/>
        <pt x="282" y="-214" on="0"/>
        <pt x="269" y="-214" on="0"/>
        <pt x="262" y="-213" on="1"/>
        <pt x="264" y="-199" on="1"/>
        <pt x="265" y="-199" on="0"/>
      </contour>
      <contour>
        <pt x="479" y="732" on="1"/>
        <pt x="624" y="732" on="0"/>
        <pt x="624" y="579" on="1"/>
        <pt x="624" y="509" on="0"/>
        <pt x="590" y="407" on="0"/>
        <pt x="558" y="364" on="0"/>
        <pt x="527" y="335" on="0"/>
        <pt x="507" y="328" on="1"/>
        <pt x="474" y="317" on="0"/>
        <pt x="440" y="316" on="1"/>
        <pt x="548" y="0" on="1"/>
        <pt x="503" y="0" on="1"/>
        <pt x="397" y="313" on="1"/>
        <pt x="367" y="314" on="0"/>
        <pt x="169" y="323" on="0"/>
        <pt x="168" y="324" on="1"/>
        <pt x="116" y="0" on="1"/>
        <pt x="75" y="0" on="1"/>
        <pt x="191" y="732" on="1"/>
      </contour>
      <contour>
        <pt x="418" y="356" on="1"/>
        <pt x="518" y="356" on="0"/>
        <pt x="555" y="438" on="1"/>
        <pt x="571" y="474" on="0"/>
        <pt x="578" y="525" on="1"/>
        <pt x="582" y="571" on="0"/>
        <pt x="582" y="616" on="0"/>
        <pt x="566" y="651" on="0"/>
        <pt x="550" y="674" on="0"/>
        <pt x="534" y="680" on="1"/>
        <pt x="509" y="690" on="0"/>
        <pt x="473" y="690" on="1"/>
        <pt x="226" y="690" on="1"/>
        <pt x="173" y="356" on="1"/>
      </contour>
    </TTGlyph>
    <TTGlyph name="S" xMin="79" yMin="-9" xMax="598" yMax="739">
      <contour>
        <pt x="83" y="40" on="1"/>
        <pt x="151" y="33" on="0"/>
        <pt x="355" y="33" on="0"/>
        <pt x="405" y="42" on="0"/>
        <pt x="431" y="54" on="1"/>
        <pt x="486" y="80" on="0"/>
        <pt x="498" y="156" on="1"/>
        <pt x="508" y="224" on="1"/>
        <pt x="511" y="241" on="0"/>
        <pt x="511" y="291" on="0"/>
        <pt x="495" y="311" on="1"/>
        <pt x="473" y="338" on="0"/>
        <pt x="407" y="338" on="1"/>
        <pt x="286" y="338" on="1"/>
        <pt x="196" y="338" on="0"/>
        <pt x="162" y="372" on="1"/>
        <pt x="132" y="403" on="0"/>
        <pt x="132" y="444" on="1"/>
        <pt x="132" y="456" on="0"/>
        <pt x="136" y="497" on="1"/>
        <pt x="147" y="563" on="1"/>
        <pt x="164" y="670" on="0"/>
        <pt x="226" y="707" on="1"/>
        <pt x="279" y="738" on="0"/>
        <pt x="363" y="738" on="1"/>
        <pt x="402" y="738" on="0"/>
        <pt x="558" y="724" on="0"/>
        <pt x="597" y="717" on="1"/>
        <pt x="593" y="689" on="1"/>
        <pt x="363" y="697" on="1"/>
        <pt x="355" y="697" on="0"/>
        <pt x="348" y="697" on="1"/>
        <pt x="282" y="697" on="0"/>
        <pt x="200" y="640" on="0"/>
        <pt x="188" y="560" on="1"/>
        <pt x="177" y="494" on="1"/>
        <pt x="176" y="474" on="0"/>
        <pt x="172" y="444" on="0"/>
        <pt x="181" y="420" on="0"/>
        <pt x="189" y="403" on="0"/>
        <pt x="208" y="392" on="0"/>
        <pt x="225" y="385" on="0"/>
        <pt x="238" y="383" on="1"/>
        <pt x="260" y="379" on="0"/>
        <pt x="291" y="379" on="1"/>
        <pt x="414" y="379" on="1"/>
        <pt x="553" y="379" on="0"/>
        <pt x="553" y="261" on="1"/>
        <pt x="553" y="242" on="0"/>
        <pt x="549" y="221" on="1"/>
        <pt x="539" y="153" on="1"/>
        <pt x="516" y="10" on="0"/>
        <pt x="373" y="-5" on="1"/>
        <pt x="348" y="-8" on="0"/>
        <pt x="272" y="-8" on="0"/>
        <pt x="110" y="4" on="0"/>
        <pt x="79" y="10" on="1"/>
      </contour>
    </TTGlyph>
    <TTGlyph name="Sacute" xMin="74" yMin="-8" xMax="594" yMax="931">
      <contour>
        <pt x="392" y="798" on="1"/>
        <pt x="529" y="931" on="1"/>
        <pt x="578" y="931" on="1"/>
        <pt x="424" y="798" on="1"/>
      </contour>
      <contour>
        <pt x="79" y="40" on="1"/>
        <pt x="147" y="33" on="0"/>
        <pt x="351" y="33" on="0"/>
        <pt x="401" y="42" on="0"/>
        <pt x="427" y="54" on="1"/>
        <pt x="482" y="80" on="0"/>
        <pt x="494" y="156" on="1"/>
        <pt x="504" y="224" on="1"/>
        <pt x="507" y="241" on="0"/>
        <pt x="507" y="291" on="0"/>
        <pt x="491" y="311" on="1"/>
        <pt x="469" y="338" on="0"/>
        <pt x="403" y="338" on="1"/>
        <pt x="282" y="338" on="1"/>
        <pt x="205" y="338" on="0"/>
        <pt x="171" y="363" on="1"/>
        <pt x="136" y="387" on="0"/>
        <pt x="131" y="422" on="1"/>
        <pt x="128" y="439" on="0"/>
        <pt x="128" y="472" on="0"/>
        <pt x="132" y="497" on="1"/>
        <pt x="143" y="563" on="1"/>
        <pt x="160" y="670" on="0"/>
        <pt x="222" y="707" on="1"/>
        <pt x="275" y="738" on="0"/>
        <pt x="358" y="738" on="1"/>
        <pt x="413" y="738" on="0"/>
        <pt x="568" y="721" on="0"/>
        <pt x="593" y="717" on="1"/>
        <pt x="589" y="689" on="1"/>
        <pt x="359" y="697" on="1"/>
        <pt x="351" y="697" on="0"/>
        <pt x="344" y="697" on="1"/>
        <pt x="278" y="697" on="0"/>
        <pt x="196" y="640" on="0"/>
        <pt x="184" y="560" on="1"/>
        <pt x="173" y="494" on="1"/>
        <pt x="171" y="474" on="0"/>
        <pt x="168" y="444" on="0"/>
        <pt x="177" y="420" on="0"/>
        <pt x="185" y="403" on="0"/>
        <pt x="204" y="392" on="0"/>
        <pt x="220" y="385" on="0"/>
        <pt x="234" y="383" on="1"/>
        <pt x="256" y="380" on="0"/>
        <pt x="287" y="380" on="1"/>
        <pt x="410" y="380" on="1"/>
        <pt x="548" y="380" on="0"/>
        <pt x="548" y="261" on="1"/>
        <pt x="548" y="242" on="0"/>
        <pt x="545" y="221" on="1"/>
        <pt x="535" y="153" on="1"/>
        <pt x="512" y="10" on="0"/>
        <pt x="369" y="-5" on="1"/>
        <pt x="344" y="-8" on="0"/>
        <pt x="268" y="-8" on="0"/>
        <pt x="106" y="4" on="0"/>
        <pt x="75" y="10" on="1"/>
      </contour>
    </TTGlyph>
    <TTGlyph name="Scaron" xMin="79" yMin="-8" xMax="598" yMax="929">
      <contour>
        <pt x="298" y="928" on="1"/>
        <pt x="331" y="928" on="1"/>
        <pt x="413" y="824" on="1"/>
        <pt x="538" y="928" on="1"/>
        <pt x="577" y="928" on="1"/>
        <pt x="429" y="798" on="1"/>
        <pt x="391" y="798" on="1"/>
      </contour>
      <contour>
        <pt x="83" y="40" on="1"/>
        <pt x="151" y="33" on="0"/>
        <pt x="355" y="33" on="0"/>
        <pt x="405" y="42" on="0"/>
        <pt x="431" y="54" on="1"/>
        <pt x="486" y="80" on="0"/>
        <pt x="498" y="156" on="1"/>
        <pt x="508" y="224" on="1"/>
        <pt x="511" y="241" on="0"/>
        <pt x="511" y="291" on="0"/>
        <pt x="495" y="311" on="1"/>
        <pt x="473" y="338" on="0"/>
        <pt x="407" y="338" on="1"/>
        <pt x="286" y="338" on="1"/>
        <pt x="209" y="338" on="0"/>
        <pt x="175" y="363" on="1"/>
        <pt x="140" y="387" on="0"/>
        <pt x="135" y="422" on="1"/>
        <pt x="132" y="439" on="0"/>
        <pt x="132" y="472" on="0"/>
        <pt x="136" y="497" on="1"/>
        <pt x="147" y="563" on="1"/>
        <pt x="164" y="670" on="0"/>
        <pt x="226" y="707" on="1"/>
        <pt x="279" y="738" on="0"/>
        <pt x="363" y="738" on="1"/>
        <pt x="417" y="738" on="0"/>
        <pt x="572" y="721" on="0"/>
        <pt x="597" y="717" on="1"/>
        <pt x="593" y="689" on="1"/>
        <pt x="363" y="697" on="1"/>
        <pt x="355" y="697" on="0"/>
        <pt x="348" y="697" on="1"/>
        <pt x="282" y="697" on="0"/>
        <pt x="200" y="640" on="0"/>
        <pt x="188" y="560" on="1"/>
        <pt x="177" y="494" on="1"/>
        <pt x="176" y="474" on="0"/>
        <pt x="172" y="444" on="0"/>
        <pt x="181" y="420" on="0"/>
        <pt x="189" y="403" on="0"/>
        <pt x="208" y="392" on="0"/>
        <pt x="225" y="385" on="0"/>
        <pt x="238" y="383" on="1"/>
        <pt x="260" y="380" on="0"/>
        <pt x="291" y="380" on="1"/>
        <pt x="414" y="380" on="1"/>
        <pt x="553" y="380" on="0"/>
        <pt x="553" y="261" on="1"/>
        <pt x="553" y="242" on="0"/>
        <pt x="549" y="221" on="1"/>
        <pt x="539" y="153" on="1"/>
        <pt x="516" y="10" on="0"/>
        <pt x="373" y="-5" on="1"/>
        <pt x="348" y="-8" on="0"/>
        <pt x="287" y="-8" on="0"/>
        <pt x="239" y="-5" on="1"/>
        <pt x="124" y="2" on="0"/>
        <pt x="79" y="10" on="1"/>
      </contour>
    </TTGlyph>
    <TTGlyph name="Scedilla" xMin="79" yMin="-181" xMax="598" yMax="739">
      <contour>
        <pt x="206" y="-181" on="1"/>
        <pt x="168" y="-181" on="1"/>
        <pt x="170" y="-164" on="1"/>
        <pt x="212" y="-155" on="1"/>
        <pt x="250" y="-148" on="0"/>
        <pt x="286" y="-104" on="0"/>
        <pt x="294" y="-45" on="1"/>
        <pt x="328" y="-45" on="1"/>
        <pt x="316" y="-122" on="0"/>
        <pt x="266" y="-181" on="0"/>
      </contour>
      <contour>
        <pt x="83" y="40" on="1"/>
        <pt x="151" y="33" on="0"/>
        <pt x="355" y="33" on="0"/>
        <pt x="405" y="42" on="0"/>
        <pt x="431" y="54" on="1"/>
        <pt x="486" y="80" on="0"/>
        <pt x="498" y="156" on="1"/>
        <pt x="508" y="224" on="1"/>
        <pt x="511" y="241" on="0"/>
        <pt x="511" y="291" on="0"/>
        <pt x="495" y="311" on="1"/>
        <pt x="473" y="338" on="0"/>
        <pt x="407" y="338" on="1"/>
        <pt x="286" y="338" on="1"/>
        <pt x="209" y="338" on="0"/>
        <pt x="175" y="363" on="1"/>
        <pt x="140" y="387" on="0"/>
        <pt x="135" y="422" on="1"/>
        <pt x="132" y="439" on="0"/>
        <pt x="132" y="472" on="0"/>
        <pt x="136" y="497" on="1"/>
        <pt x="147" y="563" on="1"/>
        <pt x="164" y="670" on="0"/>
        <pt x="226" y="707" on="1"/>
        <pt x="279" y="738" on="0"/>
        <pt x="363" y="738" on="1"/>
        <pt x="417" y="738" on="0"/>
        <pt x="572" y="721" on="0"/>
        <pt x="597" y="717" on="1"/>
        <pt x="593" y="689" on="1"/>
        <pt x="363" y="697" on="1"/>
        <pt x="355" y="697" on="0"/>
        <pt x="348" y="697" on="1"/>
        <pt x="282" y="697" on="0"/>
        <pt x="200" y="640" on="0"/>
        <pt x="188" y="560" on="1"/>
        <pt x="177" y="494" on="1"/>
        <pt x="176" y="474" on="0"/>
        <pt x="172" y="444" on="0"/>
        <pt x="181" y="420" on="0"/>
        <pt x="189" y="403" on="0"/>
        <pt x="208" y="392" on="0"/>
        <pt x="225" y="385" on="0"/>
        <pt x="238" y="383" on="1"/>
        <pt x="260" y="380" on="0"/>
        <pt x="291" y="380" on="1"/>
        <pt x="414" y="380" on="1"/>
        <pt x="553" y="380" on="0"/>
        <pt x="553" y="261" on="1"/>
        <pt x="553" y="242" on="0"/>
        <pt x="549" y="221" on="1"/>
        <pt x="539" y="153" on="1"/>
        <pt x="516" y="10" on="0"/>
        <pt x="373" y="-5" on="1"/>
        <pt x="348" y="-8" on="0"/>
        <pt x="287" y="-8" on="0"/>
        <pt x="239" y="-5" on="1"/>
        <pt x="124" y="2" on="0"/>
        <pt x="79" y="10" on="1"/>
      </contour>
    </TTGlyph>
    <TTGlyph name="Scircumflex" xMin="79" yMin="-8" xMax="598" yMax="929">
      <contour>
        <pt x="250" y="798" on="1"/>
        <pt x="398" y="928" on="1"/>
        <pt x="436" y="928" on="1"/>
        <pt x="529" y="798" on="1"/>
        <pt x="496" y="798" on="1"/>
        <pt x="414" y="902" on="1"/>
        <pt x="289" y="798" on="1"/>
      </contour>
      <contour>
        <pt x="83" y="40" on="1"/>
        <pt x="151" y="33" on="0"/>
        <pt x="355" y="33" on="0"/>
        <pt x="405" y="42" on="0"/>
        <pt x="431" y="54" on="1"/>
        <pt x="486" y="80" on="0"/>
        <pt x="498" y="156" on="1"/>
        <pt x="508" y="224" on="1"/>
        <pt x="511" y="241" on="0"/>
        <pt x="511" y="291" on="0"/>
        <pt x="495" y="311" on="1"/>
        <pt x="473" y="338" on="0"/>
        <pt x="407" y="338" on="1"/>
        <pt x="286" y="338" on="1"/>
        <pt x="209" y="338" on="0"/>
        <pt x="175" y="363" on="1"/>
        <pt x="140" y="387" on="0"/>
        <pt x="135" y="422" on="1"/>
        <pt x="132" y="439" on="0"/>
        <pt x="132" y="472" on="0"/>
        <pt x="136" y="497" on="1"/>
        <pt x="147" y="563" on="1"/>
        <pt x="164" y="670" on="0"/>
        <pt x="226" y="707" on="1"/>
        <pt x="279" y="738" on="0"/>
        <pt x="363" y="738" on="1"/>
        <pt x="417" y="738" on="0"/>
        <pt x="572" y="721" on="0"/>
        <pt x="597" y="717" on="1"/>
        <pt x="593" y="689" on="1"/>
        <pt x="363" y="697" on="1"/>
        <pt x="355" y="697" on="0"/>
        <pt x="348" y="697" on="1"/>
        <pt x="282" y="697" on="0"/>
        <pt x="200" y="640" on="0"/>
        <pt x="188" y="560" on="1"/>
        <pt x="177" y="494" on="1"/>
        <pt x="176" y="474" on="0"/>
        <pt x="172" y="444" on="0"/>
        <pt x="181" y="420" on="0"/>
        <pt x="189" y="403" on="0"/>
        <pt x="208" y="392" on="0"/>
        <pt x="225" y="385" on="0"/>
        <pt x="238" y="383" on="1"/>
        <pt x="260" y="380" on="0"/>
        <pt x="291" y="380" on="1"/>
        <pt x="414" y="380" on="1"/>
        <pt x="553" y="380" on="0"/>
        <pt x="553" y="261" on="1"/>
        <pt x="553" y="242" on="0"/>
        <pt x="549" y="221" on="1"/>
        <pt x="539" y="153" on="1"/>
        <pt x="516" y="10" on="0"/>
        <pt x="373" y="-5" on="1"/>
        <pt x="348" y="-8" on="0"/>
        <pt x="287" y="-8" on="0"/>
        <pt x="239" y="-5" on="1"/>
        <pt x="124" y="2" on="0"/>
        <pt x="79" y="10" on="1"/>
      </contour>
    </TTGlyph>
    <TTGlyph name="T" xMin="139" yMin="0" xMax="674" yMax="732">
      <contour>
        <pt x="139" y="691" on="1"/>
        <pt x="146" y="732" on="1"/>
        <pt x="674" y="732" on="1"/>
        <pt x="667" y="691" on="1"/>
        <pt x="420" y="691" on="1"/>
        <pt x="311" y="0" on="1"/>
        <pt x="270" y="0" on="1"/>
        <pt x="379" y="691" on="1"/>
      </contour>
    </TTGlyph>
    <TTGlyph name="Tbar" xMin="139" yMin="0" xMax="648" yMax="732">
      <contour>
        <pt x="139" y="691" on="1"/>
        <pt x="146" y="732" on="1"/>
        <pt x="647" y="732" on="1"/>
        <pt x="640" y="691" on="1"/>
        <pt x="407" y="691" on="1"/>
        <pt x="366" y="431" on="1"/>
        <pt x="493" y="431" on="1"/>
        <pt x="488" y="403" on="1"/>
        <pt x="362" y="403" on="1"/>
        <pt x="298" y="0" on="1"/>
        <pt x="257" y="0" on="1"/>
        <pt x="321" y="403" on="1"/>
        <pt x="194" y="403" on="1"/>
        <pt x="198" y="431" on="1"/>
        <pt x="325" y="431" on="1"/>
        <pt x="366" y="691" on="1"/>
      </contour>
    </TTGlyph>
    <TTGlyph name="Tcaron" xMin="139" yMin="0" xMax="674" yMax="927">
      <contour>
        <pt x="301" y="927" on="1"/>
        <pt x="335" y="927" on="1"/>
        <pt x="416" y="823" on="1"/>
        <pt x="541" y="927" on="1"/>
        <pt x="580" y="927" on="1"/>
        <pt x="432" y="797" on="1"/>
        <pt x="394" y="797" on="1"/>
      </contour>
      <contour>
        <pt x="139" y="691" on="1"/>
        <pt x="146" y="732" on="1"/>
        <pt x="674" y="732" on="1"/>
        <pt x="667" y="691" on="1"/>
        <pt x="420" y="691" on="1"/>
        <pt x="311" y="0" on="1"/>
        <pt x="270" y="0" on="1"/>
        <pt x="379" y="691" on="1"/>
      </contour>
    </TTGlyph>
    <TTGlyph name="Tcommaaccent" xMin="131" yMin="-185" xMax="667" yMax="732">
      <contour>
        <pt x="170" y="-185" on="1"/>
        <pt x="132" y="-185" on="1"/>
        <pt x="135" y="-168" on="1"/>
        <pt x="176" y="-159" on="1"/>
        <pt x="214" y="-152" on="0"/>
        <pt x="251" y="-108" on="0"/>
        <pt x="259" y="-49" on="1"/>
        <pt x="293" y="-49" on="1"/>
        <pt x="281" y="-126" on="0"/>
        <pt x="230" y="-185" on="0"/>
      </contour>
      <contour>
        <pt x="132" y="691" on="1"/>
        <pt x="138" y="732" on="1"/>
        <pt x="666" y="732" on="1"/>
        <pt x="659" y="691" on="1"/>
        <pt x="413" y="691" on="1"/>
        <pt x="304" y="0" on="1"/>
        <pt x="263" y="0" on="1"/>
        <pt x="372" y="691" on="1"/>
      </contour>
    </TTGlyph>
    <TTGlyph name="Thorn" xMin="60" yMin="0" xMax="551" yMax="729">
      <contour>
        <pt x="60" y="0" on="1"/>
        <pt x="60" y="0" on="0"/>
        <pt x="175" y="729" on="1"/>
        <pt x="216" y="729" on="1"/>
        <pt x="194" y="588" on="1"/>
        <pt x="404" y="588" on="1"/>
        <pt x="444" y="588" on="0"/>
        <pt x="499" y="563" on="0"/>
        <pt x="513" y="547" on="1"/>
        <pt x="551" y="504" on="0"/>
        <pt x="551" y="435" on="1"/>
        <pt x="551" y="407" on="0"/>
        <pt x="538" y="313" on="0"/>
        <pt x="503" y="228" on="0"/>
        <pt x="463" y="182" on="0"/>
        <pt x="408" y="157" on="0"/>
        <pt x="365" y="151" on="0"/>
        <pt x="172" y="153" on="0"/>
        <pt x="127" y="164" on="1"/>
        <pt x="101" y="0" on="1"/>
      </contour>
      <contour>
        <pt x="341" y="192" on="1"/>
        <pt x="444" y="192" on="0"/>
        <pt x="482" y="285" on="1"/>
        <pt x="497" y="322" on="0"/>
        <pt x="510" y="401" on="0"/>
        <pt x="510" y="428" on="0"/>
        <pt x="507" y="459" on="0"/>
        <pt x="500" y="495" on="0"/>
        <pt x="479" y="520" on="0"/>
        <pt x="460" y="535" on="0"/>
        <pt x="446" y="539" on="1"/>
        <pt x="424" y="546" on="0"/>
        <pt x="397" y="547" on="1"/>
        <pt x="187" y="547" on="1"/>
        <pt x="131" y="192" on="1"/>
      </contour>
    </TTGlyph>
    <TTGlyph name="U" xMin="119" yMin="-5" xMax="707" yMax="733">
      <contour>
        <pt x="171" y="314" on="1"/>
        <pt x="161" y="248" on="0"/>
        <pt x="161" y="166" on="0"/>
        <pt x="167" y="115" on="0"/>
        <pt x="192" y="74" on="0"/>
        <pt x="219" y="51" on="0"/>
        <pt x="243" y="45" on="1"/>
        <pt x="279" y="36" on="0"/>
        <pt x="383" y="36" on="0"/>
        <pt x="443" y="46" on="0"/>
        <pt x="506" y="79" on="0"/>
        <pt x="528" y="109" on="1"/>
        <pt x="577" y="175" on="0"/>
        <pt x="599" y="314" on="1"/>
        <pt x="665" y="732" on="1"/>
        <pt x="706" y="732" on="1"/>
        <pt x="640" y="314" on="1"/>
        <pt x="610" y="122" on="0"/>
        <pt x="535" y="56" on="1"/>
        <pt x="496" y="22" on="0"/>
        <pt x="405" y="-5" on="0"/>
        <pt x="305" y="-5" on="0"/>
        <pt x="255" y="0" on="0"/>
        <pt x="199" y="15" on="0"/>
        <pt x="181" y="28" on="1"/>
        <pt x="137" y="62" on="0"/>
        <pt x="125" y="123" on="1"/>
        <pt x="119" y="154" on="0"/>
        <pt x="119" y="201" on="0"/>
        <pt x="120" y="252" on="0"/>
        <pt x="130" y="314" on="1"/>
        <pt x="196" y="732" on="1"/>
        <pt x="237" y="732" on="1"/>
      </contour>
    </TTGlyph>
    <TTGlyph name="Uacute" xMin="119" yMin="-5" xMax="707" yMax="930">
      <contour>
        <pt x="445" y="797" on="1"/>
        <pt x="582" y="930" on="1"/>
        <pt x="632" y="930" on="1"/>
        <pt x="478" y="797" on="1"/>
      </contour>
      <contour>
        <pt x="171" y="314" on="1"/>
        <pt x="161" y="248" on="0"/>
        <pt x="161" y="166" on="0"/>
        <pt x="167" y="115" on="0"/>
        <pt x="192" y="74" on="0"/>
        <pt x="219" y="51" on="0"/>
        <pt x="243" y="45" on="1"/>
        <pt x="279" y="36" on="0"/>
        <pt x="383" y="36" on="0"/>
        <pt x="443" y="46" on="0"/>
        <pt x="506" y="79" on="0"/>
        <pt x="528" y="109" on="1"/>
        <pt x="577" y="175" on="0"/>
        <pt x="599" y="314" on="1"/>
        <pt x="665" y="732" on="1"/>
        <pt x="706" y="732" on="1"/>
        <pt x="640" y="314" on="1"/>
        <pt x="610" y="122" on="0"/>
        <pt x="535" y="56" on="1"/>
        <pt x="496" y="22" on="0"/>
        <pt x="405" y="-5" on="0"/>
        <pt x="305" y="-5" on="0"/>
        <pt x="255" y="0" on="0"/>
        <pt x="199" y="15" on="0"/>
        <pt x="181" y="28" on="1"/>
        <pt x="137" y="62" on="0"/>
        <pt x="125" y="123" on="1"/>
        <pt x="119" y="154" on="0"/>
        <pt x="119" y="201" on="0"/>
        <pt x="120" y="252" on="0"/>
        <pt x="130" y="314" on="1"/>
        <pt x="196" y="732" on="1"/>
        <pt x="237" y="732" on="1"/>
      </contour>
    </TTGlyph>
    <TTGlyph name="Ubreve" xMin="119" yMin="-5" xMax="707" yMax="911">
      <contour>
        <pt x="389" y="895" on="1"/>
        <pt x="389" y="867" on="0"/>
        <pt x="428" y="822" on="0"/>
        <pt x="463" y="822" on="1"/>
        <pt x="504" y="822" on="0"/>
        <pt x="563" y="870" on="0"/>
        <pt x="569" y="911" on="1"/>
        <pt x="594" y="911" on="1"/>
        <pt x="586" y="856" on="0"/>
        <pt x="511" y="797" on="0"/>
        <pt x="419" y="797" on="0"/>
        <pt x="364" y="854" on="0"/>
        <pt x="364" y="893" on="1"/>
        <pt x="364" y="902" on="0"/>
        <pt x="365" y="911" on="1"/>
        <pt x="390" y="911" on="1"/>
        <pt x="389" y="903" on="0"/>
      </contour>
      <contour>
        <pt x="171" y="314" on="1"/>
        <pt x="161" y="248" on="0"/>
        <pt x="161" y="166" on="0"/>
        <pt x="167" y="115" on="0"/>
        <pt x="192" y="74" on="0"/>
        <pt x="219" y="51" on="0"/>
        <pt x="243" y="45" on="1"/>
        <pt x="279" y="36" on="0"/>
        <pt x="383" y="36" on="0"/>
        <pt x="443" y="46" on="0"/>
        <pt x="506" y="79" on="0"/>
        <pt x="528" y="109" on="1"/>
        <pt x="577" y="175" on="0"/>
        <pt x="599" y="314" on="1"/>
        <pt x="665" y="732" on="1"/>
        <pt x="706" y="732" on="1"/>
        <pt x="640" y="314" on="1"/>
        <pt x="610" y="122" on="0"/>
        <pt x="535" y="56" on="1"/>
        <pt x="496" y="22" on="0"/>
        <pt x="405" y="-5" on="0"/>
        <pt x="305" y="-5" on="0"/>
        <pt x="255" y="0" on="0"/>
        <pt x="199" y="15" on="0"/>
        <pt x="181" y="28" on="1"/>
        <pt x="137" y="62" on="0"/>
        <pt x="125" y="123" on="1"/>
        <pt x="119" y="154" on="0"/>
        <pt x="119" y="201" on="0"/>
        <pt x="120" y="252" on="0"/>
        <pt x="130" y="314" on="1"/>
        <pt x="196" y="732" on="1"/>
        <pt x="237" y="732" on="1"/>
      </contour>
    </TTGlyph>
    <TTGlyph name="Ucircumflex" xMin="119" yMin="-5" xMax="707" yMax="927">
      <contour>
        <pt x="322" y="797" on="1"/>
        <pt x="470" y="927" on="1"/>
        <pt x="508" y="927" on="1"/>
        <pt x="601" y="797" on="1"/>
        <pt x="567" y="797" on="1"/>
        <pt x="486" y="901" on="1"/>
        <pt x="361" y="797" on="1"/>
      </contour>
      <contour>
        <pt x="171" y="314" on="1"/>
        <pt x="161" y="248" on="0"/>
        <pt x="161" y="166" on="0"/>
        <pt x="167" y="115" on="0"/>
        <pt x="192" y="74" on="0"/>
        <pt x="219" y="51" on="0"/>
        <pt x="243" y="45" on="1"/>
        <pt x="279" y="36" on="0"/>
        <pt x="383" y="36" on="0"/>
        <pt x="443" y="46" on="0"/>
        <pt x="506" y="79" on="0"/>
        <pt x="528" y="109" on="1"/>
        <pt x="577" y="175" on="0"/>
        <pt x="599" y="314" on="1"/>
        <pt x="665" y="732" on="1"/>
        <pt x="706" y="732" on="1"/>
        <pt x="640" y="314" on="1"/>
        <pt x="610" y="122" on="0"/>
        <pt x="535" y="56" on="1"/>
        <pt x="496" y="22" on="0"/>
        <pt x="405" y="-5" on="0"/>
        <pt x="305" y="-5" on="0"/>
        <pt x="255" y="0" on="0"/>
        <pt x="199" y="15" on="0"/>
        <pt x="181" y="28" on="1"/>
        <pt x="137" y="62" on="0"/>
        <pt x="125" y="123" on="1"/>
        <pt x="119" y="154" on="0"/>
        <pt x="119" y="201" on="0"/>
        <pt x="120" y="252" on="0"/>
        <pt x="130" y="314" on="1"/>
        <pt x="196" y="732" on="1"/>
        <pt x="237" y="732" on="1"/>
      </contour>
    </TTGlyph>
    <TTGlyph name="Udieresis" xMin="119" yMin="-5" xMax="707" yMax="855">
      <contour>
        <pt x="321" y="847" on="0"/>
        <pt x="336" y="854" on="0"/>
        <pt x="356" y="854" on="0"/>
        <pt x="369" y="838" on="0"/>
        <pt x="366" y="820" on="0"/>
        <pt x="360" y="809" on="0"/>
        <pt x="356" y="806" on="1"/>
        <pt x="346" y="797" on="0"/>
        <pt x="322" y="797" on="0"/>
        <pt x="308" y="814" on="0"/>
        <pt x="311" y="834" on="0"/>
      </contour>
      <contour>
        <pt x="581" y="850" on="0"/>
        <pt x="593" y="854" on="0"/>
        <pt x="611" y="854" on="0"/>
        <pt x="624" y="838" on="0"/>
        <pt x="621" y="818" on="0"/>
        <pt x="616" y="812" on="1"/>
        <pt x="606" y="797" on="0"/>
        <pt x="577" y="797" on="0"/>
        <pt x="563" y="814" on="0"/>
        <pt x="566" y="832" on="0"/>
        <pt x="572" y="843" on="0"/>
      </contour>
      <contour>
        <pt x="171" y="314" on="1"/>
        <pt x="161" y="248" on="0"/>
        <pt x="161" y="166" on="0"/>
        <pt x="167" y="115" on="0"/>
        <pt x="192" y="74" on="0"/>
        <pt x="219" y="51" on="0"/>
        <pt x="243" y="45" on="1"/>
        <pt x="279" y="36" on="0"/>
        <pt x="383" y="36" on="0"/>
        <pt x="443" y="46" on="0"/>
        <pt x="506" y="79" on="0"/>
        <pt x="528" y="109" on="1"/>
        <pt x="577" y="175" on="0"/>
        <pt x="599" y="314" on="1"/>
        <pt x="665" y="732" on="1"/>
        <pt x="706" y="732" on="1"/>
        <pt x="640" y="314" on="1"/>
        <pt x="610" y="122" on="0"/>
        <pt x="535" y="56" on="1"/>
        <pt x="496" y="22" on="0"/>
        <pt x="405" y="-5" on="0"/>
        <pt x="305" y="-5" on="0"/>
        <pt x="255" y="0" on="0"/>
        <pt x="199" y="15" on="0"/>
        <pt x="181" y="28" on="1"/>
        <pt x="137" y="62" on="0"/>
        <pt x="125" y="123" on="1"/>
        <pt x="119" y="154" on="0"/>
        <pt x="119" y="201" on="0"/>
        <pt x="120" y="252" on="0"/>
        <pt x="130" y="314" on="1"/>
        <pt x="196" y="732" on="1"/>
        <pt x="237" y="732" on="1"/>
      </contour>
    </TTGlyph>
    <TTGlyph name="Ugrave" xMin="119" yMin="-5" xMax="707" yMax="930">
      <contour>
        <pt x="329" y="930" on="1"/>
        <pt x="376" y="930" on="1"/>
        <pt x="478" y="797" on="1"/>
        <pt x="445" y="797" on="1"/>
      </contour>
      <contour>
        <pt x="171" y="314" on="1"/>
        <pt x="161" y="248" on="0"/>
        <pt x="161" y="166" on="0"/>
        <pt x="167" y="115" on="0"/>
        <pt x="192" y="74" on="0"/>
        <pt x="219" y="51" on="0"/>
        <pt x="243" y="45" on="1"/>
        <pt x="279" y="36" on="0"/>
        <pt x="383" y="36" on="0"/>
        <pt x="443" y="46" on="0"/>
        <pt x="506" y="79" on="0"/>
        <pt x="528" y="109" on="1"/>
        <pt x="577" y="175" on="0"/>
        <pt x="599" y="314" on="1"/>
        <pt x="665" y="732" on="1"/>
        <pt x="706" y="732" on="1"/>
        <pt x="640" y="314" on="1"/>
        <pt x="610" y="122" on="0"/>
        <pt x="535" y="56" on="1"/>
        <pt x="496" y="22" on="0"/>
        <pt x="405" y="-5" on="0"/>
        <pt x="305" y="-5" on="0"/>
        <pt x="255" y="0" on="0"/>
        <pt x="199" y="15" on="0"/>
        <pt x="181" y="28" on="1"/>
        <pt x="137" y="62" on="0"/>
        <pt x="125" y="123" on="1"/>
        <pt x="119" y="154" on="0"/>
        <pt x="119" y="201" on="0"/>
        <pt x="120" y="252" on="0"/>
        <pt x="130" y="314" on="1"/>
        <pt x="196" y="732" on="1"/>
        <pt x="237" y="732" on="1"/>
      </contour>
    </TTGlyph>
    <TTGlyph name="Uhungarumlaut" xMin="119" yMin="-5" xMax="707" yMax="930">
      <contour>
        <pt x="376" y="797" on="1"/>
        <pt x="513" y="930" on="1"/>
        <pt x="563" y="930" on="1"/>
        <pt x="409" y="797" on="1"/>
      </contour>
      <contour>
        <pt x="514" y="797" on="1"/>
        <pt x="651" y="930" on="1"/>
        <pt x="700" y="930" on="1"/>
        <pt x="546" y="797" on="1"/>
      </contour>
      <contour>
        <pt x="171" y="314" on="1"/>
        <pt x="161" y="248" on="0"/>
        <pt x="161" y="166" on="0"/>
        <pt x="167" y="115" on="0"/>
        <pt x="192" y="74" on="0"/>
        <pt x="219" y="51" on="0"/>
        <pt x="243" y="45" on="1"/>
        <pt x="279" y="36" on="0"/>
        <pt x="383" y="36" on="0"/>
        <pt x="443" y="46" on="0"/>
        <pt x="506" y="79" on="0"/>
        <pt x="528" y="109" on="1"/>
        <pt x="577" y="175" on="0"/>
        <pt x="599" y="314" on="1"/>
        <pt x="665" y="732" on="1"/>
        <pt x="706" y="732" on="1"/>
        <pt x="640" y="314" on="1"/>
        <pt x="610" y="122" on="0"/>
        <pt x="535" y="56" on="1"/>
        <pt x="496" y="22" on="0"/>
        <pt x="405" y="-5" on="0"/>
        <pt x="305" y="-5" on="0"/>
        <pt x="255" y="0" on="0"/>
        <pt x="199" y="15" on="0"/>
        <pt x="181" y="28" on="1"/>
        <pt x="137" y="62" on="0"/>
        <pt x="125" y="123" on="1"/>
        <pt x="119" y="154" on="0"/>
        <pt x="119" y="201" on="0"/>
        <pt x="120" y="252" on="0"/>
        <pt x="130" y="314" on="1"/>
        <pt x="196" y="732" on="1"/>
        <pt x="237" y="732" on="1"/>
      </contour>
    </TTGlyph>
    <TTGlyph name="Umacron" xMin="119" yMin="-5" xMax="707" yMax="829">
      <contour>
        <pt x="329" y="797" on="1"/>
        <pt x="333" y="828" on="1"/>
        <pt x="599" y="828" on="1"/>
        <pt x="594" y="797" on="1"/>
      </contour>
      <contour>
        <pt x="171" y="314" on="1"/>
        <pt x="161" y="248" on="0"/>
        <pt x="161" y="166" on="0"/>
        <pt x="167" y="115" on="0"/>
        <pt x="192" y="74" on="0"/>
        <pt x="219" y="51" on="0"/>
        <pt x="243" y="45" on="1"/>
        <pt x="279" y="36" on="0"/>
        <pt x="383" y="36" on="0"/>
        <pt x="443" y="46" on="0"/>
        <pt x="506" y="79" on="0"/>
        <pt x="528" y="109" on="1"/>
        <pt x="577" y="175" on="0"/>
        <pt x="599" y="314" on="1"/>
        <pt x="665" y="732" on="1"/>
        <pt x="706" y="732" on="1"/>
        <pt x="640" y="314" on="1"/>
        <pt x="610" y="122" on="0"/>
        <pt x="535" y="56" on="1"/>
        <pt x="496" y="22" on="0"/>
        <pt x="405" y="-5" on="0"/>
        <pt x="305" y="-5" on="0"/>
        <pt x="255" y="0" on="0"/>
        <pt x="199" y="15" on="0"/>
        <pt x="181" y="28" on="1"/>
        <pt x="137" y="62" on="0"/>
        <pt x="125" y="123" on="1"/>
        <pt x="119" y="154" on="0"/>
        <pt x="119" y="201" on="0"/>
        <pt x="120" y="252" on="0"/>
        <pt x="130" y="314" on="1"/>
        <pt x="196" y="732" on="1"/>
        <pt x="237" y="732" on="1"/>
      </contour>
    </TTGlyph>
    <TTGlyph name="Uogonek" xMin="119" yMin="-185" xMax="707" yMax="732">
      <contour>
        <pt x="232" y="-112" on="1"/>
        <pt x="232" y="-43" on="0"/>
        <pt x="332" y="-2" on="1"/>
        <pt x="353" y="-2" on="1"/>
        <pt x="300" y="-28" on="0"/>
        <pt x="278" y="-65" on="1"/>
        <pt x="266" y="-84" on="0"/>
        <pt x="266" y="-116" on="0"/>
        <pt x="276" y="-128" on="1"/>
        <pt x="294" y="-154" on="0"/>
        <pt x="345" y="-154" on="1"/>
        <pt x="348" y="-154" on="0"/>
        <pt x="351" y="-154" on="1"/>
        <pt x="346" y="-183" on="1"/>
        <pt x="335" y="-185" on="0"/>
        <pt x="324" y="-185" on="1"/>
        <pt x="281" y="-185" on="0"/>
        <pt x="232" y="-139" on="0"/>
      </contour>
      <contour>
        <pt x="171" y="314" on="1"/>
        <pt x="161" y="248" on="0"/>
        <pt x="161" y="166" on="0"/>
        <pt x="167" y="115" on="0"/>
        <pt x="192" y="74" on="0"/>
        <pt x="219" y="51" on="0"/>
        <pt x="243" y="45" on="1"/>
        <pt x="279" y="36" on="0"/>
        <pt x="383" y="36" on="0"/>
        <pt x="443" y="46" on="0"/>
        <pt x="506" y="79" on="0"/>
        <pt x="528" y="109" on="1"/>
        <pt x="577" y="175" on="0"/>
        <pt x="599" y="314" on="1"/>
        <pt x="665" y="732" on="1"/>
        <pt x="706" y="732" on="1"/>
        <pt x="640" y="314" on="1"/>
        <pt x="610" y="122" on="0"/>
        <pt x="535" y="56" on="1"/>
        <pt x="496" y="22" on="0"/>
        <pt x="405" y="-5" on="0"/>
        <pt x="305" y="-5" on="0"/>
        <pt x="255" y="0" on="0"/>
        <pt x="199" y="15" on="0"/>
        <pt x="181" y="28" on="1"/>
        <pt x="137" y="62" on="0"/>
        <pt x="125" y="123" on="1"/>
        <pt x="119" y="154" on="0"/>
        <pt x="119" y="201" on="0"/>
        <pt x="120" y="252" on="0"/>
        <pt x="130" y="314" on="1"/>
        <pt x="196" y="732" on="1"/>
        <pt x="237" y="732" on="1"/>
      </contour>
    </TTGlyph>
    <TTGlyph name="Uring" xMin="119" yMin="-5" xMax="707" yMax="1002">
      <contour>
        <pt x="450" y="1002" on="0"/>
        <pt x="534" y="1002" on="0"/>
        <pt x="580" y="947" on="0"/>
        <pt x="580" y="914" on="1"/>
        <pt x="580" y="862" on="0"/>
        <pt x="506" y="797" on="0"/>
        <pt x="422" y="797" on="0"/>
        <pt x="396" y="827" on="1"/>
        <pt x="375" y="851" on="0"/>
        <pt x="375" y="885" on="1"/>
        <pt x="375" y="936" on="0"/>
      </contour>
      <contour>
        <pt x="401" y="887" on="1"/>
        <pt x="401" y="863" on="0"/>
        <pt x="436" y="823" on="0"/>
        <pt x="499" y="823" on="0"/>
        <pt x="524" y="845" on="1"/>
        <pt x="555" y="872" on="0"/>
        <pt x="555" y="910" on="1"/>
        <pt x="555" y="947" on="0"/>
        <pt x="525" y="965" on="1"/>
        <pt x="509" y="976" on="0"/>
        <pt x="468" y="976" on="0"/>
        <pt x="449" y="965" on="1"/>
        <pt x="401" y="939" on="0"/>
      </contour>
      <contour>
        <pt x="171" y="314" on="1"/>
        <pt x="161" y="248" on="0"/>
        <pt x="161" y="166" on="0"/>
        <pt x="167" y="115" on="0"/>
        <pt x="192" y="74" on="0"/>
        <pt x="219" y="51" on="0"/>
        <pt x="243" y="45" on="1"/>
        <pt x="279" y="36" on="0"/>
        <pt x="383" y="36" on="0"/>
        <pt x="443" y="46" on="0"/>
        <pt x="506" y="79" on="0"/>
        <pt x="528" y="109" on="1"/>
        <pt x="577" y="175" on="0"/>
        <pt x="599" y="314" on="1"/>
        <pt x="665" y="732" on="1"/>
        <pt x="706" y="732" on="1"/>
        <pt x="640" y="314" on="1"/>
        <pt x="610" y="122" on="0"/>
        <pt x="535" y="56" on="1"/>
        <pt x="496" y="22" on="0"/>
        <pt x="405" y="-5" on="0"/>
        <pt x="305" y="-5" on="0"/>
        <pt x="255" y="0" on="0"/>
        <pt x="199" y="15" on="0"/>
        <pt x="181" y="28" on="1"/>
        <pt x="137" y="62" on="0"/>
        <pt x="125" y="123" on="1"/>
        <pt x="119" y="154" on="0"/>
        <pt x="119" y="201" on="0"/>
        <pt x="120" y="252" on="0"/>
        <pt x="130" y="314" on="1"/>
        <pt x="196" y="732" on="1"/>
        <pt x="237" y="732" on="1"/>
      </contour>
    </TTGlyph>
    <TTGlyph name="Utilde" xMin="119" yMin="-5" xMax="707" yMax="892">
      <contour>
        <pt x="528" y="832" on="1"/>
        <pt x="568" y="832" on="0"/>
        <pt x="632" y="878" on="1"/>
        <pt x="640" y="859" on="1"/>
        <pt x="637" y="857" on="0"/>
        <pt x="614" y="839" on="0"/>
        <pt x="607" y="834" on="0"/>
        <pt x="587" y="819" on="0"/>
        <pt x="577" y="814" on="0"/>
        <pt x="559" y="804" on="0"/>
        <pt x="552" y="802" on="1"/>
        <pt x="534" y="797" on="0"/>
        <pt x="502" y="797" on="0"/>
        <pt x="461" y="828" on="0"/>
        <pt x="425" y="857" on="0"/>
        <pt x="400" y="857" on="0"/>
        <pt x="378" y="853" on="0"/>
        <pt x="355" y="842" on="0"/>
        <pt x="341" y="834" on="0"/>
        <pt x="311" y="816" on="0"/>
        <pt x="305" y="812" on="1"/>
        <pt x="297" y="831" on="1"/>
        <pt x="347" y="869" on="0"/>
        <pt x="398" y="891" on="0"/>
        <pt x="440" y="891" on="0"/>
        <pt x="514" y="832" on="0"/>
      </contour>
      <contour>
        <pt x="171" y="314" on="1"/>
        <pt x="161" y="248" on="0"/>
        <pt x="161" y="166" on="0"/>
        <pt x="167" y="115" on="0"/>
        <pt x="192" y="74" on="0"/>
        <pt x="219" y="51" on="0"/>
        <pt x="243" y="45" on="1"/>
        <pt x="279" y="36" on="0"/>
        <pt x="383" y="36" on="0"/>
        <pt x="443" y="46" on="0"/>
        <pt x="506" y="79" on="0"/>
        <pt x="528" y="109" on="1"/>
        <pt x="577" y="175" on="0"/>
        <pt x="599" y="314" on="1"/>
        <pt x="665" y="732" on="1"/>
        <pt x="706" y="732" on="1"/>
        <pt x="640" y="314" on="1"/>
        <pt x="610" y="122" on="0"/>
        <pt x="535" y="56" on="1"/>
        <pt x="496" y="22" on="0"/>
        <pt x="405" y="-5" on="0"/>
        <pt x="305" y="-5" on="0"/>
        <pt x="255" y="0" on="0"/>
        <pt x="199" y="15" on="0"/>
        <pt x="181" y="28" on="1"/>
        <pt x="137" y="62" on="0"/>
        <pt x="125" y="123" on="1"/>
        <pt x="119" y="154" on="0"/>
        <pt x="119" y="201" on="0"/>
        <pt x="120" y="252" on="0"/>
        <pt x="130" y="314" on="1"/>
        <pt x="196" y="732" on="1"/>
        <pt x="237" y="732" on="1"/>
      </contour>
    </TTGlyph>
    <TTGlyph name="V" xMin="150" yMin="0" xMax="731" yMax="732">
      <contour>
        <pt x="150" y="732" on="1"/>
        <pt x="193" y="732" on="1"/>
        <pt x="326" y="58" on="1"/>
        <pt x="683" y="732" on="1"/>
        <pt x="730" y="732" on="1"/>
        <pt x="342" y="0" on="1"/>
        <pt x="294" y="0" on="1"/>
      </contour>
    </TTGlyph>
    <TTGlyph name="W" xMin="150" yMin="0" xMax="1049" yMax="732">
      <contour>
        <pt x="150" y="732" on="1"/>
        <pt x="191" y="732" on="1"/>
        <pt x="325" y="58" on="1"/>
        <pt x="671" y="732" on="1"/>
        <pt x="717" y="732" on="1"/>
        <pt x="573" y="448" on="1"/>
        <pt x="658" y="55" on="1"/>
        <pt x="1004" y="732" on="1"/>
        <pt x="1049" y="732" on="1"/>
        <pt x="674" y="0" on="1"/>
        <pt x="626" y="0" on="1"/>
        <pt x="542" y="389" on="1"/>
        <pt x="342" y="0" on="1"/>
        <pt x="294" y="0" on="1"/>
      </contour>
    </TTGlyph>
    <TTGlyph name="Wacute" xMin="150" yMin="0" xMax="1049" yMax="930">
      <contour>
        <pt x="594" y="797" on="1"/>
        <pt x="731" y="930" on="1"/>
        <pt x="780" y="930" on="1"/>
        <pt x="626" y="797" on="1"/>
      </contour>
      <contour>
        <pt x="150" y="732" on="1"/>
        <pt x="191" y="732" on="1"/>
        <pt x="325" y="58" on="1"/>
        <pt x="671" y="732" on="1"/>
        <pt x="717" y="732" on="1"/>
        <pt x="573" y="448" on="1"/>
        <pt x="658" y="55" on="1"/>
        <pt x="1004" y="732" on="1"/>
        <pt x="1049" y="732" on="1"/>
        <pt x="674" y="0" on="1"/>
        <pt x="626" y="0" on="1"/>
        <pt x="542" y="389" on="1"/>
        <pt x="342" y="0" on="1"/>
        <pt x="294" y="0" on="1"/>
      </contour>
    </TTGlyph>
    <TTGlyph name="Wcircumflex" xMin="150" yMin="0" xMax="1049" yMax="927">
      <contour>
        <pt x="471" y="797" on="1"/>
        <pt x="618" y="927" on="1"/>
        <pt x="656" y="927" on="1"/>
        <pt x="749" y="797" on="1"/>
        <pt x="716" y="797" on="1"/>
        <pt x="635" y="901" on="1"/>
        <pt x="510" y="797" on="1"/>
      </contour>
      <contour>
        <pt x="150" y="732" on="1"/>
        <pt x="191" y="732" on="1"/>
        <pt x="325" y="58" on="1"/>
        <pt x="671" y="732" on="1"/>
        <pt x="717" y="732" on="1"/>
        <pt x="573" y="448" on="1"/>
        <pt x="658" y="55" on="1"/>
        <pt x="1004" y="732" on="1"/>
        <pt x="1049" y="732" on="1"/>
        <pt x="674" y="0" on="1"/>
        <pt x="626" y="0" on="1"/>
        <pt x="542" y="389" on="1"/>
        <pt x="342" y="0" on="1"/>
        <pt x="294" y="0" on="1"/>
      </contour>
    </TTGlyph>
    <TTGlyph name="Wdieresis" xMin="150" yMin="0" xMax="1049" yMax="855">
      <contour>
        <pt x="480" y="854" on="0"/>
        <pt x="504" y="854" on="0"/>
        <pt x="518" y="838" on="0"/>
        <pt x="515" y="820" on="0"/>
        <pt x="509" y="809" on="0"/>
        <pt x="504" y="806" on="1"/>
        <pt x="495" y="797" on="0"/>
        <pt x="471" y="797" on="0"/>
        <pt x="456" y="814" on="0"/>
        <pt x="460" y="838" on="0"/>
      </contour>
      <contour>
        <pt x="735" y="854" on="0"/>
        <pt x="759" y="854" on="0"/>
        <pt x="773" y="838" on="0"/>
        <pt x="769" y="818" on="0"/>
        <pt x="765" y="812" on="1"/>
        <pt x="754" y="797" on="0"/>
        <pt x="726" y="797" on="0"/>
        <pt x="711" y="814" on="0"/>
        <pt x="715" y="838" on="0"/>
      </contour>
      <contour>
        <pt x="150" y="732" on="1"/>
        <pt x="191" y="732" on="1"/>
        <pt x="325" y="58" on="1"/>
        <pt x="671" y="732" on="1"/>
        <pt x="717" y="732" on="1"/>
        <pt x="573" y="448" on="1"/>
        <pt x="658" y="55" on="1"/>
        <pt x="1004" y="732" on="1"/>
        <pt x="1049" y="732" on="1"/>
        <pt x="674" y="0" on="1"/>
        <pt x="626" y="0" on="1"/>
        <pt x="542" y="389" on="1"/>
        <pt x="342" y="0" on="1"/>
        <pt x="294" y="0" on="1"/>
      </contour>
    </TTGlyph>
    <TTGlyph name="Wgrave" xMin="150" yMin="0" xMax="1049" yMax="930">
      <contour>
        <pt x="478" y="930" on="1"/>
        <pt x="524" y="930" on="1"/>
        <pt x="626" y="797" on="1"/>
        <pt x="594" y="797" on="1"/>
      </contour>
      <contour>
        <pt x="150" y="732" on="1"/>
        <pt x="191" y="732" on="1"/>
        <pt x="325" y="58" on="1"/>
        <pt x="671" y="732" on="1"/>
        <pt x="717" y="732" on="1"/>
        <pt x="573" y="448" on="1"/>
        <pt x="658" y="55" on="1"/>
        <pt x="1004" y="732" on="1"/>
        <pt x="1049" y="732" on="1"/>
        <pt x="674" y="0" on="1"/>
        <pt x="626" y="0" on="1"/>
        <pt x="542" y="389" on="1"/>
        <pt x="342" y="0" on="1"/>
        <pt x="294" y="0" on="1"/>
      </contour>
    </TTGlyph>
    <TTGlyph name="X" xMin="38" yMin="0" xMax="646" yMax="732">
      <contour>
        <pt x="38" y="0" on="1"/>
        <pt x="313" y="365" on="1"/>
        <pt x="151" y="732" on="1"/>
        <pt x="196" y="732" on="1"/>
        <pt x="342" y="402" on="1"/>
        <pt x="595" y="732" on="1"/>
        <pt x="645" y="732" on="1"/>
        <pt x="361" y="360" on="1"/>
        <pt x="522" y="0" on="1"/>
        <pt x="477" y="0" on="1"/>
        <pt x="333" y="322" on="1"/>
        <pt x="89" y="0" on="1"/>
      </contour>
    </TTGlyph>
    <TTGlyph name="X.salt" xMin="20" yMin="0" xMax="695" yMax="733">
      <contour>
        <pt x="268" y="298" on="1"/>
        <pt x="303" y="340" on="0"/>
        <pt x="303" y="383" on="1"/>
        <pt x="303" y="422" on="0"/>
        <pt x="278" y="469" on="1"/>
        <pt x="137" y="732" on="1"/>
        <pt x="182" y="732" on="1"/>
        <pt x="316" y="484" on="1"/>
        <pt x="345" y="431" on="0"/>
        <pt x="345" y="385" on="1"/>
        <pt x="345" y="325" on="0"/>
        <pt x="308" y="281" on="1"/>
        <pt x="71" y="0" on="1"/>
        <pt x="20" y="0" on="1"/>
      </contour>
      <contour>
        <pt x="384" y="287" on="1"/>
        <pt x="371" y="310" on="0"/>
        <pt x="369" y="341" on="0"/>
        <pt x="369" y="368" on="0"/>
        <pt x="377" y="392" on="1"/>
        <pt x="392" y="442" on="0"/>
        <pt x="433" y="490" on="1"/>
        <pt x="643" y="732" on="1"/>
        <pt x="695" y="732" on="1"/>
        <pt x="469" y="470" on="1"/>
        <pt x="412" y="407" on="0"/>
        <pt x="412" y="350" on="1"/>
        <pt x="412" y="324" on="0"/>
        <pt x="425" y="298" on="1"/>
        <pt x="579" y="0" on="1"/>
        <pt x="532" y="0" on="1"/>
      </contour>
    </TTGlyph>
    <TTGlyph name="Y" xMin="150" yMin="0" xMax="691" yMax="732">
      <contour>
        <pt x="150" y="732" on="1"/>
        <pt x="194" y="732" on="1"/>
        <pt x="341" y="312" on="1"/>
        <pt x="641" y="732" on="1"/>
        <pt x="690" y="732" on="1"/>
        <pt x="356" y="260" on="1"/>
        <pt x="315" y="0" on="1"/>
        <pt x="274" y="0" on="1"/>
        <pt x="315" y="260" on="1"/>
      </contour>
    </TTGlyph>
    <TTGlyph name="Yacute" xMin="150" yMin="0" xMax="691" yMax="930">
      <contour>
        <pt x="414" y="797" on="1"/>
        <pt x="551" y="930" on="1"/>
        <pt x="601" y="930" on="1"/>
        <pt x="447" y="797" on="1"/>
      </contour>
      <contour>
        <pt x="150" y="732" on="1"/>
        <pt x="194" y="732" on="1"/>
        <pt x="341" y="312" on="1"/>
        <pt x="641" y="732" on="1"/>
        <pt x="690" y="732" on="1"/>
        <pt x="356" y="260" on="1"/>
        <pt x="315" y="0" on="1"/>
        <pt x="274" y="0" on="1"/>
        <pt x="315" y="260" on="1"/>
      </contour>
    </TTGlyph>
    <TTGlyph name="Ycircumflex" xMin="150" yMin="0" xMax="691" yMax="927">
      <contour>
        <pt x="291" y="797" on="1"/>
        <pt x="439" y="927" on="1"/>
        <pt x="477" y="927" on="1"/>
        <pt x="570" y="797" on="1"/>
        <pt x="537" y="797" on="1"/>
        <pt x="455" y="901" on="1"/>
        <pt x="330" y="797" on="1"/>
      </contour>
      <contour>
        <pt x="150" y="732" on="1"/>
        <pt x="194" y="732" on="1"/>
        <pt x="341" y="312" on="1"/>
        <pt x="641" y="732" on="1"/>
        <pt x="690" y="732" on="1"/>
        <pt x="356" y="260" on="1"/>
        <pt x="315" y="0" on="1"/>
        <pt x="274" y="0" on="1"/>
        <pt x="315" y="260" on="1"/>
      </contour>
    </TTGlyph>
    <TTGlyph name="Ydieresis" xMin="135" yMin="0" xMax="676" yMax="853">
      <contour>
        <pt x="275" y="845" on="0"/>
        <pt x="290" y="853" on="0"/>
        <pt x="310" y="853" on="0"/>
        <pt x="324" y="837" on="0"/>
        <pt x="320" y="812" on="0"/>
        <pt x="301" y="795" on="0"/>
        <pt x="277" y="795" on="0"/>
        <pt x="262" y="812" on="0"/>
        <pt x="265" y="832" on="0"/>
      </contour>
      <contour>
        <pt x="541" y="853" on="0"/>
        <pt x="565" y="853" on="0"/>
        <pt x="579" y="837" on="0"/>
        <pt x="575" y="812" on="0"/>
        <pt x="556" y="795" on="0"/>
        <pt x="532" y="795" on="0"/>
        <pt x="517" y="812" on="0"/>
        <pt x="521" y="837" on="0"/>
      </contour>
      <contour>
        <pt x="135" y="732" on="1"/>
        <pt x="180" y="732" on="1"/>
        <pt x="326" y="312" on="1"/>
        <pt x="627" y="732" on="1"/>
        <pt x="676" y="732" on="1"/>
        <pt x="341" y="260" on="1"/>
        <pt x="300" y="0" on="1"/>
        <pt x="259" y="0" on="1"/>
        <pt x="300" y="260" on="1"/>
      </contour>
    </TTGlyph>
    <TTGlyph name="Ygrave" xMin="150" yMin="0" xMax="691" yMax="930">
      <contour>
        <pt x="298" y="930" on="1"/>
        <pt x="345" y="930" on="1"/>
        <pt x="447" y="797" on="1"/>
        <pt x="414" y="797" on="1"/>
      </contour>
      <contour>
        <pt x="150" y="732" on="1"/>
        <pt x="194" y="732" on="1"/>
        <pt x="341" y="312" on="1"/>
        <pt x="641" y="732" on="1"/>
        <pt x="690" y="732" on="1"/>
        <pt x="356" y="260" on="1"/>
        <pt x="315" y="0" on="1"/>
        <pt x="274" y="0" on="1"/>
        <pt x="315" y="260" on="1"/>
      </contour>
    </TTGlyph>
    <TTGlyph name="Z" xMin="35" yMin="0" xMax="625" yMax="732">
      <contour>
        <pt x="35" y="0" on="1"/>
        <pt x="42" y="41" on="1"/>
        <pt x="563" y="691" on="1"/>
        <pt x="144" y="691" on="1"/>
        <pt x="151" y="732" on="1"/>
        <pt x="624" y="732" on="1"/>
        <pt x="617" y="691" on="1"/>
        <pt x="96" y="41" on="1"/>
        <pt x="515" y="41" on="1"/>
        <pt x="508" y="0" on="1"/>
      </contour>
    </TTGlyph>
    <TTGlyph name="Zacute" xMin="70" yMin="0" xMax="660" yMax="929">
      <contour>
        <pt x="417" y="795" on="1"/>
        <pt x="554" y="928" on="1"/>
        <pt x="603" y="928" on="1"/>
        <pt x="449" y="795" on="1"/>
      </contour>
      <contour>
        <pt x="70" y="0" on="1"/>
        <pt x="77" y="41" on="1"/>
        <pt x="599" y="691" on="1"/>
        <pt x="180" y="691" on="1"/>
        <pt x="186" y="732" on="1"/>
        <pt x="660" y="732" on="1"/>
        <pt x="653" y="691" on="1"/>
        <pt x="131" y="41" on="1"/>
        <pt x="550" y="41" on="1"/>
        <pt x="544" y="0" on="1"/>
      </contour>
    </TTGlyph>
    <TTGlyph name="Zcaron" xMin="35" yMin="0" xMax="625" yMax="927">
      <contour>
        <pt x="279" y="927" on="1"/>
        <pt x="313" y="927" on="1"/>
        <pt x="394" y="823" on="1"/>
        <pt x="519" y="927" on="1"/>
        <pt x="558" y="927" on="1"/>
        <pt x="410" y="797" on="1"/>
        <pt x="372" y="797" on="1"/>
      </contour>
      <contour>
        <pt x="35" y="0" on="1"/>
        <pt x="42" y="41" on="1"/>
        <pt x="563" y="691" on="1"/>
        <pt x="144" y="691" on="1"/>
        <pt x="151" y="732" on="1"/>
        <pt x="624" y="732" on="1"/>
        <pt x="617" y="691" on="1"/>
        <pt x="96" y="41" on="1"/>
        <pt x="515" y="41" on="1"/>
        <pt x="508" y="0" on="1"/>
      </contour>
    </TTGlyph>
    <TTGlyph name="Zdotaccent" xMin="35" yMin="0" xMax="625" yMax="876">
      <contour>
        <pt x="379" y="876" on="1"/>
        <pt x="404" y="876" on="1"/>
        <pt x="419" y="876" on="0"/>
        <pt x="417" y="859" on="1"/>
        <pt x="407" y="800" on="1"/>
        <pt x="405" y="784" on="0"/>
        <pt x="389" y="784" on="1"/>
        <pt x="365" y="784" on="1"/>
        <pt x="349" y="784" on="0"/>
        <pt x="351" y="800" on="1"/>
        <pt x="361" y="859" on="1"/>
        <pt x="363" y="876" on="0"/>
      </contour>
      <contour>
        <pt x="35" y="0" on="1"/>
        <pt x="42" y="41" on="1"/>
        <pt x="563" y="691" on="1"/>
        <pt x="144" y="691" on="1"/>
        <pt x="151" y="732" on="1"/>
        <pt x="624" y="732" on="1"/>
        <pt x="617" y="691" on="1"/>
        <pt x="96" y="41" on="1"/>
        <pt x="515" y="41" on="1"/>
        <pt x="508" y="0" on="1"/>
      </contour>
    </TTGlyph>
    <TTGlyph name="a" xMin="79" yMin="-7" xMax="546" yMax="544">
      <contour>
        <pt x="236" y="526" on="0"/>
        <pt x="279" y="537" on="0"/>
        <pt x="325" y="543" on="0"/>
        <pt x="386" y="543" on="0"/>
        <pt x="509" y="514" on="0"/>
        <pt x="545" y="479" on="1"/>
        <pt x="475" y="0" on="1"/>
        <pt x="448" y="0" on="1"/>
        <pt x="445" y="60" on="1"/>
        <pt x="412" y="39" on="0"/>
        <pt x="296" y="-7" on="0"/>
        <pt x="215" y="-7" on="0"/>
        <pt x="167" y="3" on="0"/>
        <pt x="145" y="14" on="1"/>
        <pt x="104" y="36" on="0"/>
        <pt x="87" y="99" on="1"/>
        <pt x="79" y="128" on="0"/>
        <pt x="79" y="172" on="0"/>
        <pt x="80" y="221" on="0"/>
        <pt x="101" y="343" on="0"/>
        <pt x="139" y="439" on="0"/>
        <pt x="180" y="492" on="0"/>
      </contour>
      <contour>
        <pt x="120" y="173" on="1"/>
        <pt x="120" y="33" on="0"/>
        <pt x="240" y="33" on="1"/>
        <pt x="307" y="33" on="0"/>
        <pt x="371" y="57" on="1"/>
        <pt x="393" y="66" on="0"/>
        <pt x="442" y="87" on="0"/>
        <pt x="447" y="89" on="1"/>
        <pt x="502" y="468" on="1"/>
        <pt x="422" y="503" on="0"/>
        <pt x="350" y="503" on="1"/>
        <pt x="274" y="503" on="0"/>
        <pt x="225" y="471" on="1"/>
        <pt x="155" y="424" on="0"/>
        <pt x="127" y="248" on="1"/>
        <pt x="120" y="207" on="0"/>
      </contour>
    </TTGlyph>
    <TTGlyph name="a.salt" xMin="81" yMin="-11" xMax="551" yMax="535">
      <contour>
        <pt x="331" y="535" on="1"/>
        <pt x="386" y="535" on="0"/>
        <pt x="509" y="508" on="0"/>
        <pt x="550" y="489" on="1"/>
        <pt x="481" y="3" on="1"/>
        <pt x="455" y="-1" on="0"/>
        <pt x="291" y="-10" on="0"/>
        <pt x="241" y="-10" on="1"/>
        <pt x="148" y="-10" on="0"/>
        <pt x="108" y="58" on="1"/>
        <pt x="82" y="103" on="0"/>
        <pt x="82" y="177" on="1"/>
        <pt x="82" y="216" on="0"/>
        <pt x="89" y="263" on="1"/>
        <pt x="109" y="400" on="0"/>
        <pt x="220" y="535" on="0"/>
      </contour>
      <contour>
        <pt x="124" y="181" on="1"/>
        <pt x="124" y="31" on="0"/>
        <pt x="243" y="31" on="1"/>
        <pt x="445" y="33" on="1"/>
        <pt x="510" y="467" on="1"/>
        <pt x="397" y="495" on="0"/>
        <pt x="239" y="495" on="0"/>
        <pt x="149" y="382" on="0"/>
        <pt x="130" y="258" on="1"/>
        <pt x="124" y="216" on="0"/>
      </contour>
    </TTGlyph>
    <TTGlyph name="a.smcp" xMin="41" yMin="0" xMax="543" yMax="570">
      <contour>
        <pt x="42" y="0" on="1"/>
        <pt x="370" y="570" on="1"/>
        <pt x="411" y="570" on="1"/>
        <pt x="543" y="0" on="1"/>
        <pt x="500" y="0" on="1"/>
        <pt x="460" y="172" on="1"/>
        <pt x="187" y="172" on="1"/>
        <pt x="90" y="0" on="1"/>
      </contour>
      <contour>
        <pt x="210" y="213" on="1"/>
        <pt x="451" y="213" on="1"/>
        <pt x="383" y="517" on="1"/>
      </contour>
    </TTGlyph>
    <TTGlyph name="a.superior" xMin="38" yMin="364" xMax="374" yMax="736">
      <contour>
        <pt x="192" y="735" on="1"/>
        <pt x="200" y="736" on="0"/>
        <pt x="246" y="736" on="0"/>
        <pt x="350" y="714" on="0"/>
        <pt x="373" y="691" on="1"/>
        <pt x="323" y="369" on="1"/>
        <pt x="302" y="369" on="1"/>
        <pt x="299" y="423" on="1"/>
        <pt x="270" y="396" on="0"/>
        <pt x="174" y="364" on="0"/>
        <pt x="115" y="364" on="0"/>
        <pt x="74" y="380" on="0"/>
        <pt x="58" y="401" on="1"/>
        <pt x="39" y="426" on="0"/>
        <pt x="39" y="510" on="0"/>
        <pt x="43" y="553" on="1"/>
        <pt x="70" y="727" on="0"/>
      </contour>
      <contour>
        <pt x="75" y="549" on="1"/>
        <pt x="71" y="509" on="0"/>
        <pt x="71" y="477" on="0"/>
        <pt x="72" y="444" on="0"/>
        <pt x="83" y="427" on="1"/>
        <pt x="102" y="398" on="0"/>
        <pt x="145" y="398" on="1"/>
        <pt x="198" y="398" on="0"/>
        <pt x="265" y="429" on="1"/>
        <pt x="285" y="438" on="0"/>
        <pt x="302" y="448" on="1"/>
        <pt x="339" y="680" on="1"/>
        <pt x="282" y="703" on="0"/>
        <pt x="211" y="703" on="1"/>
        <pt x="206" y="703" on="0"/>
        <pt x="201" y="703" on="1"/>
        <pt x="98" y="701" on="0"/>
      </contour>
    </TTGlyph>
    <TTGlyph name="aacute" xMin="79" yMin="-7" xMax="546" yMax="736">
      <contour>
        <pt x="342" y="603" on="1"/>
        <pt x="479" y="736" on="1"/>
        <pt x="529" y="736" on="1"/>
        <pt x="375" y="603" on="1"/>
      </contour>
      <contour>
        <pt x="236" y="526" on="0"/>
        <pt x="279" y="537" on="0"/>
        <pt x="325" y="543" on="0"/>
        <pt x="386" y="543" on="0"/>
        <pt x="509" y="514" on="0"/>
        <pt x="545" y="479" on="1"/>
        <pt x="475" y="0" on="1"/>
        <pt x="448" y="0" on="1"/>
        <pt x="445" y="60" on="1"/>
        <pt x="412" y="39" on="0"/>
        <pt x="296" y="-7" on="0"/>
        <pt x="215" y="-7" on="0"/>
        <pt x="167" y="3" on="0"/>
        <pt x="145" y="14" on="1"/>
        <pt x="104" y="36" on="0"/>
        <pt x="87" y="99" on="1"/>
        <pt x="79" y="128" on="0"/>
        <pt x="79" y="172" on="0"/>
        <pt x="80" y="221" on="0"/>
        <pt x="101" y="343" on="0"/>
        <pt x="139" y="439" on="0"/>
        <pt x="180" y="492" on="0"/>
      </contour>
      <contour>
        <pt x="120" y="173" on="1"/>
        <pt x="120" y="33" on="0"/>
        <pt x="240" y="33" on="1"/>
        <pt x="307" y="33" on="0"/>
        <pt x="371" y="57" on="1"/>
        <pt x="393" y="66" on="0"/>
        <pt x="442" y="87" on="0"/>
        <pt x="447" y="89" on="1"/>
        <pt x="502" y="468" on="1"/>
        <pt x="422" y="503" on="0"/>
        <pt x="350" y="503" on="1"/>
        <pt x="274" y="503" on="0"/>
        <pt x="225" y="471" on="1"/>
        <pt x="155" y="424" on="0"/>
        <pt x="127" y="248" on="1"/>
        <pt x="120" y="207" on="0"/>
      </contour>
    </TTGlyph>
    <TTGlyph name="aacute.salt" xMin="81" yMin="-11" xMax="551" yMax="731">
      <contour>
        <pt x="347" y="598" on="1"/>
        <pt x="485" y="731" on="1"/>
        <pt x="534" y="731" on="1"/>
        <pt x="380" y="598" on="1"/>
      </contour>
      <contour>
        <pt x="331" y="535" on="1"/>
        <pt x="386" y="535" on="0"/>
        <pt x="509" y="508" on="0"/>
        <pt x="550" y="489" on="1"/>
        <pt x="481" y="3" on="1"/>
        <pt x="455" y="-1" on="0"/>
        <pt x="291" y="-10" on="0"/>
        <pt x="241" y="-10" on="1"/>
        <pt x="148" y="-10" on="0"/>
        <pt x="108" y="58" on="1"/>
        <pt x="82" y="103" on="0"/>
        <pt x="82" y="177" on="1"/>
        <pt x="82" y="216" on="0"/>
        <pt x="89" y="263" on="1"/>
        <pt x="109" y="400" on="0"/>
        <pt x="220" y="535" on="0"/>
      </contour>
      <contour>
        <pt x="124" y="181" on="1"/>
        <pt x="124" y="31" on="0"/>
        <pt x="243" y="31" on="1"/>
        <pt x="445" y="33" on="1"/>
        <pt x="510" y="467" on="1"/>
        <pt x="397" y="495" on="0"/>
        <pt x="239" y="495" on="0"/>
        <pt x="149" y="382" on="0"/>
        <pt x="130" y="258" on="1"/>
        <pt x="124" y="216" on="0"/>
      </contour>
    </TTGlyph>
    <TTGlyph name="aacute.smcp" xMin="41" yMin="0" xMax="571" yMax="763">
      <contour>
        <pt x="384" y="630" on="1"/>
        <pt x="521" y="763" on="1"/>
        <pt x="570" y="763" on="1"/>
        <pt x="416" y="630" on="1"/>
      </contour>
      <contour>
        <pt x="42" y="0" on="1"/>
        <pt x="370" y="570" on="1"/>
        <pt x="411" y="570" on="1"/>
        <pt x="543" y="0" on="1"/>
        <pt x="500" y="0" on="1"/>
        <pt x="460" y="172" on="1"/>
        <pt x="188" y="172" on="1"/>
        <pt x="90" y="0" on="1"/>
      </contour>
      <contour>
        <pt x="210" y="213" on="1"/>
        <pt x="451" y="213" on="1"/>
        <pt x="383" y="517" on="1"/>
      </contour>
    </TTGlyph>
    <TTGlyph name="abreve" xMin="79" yMin="-7" xMax="546" yMax="717">
      <contour>
        <pt x="286" y="701" on="1"/>
        <pt x="286" y="673" on="0"/>
        <pt x="325" y="628" on="0"/>
        <pt x="360" y="628" on="1"/>
        <pt x="361" y="628" on="0"/>
        <pt x="388" y="628" on="0"/>
        <pt x="410" y="639" on="1"/>
        <pt x="458" y="661" on="0"/>
        <pt x="466" y="717" on="1"/>
        <pt x="491" y="717" on="1"/>
        <pt x="483" y="662" on="0"/>
        <pt x="409" y="603" on="0"/>
        <pt x="317" y="603" on="0"/>
        <pt x="261" y="660" on="0"/>
        <pt x="261" y="699" on="1"/>
        <pt x="261" y="708" on="0"/>
        <pt x="262" y="717" on="1"/>
        <pt x="287" y="717" on="1"/>
        <pt x="286" y="709" on="0"/>
      </contour>
      <contour>
        <pt x="236" y="526" on="0"/>
        <pt x="279" y="537" on="0"/>
        <pt x="325" y="543" on="0"/>
        <pt x="386" y="543" on="0"/>
        <pt x="509" y="514" on="0"/>
        <pt x="545" y="479" on="1"/>
        <pt x="475" y="0" on="1"/>
        <pt x="448" y="0" on="1"/>
        <pt x="445" y="60" on="1"/>
        <pt x="412" y="39" on="0"/>
        <pt x="296" y="-7" on="0"/>
        <pt x="215" y="-7" on="0"/>
        <pt x="167" y="3" on="0"/>
        <pt x="145" y="14" on="1"/>
        <pt x="104" y="36" on="0"/>
        <pt x="87" y="99" on="1"/>
        <pt x="79" y="128" on="0"/>
        <pt x="79" y="172" on="0"/>
        <pt x="80" y="221" on="0"/>
        <pt x="101" y="343" on="0"/>
        <pt x="139" y="439" on="0"/>
        <pt x="180" y="492" on="0"/>
      </contour>
      <contour>
        <pt x="120" y="173" on="1"/>
        <pt x="120" y="33" on="0"/>
        <pt x="240" y="33" on="1"/>
        <pt x="307" y="33" on="0"/>
        <pt x="371" y="57" on="1"/>
        <pt x="393" y="66" on="0"/>
        <pt x="442" y="87" on="0"/>
        <pt x="447" y="89" on="1"/>
        <pt x="502" y="468" on="1"/>
        <pt x="422" y="503" on="0"/>
        <pt x="350" y="503" on="1"/>
        <pt x="274" y="503" on="0"/>
        <pt x="225" y="471" on="1"/>
        <pt x="155" y="424" on="0"/>
        <pt x="127" y="248" on="1"/>
        <pt x="120" y="207" on="0"/>
      </contour>
    </TTGlyph>
    <TTGlyph name="abreve.salt" xMin="81" yMin="-11" xMax="551" yMax="710">
      <contour>
        <pt x="288" y="694" on="1"/>
        <pt x="288" y="666" on="0"/>
        <pt x="327" y="621" on="0"/>
        <pt x="362" y="621" on="1"/>
        <pt x="404" y="621" on="0"/>
        <pt x="462" y="669" on="0"/>
        <pt x="469" y="710" on="1"/>
        <pt x="494" y="710" on="1"/>
        <pt x="485" y="655" on="0"/>
        <pt x="411" y="596" on="0"/>
        <pt x="319" y="596" on="0"/>
        <pt x="264" y="653" on="0"/>
        <pt x="264" y="692" on="1"/>
        <pt x="264" y="701" on="0"/>
        <pt x="265" y="710" on="1"/>
        <pt x="290" y="710" on="1"/>
        <pt x="288" y="702" on="0"/>
      </contour>
      <contour>
        <pt x="331" y="535" on="1"/>
        <pt x="386" y="535" on="0"/>
        <pt x="509" y="508" on="0"/>
        <pt x="550" y="489" on="1"/>
        <pt x="481" y="3" on="1"/>
        <pt x="455" y="-1" on="0"/>
        <pt x="291" y="-10" on="0"/>
        <pt x="241" y="-10" on="1"/>
        <pt x="148" y="-10" on="0"/>
        <pt x="108" y="58" on="1"/>
        <pt x="82" y="103" on="0"/>
        <pt x="82" y="177" on="1"/>
        <pt x="82" y="216" on="0"/>
        <pt x="89" y="263" on="1"/>
        <pt x="109" y="400" on="0"/>
        <pt x="220" y="535" on="0"/>
      </contour>
      <contour>
        <pt x="124" y="181" on="1"/>
        <pt x="124" y="31" on="0"/>
        <pt x="243" y="31" on="1"/>
        <pt x="445" y="33" on="1"/>
        <pt x="510" y="467" on="1"/>
        <pt x="397" y="495" on="0"/>
        <pt x="239" y="495" on="0"/>
        <pt x="149" y="382" on="0"/>
        <pt x="130" y="258" on="1"/>
        <pt x="124" y="216" on="0"/>
      </contour>
    </TTGlyph>
    <TTGlyph name="abreve.smcp" xMin="41" yMin="0" xMax="543" yMax="744">
      <contour>
        <pt x="324" y="728" on="1"/>
        <pt x="324" y="700" on="0"/>
        <pt x="363" y="655" on="0"/>
        <pt x="398" y="655" on="1"/>
        <pt x="399" y="655" on="0"/>
        <pt x="426" y="655" on="0"/>
        <pt x="448" y="666" on="1"/>
        <pt x="496" y="688" on="0"/>
        <pt x="504" y="744" on="1"/>
        <pt x="529" y="744" on="1"/>
        <pt x="521" y="689" on="0"/>
        <pt x="447" y="630" on="0"/>
        <pt x="355" y="630" on="0"/>
        <pt x="299" y="687" on="0"/>
        <pt x="299" y="726" on="1"/>
        <pt x="299" y="735" on="0"/>
        <pt x="300" y="744" on="1"/>
        <pt x="325" y="744" on="1"/>
        <pt x="324" y="736" on="0"/>
      </contour>
      <contour>
        <pt x="42" y="0" on="1"/>
        <pt x="370" y="570" on="1"/>
        <pt x="411" y="570" on="1"/>
        <pt x="543" y="0" on="1"/>
        <pt x="500" y="0" on="1"/>
        <pt x="460" y="172" on="1"/>
        <pt x="188" y="172" on="1"/>
        <pt x="90" y="0" on="1"/>
      </contour>
      <contour>
        <pt x="210" y="213" on="1"/>
        <pt x="451" y="213" on="1"/>
        <pt x="383" y="517" on="1"/>
      </contour>
    </TTGlyph>
</ttFont>
